161Source005-cubic.ufo
<glyph name="exclam" format="2">
	<advance width="682"/>
	<unicode hex="0021"/>
	<note>
		exclam
	</note>
	<outline>
		<contour>
			<point x="322" y="359" type="line"/>
			<point x="360" y="359" type="line"/>
			<point x="452" y="1191" type="line"/>
			<point x="454" y="1224" type="line"/>
			<point x="454" y="1311" type="line"/>
			<point x="390" y="1387" type="line"/>
			<point x="318" y="1387" type="line"/>
			<point x="277" y="1367" type="line"/>
			<point x="246" y="1331" type="line"/>
			<point x="228" y="1279" type="line"/>
			<point x="228" y="1221" type="line"/>
		</contour>
		<contour>
			<point x="317" y="-28" type="line"/>
			<point x="363" y="-28" type="line"/>
			<point x="403" y="-10" type="line"/>
			<point x="433" y="20" type="line"/>
			<point x="451" y="60" type="line"/>
			<point x="451" y="105" type="line"/>
			<point x="433" y="145" type="line"/>
			<point x="403" y="175" type="line"/>
			<point x="362" y="193" type="line"/>
			<point x="317" y="193" type="line"/>
			<point x="277" y="176" type="line"/>
			<point x="247" y="146" type="line"/>
			<point x="229" y="106" type="line"/>
			<point x="229" y="60" type="line"/>
			<point x="247" y="20" type="line"/>
			<point x="277" y="-10" type="line"/>
		</contour>
	</outline>
</glyph>
<glyph name="quotedbl" format="2">
	<advance width="836"/>
	<unicode hex="0022"/>
	<note>
		quotedbl
	</note>
	<outline>
		<contour>
			<point x="576" y="803" type="line"/>
			<point x="624" y="803" type="line"/>
			<point x="691" y="1146" type="line"/>
			<point x="700" y="1237" type="line"/>
			<point x="700" y="1329" type="line"/>
			<point x="643" y="1387" type="line"/>
			<point x="554" y="1387" type="line"/>
			<point x="498" y="1329" type="line"/>
			<point x="498" y="1253" type="line"/>
			<point x="499" y="1241" type="line"/>
			<point x="499" y="1229" type="line"/>
			<point x="500" y="1216" type="line"/>
		</contour>
		<contour>
			<point x="210" y="803" type="line"/>
			<point x="253" y="803" type="line"/>
			<point x="320" y="1170" type="line"/>
			<point x="333" y="1259" type="line"/>
			<point x="333" y="1328" type="line"/>
			<point x="276" y="1387" type="line"/>
			<point x="186" y="1387" type="line"/>
			<point x="133" y="1329" type="line"/>
			<point x="133" y="1243" type="line"/>
			<point x="144" y="1160" type="line"/>
		</contour>
	</outline>
</glyph>
<glyph name="numbersign" format="2">
	<advance width="1024"/>
	<unicode hex="0023"/>
	<note>
		numbersign
	</note>
	<outline>
		<contour>
			<point x="115" y="-28" type="line"/>
			<point x="198" y="-28" type="line"/>
			<point x="293" y="427" type="line"/>
			<point x="632" y="427" type="line"/>
			<point x="541" y="-28" type="line"/>
			<point x="622" y="-28" type="line"/>
			<point x="715" y="427" type="line"/>
			<point x="987" y="427" type="line"/>
			<point x="987" y="509" type="line"/>
			<point x="732" y="509" type="line"/>
			<point x="802" y="852" type="line"/>
			<point x="987" y="852" type="line"/>
			<point x="987" y="932" type="line"/>
			<point x="817" y="932" type="line"/>
			<point x="912" y="1387" type="line"/>
			<point x="829" y="1387" type="line"/>
			<point x="732" y="932" type="line"/>
			<point x="395" y="932" type="line"/>
			<point x="486" y="1387" type="line"/>
			<point x="403" y="1387" type="line"/>
			<point x="312" y="932" type="line"/>
			<point x="37" y="932" type="line"/>
			<point x="37" y="852" type="line"/>
			<point x="293" y="852" type="line"/>
			<point x="224" y="509" type="line"/>
			<point x="37" y="509" type="line"/>
			<point x="37" y="427" type="line"/>
			<point x="208" y="427" type="line"/>
		</contour>
		<contour>
			<point x="308" y="509" type="line"/>
			<point x="378" y="852" type="line"/>
			<point x="719" y="852" type="line"/>
			<point x="647" y="509" type="line"/>
		</contour>
	</outline>
</glyph>
<glyph name="dollar" format="2">
	<advance width="1024"/>
	<unicode hex="0024"/>
	<note>
		dollar
	</note>
	<outline>
		<contour>
			<point x="462" y="-156" type="line"/>
			<point x="526" y="-156" type="line"/>
			<point x="526" y="-28" type="line"/>
			<point x="619" y="-20" type="line"/>
			<point x="766" y="45" type="line"/>
			<point x="868" y="144" type="line"/>
			<point x="895" y="206" type="line" smooth="yes"/>
			<point x="912" y="247"/>
			<point x="921" y="291"/>
			<point x="921" y="336" type="curve" smooth="yes"/>
			<point x="921" y="378"/>
			<point x="915" y="416"/>
			<point x="903" y="450" type="curve" smooth="yes"/>
			<point x="884" y="501" type="line"/>
			<point x="778" y="627" type="line"/>
			<point x="526" y="803" type="line"/>
			<point x="526" y="1311" type="line"/>
			<point x="596" y="1304" type="line"/>
			<point x="699" y="1262" type="line"/>
			<point x="735" y="1224" type="line" smooth="yes"/>
			<point x="758" y="1198"/>
			<point x="777" y="1166"/>
			<point x="790" y="1128" type="curve" smooth="yes"/>
			<point x="810" y="1070" type="line"/>
			<point x="817" y="991" type="line"/>
			<point x="856" y="991" type="line"/>
			<point x="856" y="1290" type="line"/>
			<point x="692" y="1351" type="line"/>
			<point x="636" y="1366" type="line"/>
			<point x="568" y="1376" type="line"/>
			<point x="526" y="1378" type="line"/>
			<point x="526" y="1470" type="line"/>
			<point x="462" y="1470" type="line"/>
			<point x="462" y="1378" type="line"/>
			<point x="377" y="1368" type="line"/>
			<point x="245" y="1310" type="line"/>
			<point x="155" y="1223" type="line"/>
			<point x="132" y="1168" type="line" smooth="yes"/>
			<point x="117" y="1131"/>
			<point x="109" y="1093"/>
			<point x="109" y="1052" type="curve" smooth="yes"/>
			<point x="109" y="944" type="line"/>
			<point x="237" y="760" type="line"/>
			<point x="462" y="621" type="line"/>
			<point x="462" y="37" type="line"/>
			<point x="312" y="51" type="line"/>
			<point x="163" y="196" type="line"/>
			<point x="152" y="334" type="line"/>
			<point x="108" y="334" type="line"/>
			<point x="108" y="51" type="line"/>
			<point x="157" y="30" type="line"/>
			<point x="246" y="2" type="line"/>
			<point x="287" y="-6" type="line" smooth="yes"/>
			<point x="314" y="-12"/>
			<point x="342" y="-17"/>
			<point x="371" y="-21" type="curve" smooth="yes"/>
			<point x="414" y="-26" type="line"/>
			<point x="462" y="-28" type="line"/>
		</contour>
		<contour>
			<point x="526" y="37" type="line"/>
			<point x="526" y="578" type="line"/>
			<point x="682" y="471" type="line"/>
			<point x="762" y="352" type="line"/>
			<point x="762" y="193" type="line"/>
			<point x="642" y="58" type="line"/>
		</contour>
		<contour>
			<point x="462" y="845" type="line"/>
			<point x="406" y="881" type="line"/>
			<point x="331" y="948" type="line"/>
			<point x="285" y="1013" type="line"/>
			<point x="265" y="1080" type="line"/>
			<point x="265" y="1195" type="line"/>
			<point x="362" y="1298" type="line"/>
			<point x="462" y="1310" type="line"/>
		</contour>
	</outline>
</glyph>
<glyph name="percent" format="2">
	<advance width="1706"/>
	<unicode hex="0025"/>
	<note>
		percent
	</note>
	<outline>
		<contour>
			<point x="315" y="-56" type="line"/>
			<point x="404" y="-56" type="line"/>
			<point x="1392" y="1387" type="line"/>
			<point x="1303" y="1387" type="line"/>
		</contour>
		<contour>
			<point x="304" y="658" type="line"/>
			<point x="421" y="658" type="line"/>
			<point x="473" y="682" type="line" smooth="yes"/>
			<point x="508" y="697"/>
			<point x="538" y="720"/>
			<point x="565" y="751" type="curve" smooth="yes"/>
			<point x="604" y="797" type="line"/>
			<point x="650" y="933" type="line"/>
			<point x="650" y="1097" type="line"/>
			<point x="607" y="1230" type="line"/>
			<point x="530" y="1329" type="line"/>
			<point x="477" y="1358" type="line" smooth="yes"/>
			<point x="442" y="1377"/>
			<point x="403" y="1387"/>
			<point x="361" y="1387" type="curve" smooth="yes"/>
			<point x="309" y="1387" type="line"/>
			<point x="206" y="1340" type="line"/>
			<point x="125" y="1247" type="line"/>
			<point x="75" y="1111" type="line"/>
			<point x="75" y="943" type="line"/>
			<point x="120" y="809" type="line"/>
			<point x="198" y="712" type="line"/>
		</contour>
		<contour>
			<point x="362" y="714" type="line"/>
			<point x="322" y="714"/>
			<point x="291" y="738"/>
			<point x="268" y="787" type="curve" smooth="yes"/>
			<point x="234" y="859" type="line"/>
			<point x="234" y="1102" type="line"/>
			<point x="253" y="1224" type="line"/>
			<point x="287" y="1300" type="line"/>
			<point x="334" y="1334" type="line"/>
			<point x="424" y="1334" type="line"/>
			<point x="492" y="1178" type="line"/>
			<point x="492" y="864" type="line"/>
			<point x="417" y="714" type="line"/>
		</contour>
		<contour>
			<point x="1289" y="-56" type="line"/>
			<point x="1406" y="-56" type="line"/>
			<point x="1510" y="-9" type="line"/>
			<point x="1589" y="83" type="line"/>
			<point x="1635" y="219" type="line"/>
			<point x="1635" y="383" type="line"/>
			<point x="1592" y="516" type="line"/>
			<point x="1515" y="615" type="line"/>
			<point x="1409" y="673" type="line"/>
			<point x="1294" y="673" type="line"/>
			<point x="1191" y="626" type="line"/>
			<point x="1110" y="533" type="line"/>
			<point x="1060" y="397" type="line"/>
			<point x="1060" y="229" type="line"/>
			<point x="1105" y="95" type="line"/>
			<point x="1183" y="-2" type="line"/>
		</contour>
		<contour>
			<point x="1347" y="0" type="line"/>
			<point x="1307" y="0"/>
			<point x="1276" y="24"/>
			<point x="1253" y="73" type="curve" smooth="yes"/>
			<point x="1219" y="145" type="line"/>
			<point x="1219" y="388" type="line"/>
			<point x="1238" y="510" type="line"/>
			<point x="1272" y="586" type="line"/>
			<point x="1319" y="620" type="line"/>
			<point x="1409" y="620" type="line"/>
			<point x="1477" y="464" type="line"/>
			<point x="1477" y="150" type="line"/>
			<point x="1402" y="0" type="line"/>
		</contour>
	</outline>
</glyph>
<glyph name="ampersand" format="2">
	<advance width="1593"/>
	<unicode hex="0026"/>
	<note>
		ampersand
	</note>
	<outline>
		<contour>
			<point x="285" y="-7" type="curve" smooth="yes"/>
			<point x="351" y="-31" type="line"/>
			<point x="547" y="-31" type="line"/>
			<point x="745" y="54" type="line"/>
			<point x="870" y="164" type="line"/>
			<point x="920" y="111" type="line"/>
			<point x="1011" y="37" type="line"/>
			<point x="1098" y="-10" type="line"/>
			<point x="1180" y="-31" type="line"/>
			<point x="1330" y="-31" type="line"/>
			<point x="1412" y="36" type="line" smooth="yes"/>
			<point x="1467" y="81"/>
			<point x="1506" y="150"/>
			<point x="1531" y="244" type="curve"/>
			<point x="1494" y="271" type="line"/>
			<point x="1467" y="174"/>
			<point x="1401" y="123"/>
			<point x="1309" y="123" type="curve" smooth="yes"/>
			<point x="1273" y="123" type="line"/>
			<point x="1239" y="133" type="line" smooth="yes"/>
			<point x="1192" y="145"/>
			<point x="1145" y="174"/>
			<point x="1093" y="222" type="curve" smooth="yes"/>
			<point x="1054" y="258" type="line"/>
			<point x="1009" y="310" type="line"/>
			<point x="1118" y="448" type="line"/>
			<point x="1295" y="765" type="line"/>
			<point x="1336" y="797" type="line" smooth="yes"/>
			<point x="1364" y="818"/>
			<point x="1407" y="831"/>
			<point x="1465" y="836" type="curve"/>
			<point x="1465" y="873" type="line"/>
			<point x="1045" y="873" type="line"/>
			<point x="1045" y="836" type="line"/>
			<point x="1060" y="834"/>
			<point x="1074" y="829"/>
			<point x="1086" y="822" type="curve" smooth="yes"/>
			<point x="1103" y="811" type="line"/>
			<point x="1126" y="780" type="line"/>
			<point x="1138" y="741" type="line"/>
			<point x="1138" y="579" type="line"/>
			<point x="962" y="368" type="line"/>
			<point x="893" y="462" type="line"/>
			<point x="761" y="668" type="line"/>
			<point x="697" y="782" type="line"/>
			<point x="790" y="830" type="line"/>
			<point x="917" y="917" type="line"/>
			<point x="1026" y="1036" type="line"/>
			<point x="1026" y="1194" type="line"/>
			<point x="1006" y="1239" type="line" smooth="yes"/>
			<point x="993" y="1268"/>
			<point x="974" y="1294"/>
			<point x="950" y="1316" type="curve" smooth="yes"/>
			<point x="914" y="1349" type="line"/>
			<point x="815" y="1387" type="line"/>
			<point x="684" y="1387" type="line"/>
			<point x="557" y="1340" type="line"/>
			<point x="462" y="1253" type="line"/>
			<point x="435" y="1192" type="line" smooth="yes"/>
			<point x="417" y="1151"/>
			<point x="408" y="1106"/>
			<point x="408" y="1056" type="curve" smooth="yes"/>
			<point x="408" y="1024" type="line"/>
			<point x="415" y="963" type="line"/>
			<point x="434" y="894" type="line"/>
			<point x="450" y="853" type="line" smooth="yes"/>
			<point x="460" y="825"/>
			<point x="473" y="793"/>
			<point x="489" y="758" type="curve"/>
			<point x="248" y="629" type="line"/>
			<point x="75" y="388" type="line"/>
			<point x="75" y="207" type="line"/>
			<point x="125" y="98" type="line"/>
			<point x="172" y="58" type="line" smooth="yes"/>
			<point x="203" y="31"/>
			<point x="241" y="9"/>
		</contour>
		<contour>
			<point x="478" y="90" type="line"/>
			<point x="384" y="135" type="line"/>
			<point x="318" y="209" type="line"/>
			<point x="282" y="306" type="line"/>
			<point x="282" y="552" type="line"/>
			<point x="523" y="691" type="line"/>
			<point x="554" y="629" type="line"/>
			<point x="609" y="527" type="line"/>
			<point x="661" y="443" type="line"/>
			<point x="752" y="313" type="line"/>
			<point x="818" y="222" type="line"/>
			<point x="784" y="194"/>
			<point x="754" y="171"/>
			<point x="729" y="154" type="curve" smooth="yes"/>
			<point x="691" y="128" type="line"/>
			<point x="627" y="100" type="line"/>
			<point x="569" y="90" type="line"/>
		</contour>
		<contour>
			<point x="663" y="847" type="line"/>
			<point x="637" y="908" type="line"/>
			<point x="605" y="994" type="line"/>
			<point x="586" y="1058" type="line"/>
			<point x="579" y="1109" type="line"/>
			<point x="579" y="1163" type="line"/>
			<point x="601" y="1226" type="line"/>
			<point x="645" y="1279" type="line"/>
			<point x="711" y="1314" type="line"/>
			<point x="788" y="1314" type="line"/>
			<point x="845" y="1289" type="line"/>
			<point x="866" y="1267" type="line" smooth="yes"/>
			<point x="879" y="1252"/>
			<point x="890" y="1234"/>
			<point x="898" y="1214" type="curve" smooth="yes"/>
			<point x="910" y="1183" type="line"/>
			<point x="910" y="965" type="line"/>
		</contour>
	</outline>
</glyph>
<glyph name="quotesingle" format="2">
	<advance width="369"/>
	<unicode hex="0027"/>
	<note>
		quotesingle
	</note>
	<outline>
		<contour>
			<point x="158" y="803" type="line"/>
			<point x="202" y="803" type="line"/>
			<point x="270" y="1171" type="line"/>
			<point x="281" y="1261" type="line"/>
			<point x="282" y="1280" type="line"/>
			<point x="282" y="1328" type="line"/>
			<point x="223" y="1387" type="line"/>
			<point x="133" y="1387" type="line"/>
			<point x="81" y="1329" type="line"/>
			<point x="81" y="1243" type="line"/>
			<point x="93" y="1161" type="line"/>
		</contour>
	</outline>
</glyph>
<glyph name="parenleft" format="2">
	<advance width="682"/>
	<unicode hex="0028"/>
	<note>
		parenleft
	</note>
	<outline>
		<contour>
			<point x="636" y="-438" type="line"/>
			<point x="636" y="-401" type="line"/>
			<point x="534" y="-331" type="line"/>
			<point x="410" y="-177" type="line"/>
			<point x="336" y="-11" type="line"/>
			<point x="277" y="303" type="line"/>
			<point x="277" y="713" type="line"/>
			<point x="355" y="1076" type="line"/>
			<point x="514" y="1313" type="line"/>
			<point x="636" y="1380" type="line"/>
			<point x="636" y="1422" type="line"/>
			<point x="390" y="1312" type="line"/>
			<point x="84" y="801" type="line"/>
			<point x="84" y="278" type="line"/>
			<point x="240" y="-115" type="line"/>
			<point x="484" y="-361" type="line"/>
		</contour>
	</outline>
</glyph>
<glyph name="parenright" format="2">
	<advance width="682"/>
	<unicode hex="0029"/>
	<note>
		parenright
	</note>
	<outline>
		<contour>
			<point x="46" y="-438" type="line"/>
			<point x="291" y="-329" type="line"/>
			<point x="598" y="183" type="line"/>
			<point x="598" y="705" type="line"/>
			<point x="442" y="1099" type="line"/>
			<point x="199" y="1346" type="line"/>
			<point x="46" y="1422" type="line"/>
			<point x="46" y="1380" type="line"/>
			<point x="148" y="1310" type="line"/>
			<point x="271" y="1156" type="line"/>
			<point x="346" y="991" type="line"/>
			<point x="405" y="676" type="line"/>
			<point x="405" y="364" type="line"/>
			<point x="385" y="175" type="line"/>
			<point x="329" y="-95" type="line"/>
			<point x="169" y="-332" type="line"/>
			<point x="46" y="-401" type="line"/>
		</contour>
	</outline>
</glyph>
<glyph name="asterisk" format="2">
	<advance width="1024"/>
	<unicode hex="002A"/>
	<note>
		asterisk
	</note>
	<outline>
		<contour>
			<point x="504" y="592" type="line"/>
			<point x="519" y="592" type="line" smooth="yes"/>
			<point x="546" y="592"/>
			<point x="576" y="618"/>
			<point x="588" y="650" type="curve" smooth="yes"/>
			<point x="594" y="667" type="line"/>
			<point x="594" y="729" type="line"/>
			<point x="558" y="848" type="line"/>
			<point x="536" y="917" type="line"/>
			<point x="535" y="972" type="line"/>
			<point x="556" y="957"/>
			<point x="575" y="943"/>
			<point x="592" y="928" type="curve" smooth="yes"/>
			<point x="617" y="905" type="line"/>
			<point x="668" y="842" type="line"/>
			<point x="693" y="820" type="line" smooth="yes"/>
			<point x="709" y="805"/>
			<point x="723" y="793"/>
			<point x="736" y="785" type="curve" smooth="yes"/>
			<point x="755" y="773" type="line"/>
			<point x="787" y="765" type="line"/>
			<point x="802" y="765" type="line" smooth="yes"/>
			<point x="822" y="765"/>
			<point x="840" y="772"/>
			<point x="855" y="787" type="curve" smooth="yes"/>
			<point x="877" y="809" type="line"/>
			<point x="877" y="839" type="line" smooth="yes"/>
			<point x="877" y="864"/>
			<point x="869" y="889"/>
			<point x="841" y="910" type="curve" smooth="yes"/>
			<point x="820" y="926" type="line"/>
			<point x="743" y="955" type="line"/>
			<point x="608" y="979" type="line"/>
			<point x="554" y="1007" type="line"/>
			<point x="605" y="1029" type="line"/>
			<point x="682" y="1046" type="line" smooth="yes"/>
			<point x="830" y="1079"/>
			<point x="880" y="1106"/>
			<point x="880" y="1170" type="curve" smooth="yes"/>
			<point x="880" y="1211"/>
			<point x="846" y="1246"/>
			<point x="802" y="1246" type="curve" smooth="yes"/>
			<point x="790" y="1246"/>
			<point x="779" y="1245"/>
			<point x="769" y="1243" type="curve" smooth="yes"/>
			<point x="753" y="1240" type="line"/>
			<point x="716" y="1216" type="line"/>
			<point x="668" y="1169" type="line"/>
			<point x="634" y="1129" type="line" smooth="yes"/>
			<point x="619" y="1112"/>
			<point x="604" y="1097"/>
			<point x="588" y="1083" type="curve" smooth="yes"/>
			<point x="563" y="1061" type="line"/>
			<point x="535" y="1044" type="line"/>
			<point x="538" y="1076" type="line"/>
			<point x="557" y="1154" type="line"/>
			<point x="568" y="1193" type="line" smooth="yes"/>
			<point x="575" y="1218"/>
			<point x="581" y="1242"/>
			<point x="586" y="1265" type="curve" smooth="yes"/>
			<point x="594" y="1298" type="line"/>
			<point x="594" y="1369" type="line"/>
			<point x="548" y="1422" type="line"/>
			<point x="517" y="1422" type="line" smooth="yes"/>
			<point x="469" y="1422"/>
			<point x="432" y="1385"/>
			<point x="432" y="1316" type="curve" smooth="yes"/>
			<point x="432" y="1290"/>
			<point x="443" y="1245"/>
			<point x="466" y="1181" type="curve" smooth="yes"/>
			<point x="481" y="1137"/>
			<point x="491" y="1091"/>
			<point x="494" y="1044" type="curve"/>
			<point x="457" y="1066"/>
			<point x="420" y="1099"/>
			<point x="382" y="1142" type="curve" smooth="yes"/>
			<point x="354" y="1174" type="line"/>
			<point x="332" y="1195" type="line" smooth="yes"/>
			<point x="290" y="1231"/>
			<point x="258" y="1248"/>
			<point x="220" y="1248" type="curve" smooth="yes"/>
			<point x="205" y="1248" type="line"/>
			<point x="192" y="1242" type="line" smooth="yes"/>
			<point x="166" y="1231"/>
			<point x="145" y="1202"/>
			<point x="145" y="1176" type="curve" smooth="yes"/>
			<point x="145" y="1129" type="line"/>
			<point x="219" y="1074" type="line"/>
			<point x="417" y="1034" type="line"/>
			<point x="471" y="1007" type="line"/>
			<point x="411" y="981" type="line"/>
			<point x="350" y="969" type="line"/>
			<point x="272" y="951" type="line" smooth="yes"/>
			<point x="251" y="946"/>
			<point x="236" y="941"/>
			<point x="227" y="937" type="curve" smooth="yes"/>
			<point x="199" y="925"/>
			<point x="178" y="910"/>
			<point x="165" y="892" type="curve" smooth="yes"/>
			<point x="145" y="864" type="line"/>
			<point x="145" y="825" type="line"/>
			<point x="158" y="799" type="line"/>
			<point x="180" y="778" type="line"/>
			<point x="210" y="765" type="line"/>
			<point x="227" y="765" type="line" smooth="yes"/>
			<point x="250" y="765"/>
			<point x="269" y="770"/>
			<point x="294" y="789" type="curve" smooth="yes"/>
			<point x="312" y="802" type="line"/>
			<point x="359" y="849" type="line"/>
			<point x="413" y="909" type="line"/>
			<point x="465" y="952" type="line"/>
			<point x="494" y="972" type="line"/>
			<point x="491" y="940"/>
			<point x="488" y="915"/>
			<point x="483" y="896" type="curve" smooth="yes"/>
			<point x="480" y="882"/>
			<point x="446" y="770"/>
			<point x="439" y="741" type="curve" smooth="yes"/>
			<point x="431" y="709" type="line"/>
			<point x="431" y="688" type="line" smooth="yes"/>
			<point x="431" y="652"/>
			<point x="443" y="628"/>
			<point x="460" y="613" type="curve" smooth="yes"/>
			<point x="473" y="602" type="line"/>
		</contour>
	</outline>
</glyph>
<glyph name="plus" format="2">
	<advance width="1155"/>
	<unicode hex="002B"/>
	<note>
		plus
	</note>
	<outline>
		<contour>
			<point x="535" y="141" type="line"/>
			<point x="615" y="141" type="line"/>
			<point x="615" y="640" type="line"/>
			<point x="1115" y="640" type="line"/>
			<point x="1115" y="722" type="line"/>
			<point x="615" y="722" type="line"/>
			<point x="615" y="1219" type="line"/>
			<point x="535" y="1219" type="line"/>
			<point x="535" y="722" type="line"/>
			<point x="37" y="722" type="line"/>
			<point x="37" y="640" type="line"/>
			<point x="535" y="640" type="line"/>
		</contour>
	</outline>
</glyph>
<glyph name="comma" format="2">
	<advance width="512"/>
	<unicode hex="002C"/>
	<note>
		comma
	</note>
	<outline>
		<contour>
			<point x="110" y="-341" type="line"/>
			<point x="188" y="-316" type="line"/>
			<point x="300" y="-244" type="line"/>
			<point x="373" y="-159" type="line"/>
			<point x="408" y="-61" type="line"/>
			<point x="408" y="37" type="line"/>
			<point x="379" y="115" type="line"/>
			<point x="332" y="170" type="line"/>
			<point x="271" y="200" type="line"/>
			<point x="212" y="200" type="line"/>
			<point x="165" y="181" type="line"/>
			<point x="148" y="165" type="line" smooth="yes"/>
			<point x="136" y="154"/>
			<point x="127" y="142"/>
			<point x="120" y="128" type="curve" smooth="yes"/>
			<point x="110" y="106" type="line"/>
			<point x="110" y="30" type="line"/>
			<point x="168" y="-28" type="line"/>
			<point x="231" y="-28" type="line"/>
			<point x="259" y="-19" type="line"/>
			<point x="271" y="-14" type="line"/>
			<point x="300" y="1" type="line"/>
			<point x="312" y="1" type="line"/>
			<point x="326" y="-25" type="line"/>
			<point x="326" y="-79" type="line"/>
			<point x="297" y="-157" type="line"/>
			<point x="241" y="-225" type="line"/>
			<point x="161" y="-280" type="line"/>
			<point x="110" y="-297" type="line"/>
		</contour>
	</outline>
</glyph>
<glyph name="hyphen" format="2">
	<advance width="682"/>
	<unicode hex="002D"/>
	<note>
		hyphen
	</note>
	<outline>
		<contour>
			<point x="83" y="384" type="line"/>
			<point x="600" y="384" type="line"/>
			<point x="600" y="535" type="line"/>
			<point x="83" y="535" type="line"/>
		</contour>
	</outline>
</glyph>
<glyph name="period" format="2">
	<advance width="512"/>
	<unicode hex="002E"/>
	<note>
		period
	</note>
	<outline>
		<contour>
			<point x="233" y="-28" type="line"/>
			<point x="279" y="-28" type="line"/>
			<point x="319" y="-10" type="line"/>
			<point x="349" y="20" type="line"/>
			<point x="367" y="60" type="line"/>
			<point x="367" y="106" type="line"/>
			<point x="349" y="147" type="line"/>
			<point x="319" y="177" type="line"/>
			<point x="279" y="194" type="line"/>
			<point x="233" y="194" type="line"/>
			<point x="193" y="177" type="line"/>
			<point x="163" y="147" type="line"/>
			<point x="145" y="107" type="line"/>
			<point x="145" y="60" type="line"/>
			<point x="163" y="20" type="line"/>
			<point x="193" y="-10" type="line"/>
		</contour>
	</outline>
</glyph>
<glyph name="slash" format="2">
	<advance width="569"/>
	<unicode hex="002F"/>
	<note>
		slash
	</note>
	<outline>
		<contour>
			<point x="3" y="-28" type="line"/>
			<point x="83" y="-28" type="line"/>
			<point x="574" y="1422" type="line"/>
			<point x="494" y="1422" type="line"/>
		</contour>
	</outline>
</glyph>
<glyph name="zero" format="2">
	<advance width="1024"/>
	<unicode hex="0030"/>
	<note>
		zero
	</note>
	<outline>
		<contour>
			<point x="506" y="-24" type="curve" smooth="yes"/>
			<point x="546" y="-24" type="line"/>
			<point x="632" y="3" type="line"/>
			<point x="712" y="51" type="line"/>
			<point x="783" y="115" type="line"/>
			<point x="850" y="208" type="line"/>
			<point x="877" y="270" type="line" smooth="yes"/>
			<point x="895" y="311"/>
			<point x="910" y="353"/>
			<point x="921" y="398" type="curve" smooth="yes"/>
			<point x="937" y="465" type="line"/>
			<point x="951" y="611" type="line"/>
			<point x="951" y="1028" type="line"/>
			<point x="671" y="1384" type="line"/>
			<point x="450" y="1384" type="line"/>
			<point x="337" y="1332" type="line"/>
			<point x="244" y="1245" type="line"/>
			<point x="170" y="1131" type="line"/>
			<point x="74" y="904" type="line"/>
			<point x="74" y="517" type="line"/>
			<point x="146" y="260" type="line"/>
			<point x="267" y="76" type="line"/>
			<point x="344" y="26" type="line" smooth="yes"/>
			<point x="395" y="-7"/>
			<point x="449" y="-24"/>
		</contour>
		<contour>
			<point x="444" y="39" type="line"/>
			<point x="352" y="142" type="line"/>
			<point x="323" y="231" type="line" smooth="yes"/>
			<point x="305" y="286"/>
			<point x="292" y="348"/>
			<point x="283" y="419" type="curve" smooth="yes"/>
			<point x="270" y="525" type="line"/>
			<point x="270" y="732" type="line"/>
			<point x="283" y="906" type="line"/>
			<point x="318" y="1149" type="line"/>
			<point x="434" y="1318" type="line"/>
			<point x="586" y="1318" type="line"/>
			<point x="676" y="1221" type="line"/>
			<point x="755" y="967" type="line"/>
			<point x="755" y="577" type="line"/>
			<point x="732" y="337" type="line"/>
			<point x="694" y="193" type="line"/>
			<point x="648" y="113" type="line"/>
			<point x="594" y="62" type="line"/>
			<point x="536" y="39" type="line"/>
		</contour>
	</outline>
</glyph>
<glyph name="one" format="2">
	<advance width="1024"/>
	<unicode hex="0031"/>
	<note>
		one
	</note>
	<outline>
		<contour>
			<point x="264" y="0" type="line"/>
			<point x="774" y="0" type="line"/>
			<point x="774" y="37" type="line"/>
			<point x="713" y="38"/>
			<point x="673" y="43"/>
			<point x="652" y="54" type="curve" smooth="yes"/>
			<point x="637" y="61" type="line"/>
			<point x="627" y="69" type="line" smooth="yes"/>
			<point x="620" y="74"/>
			<point x="615" y="83"/>
			<point x="612" y="95" type="curve" smooth="yes"/>
			<point x="607" y="113" type="line"/>
			<point x="603" y="180" type="line"/>
			<point x="603" y="1384" type="line"/>
			<point x="570" y="1384" type="line"/>
			<point x="240" y="1223" type="line"/>
			<point x="255" y="1192" type="line"/>
			<point x="320" y="1223" type="line"/>
			<point x="384" y="1223" type="line"/>
			<point x="420" y="1193" type="line"/>
			<point x="438" y="1121" type="line"/>
			<point x="438" y="119" type="line"/>
			<point x="422" y="80" type="line"/>
			<point x="406" y="60" type="line"/>
			<point x="372" y="46" type="line"/>
			<point x="313" y="38" type="line"/>
			<point x="264" y="37" type="line"/>
		</contour>
	</outline>
</glyph>
<glyph name="two" format="2">
	<advance width="1024"/>
	<unicode hex="0032"/>
	<note>
		two
	</note>
	<outline>
		<contour>
			<point x="44" y="0" type="line"/>
			<point x="844" y="0" type="line"/>
			<point x="939" y="261" type="line"/>
			<point x="902" y="261" type="line"/>
			<point x="880" y="223" type="line"/>
			<point x="834" y="180" type="line"/>
			<point x="770" y="157" type="line"/>
			<point x="678" y="151" type="line"/>
			<point x="257" y="151" type="line"/>
			<point x="288" y="179" type="line"/>
			<point x="443" y="342" type="line"/>
			<point x="735" y="661" type="line"/>
			<point x="808" y="822" type="line" smooth="yes"/>
			<point x="840" y="891"/>
			<point x="856" y="959"/>
			<point x="856" y="1028" type="curve" smooth="yes"/>
			<point x="856" y="1099" type="line"/>
			<point x="797" y="1228" type="line"/>
			<point x="694" y="1326" type="line"/>
			<point x="552" y="1384" type="line"/>
			<point x="392" y="1384" type="line"/>
			<point x="262" y="1334" type="line"/>
			<point x="162" y="1236" type="line"/>
			<point x="96" y="1094" type="line"/>
			<point x="83" y="1001" type="line"/>
			<point x="120" y="1001" type="line"/>
			<point x="139" y="1058" type="line"/>
			<point x="199" y="1144" type="line"/>
			<point x="276" y="1202" type="line"/>
			<point x="367" y="1231" type="line"/>
			<point x="471" y="1231" type="line"/>
			<point x="569" y="1187" type="line"/>
			<point x="642" y="1109" type="line"/>
			<point x="685" y="1000" type="line"/>
			<point x="685" y="767" type="line"/>
			<point x="541" y="563" type="line" smooth="yes"/>
			<point x="493" y="494"/>
			<point x="428" y="417"/>
			<point x="345" y="330" type="curve" smooth="yes"/>
			<point x="221" y="199" type="line"/>
			<point x="44" y="37" type="line"/>
		</contour>
	</outline>
</glyph>
<glyph name="three" format="2">
	<advance width="1024"/>
	<unicode hex="0033"/>
	<note>
		three
	</note>
	<outline>
		<contour>
			<point x="249" y="-24" type="line"/>
			<point x="439" y="-24" type="line"/>
			<point x="637" y="46" type="line"/>
			<point x="777" y="172" type="line"/>
			<point x="816" y="259" type="line" smooth="yes"/>
			<point x="841" y="317"/>
			<point x="854" y="380"/>
			<point x="854" y="449" type="curve" smooth="yes"/>
			<point x="854" y="573" type="line"/>
			<point x="791" y="664" type="line" smooth="yes"/>
			<point x="748" y="724"/>
			<point x="685" y="770"/>
			<point x="601" y="803" type="curve"/>
			<point x="725" y="908"/>
			<point x="787" y="1010"/>
			<point x="787" y="1109" type="curve" smooth="yes"/>
			<point x="787" y="1145"/>
			<point x="779" y="1180"/>
			<point x="764" y="1213" type="curve" smooth="yes"/>
			<point x="741" y="1263" type="line"/>
			<point x="657" y="1339" type="line"/>
			<point x="541" y="1384" type="line"/>
			<point x="339" y="1384" type="line"/>
			<point x="162" y="1235" type="line"/>
			<point x="104" y="1098" type="line"/>
			<point x="137" y="1082" type="line"/>
			<point x="240" y="1248" type="line"/>
			<point x="443" y="1248" type="line"/>
			<point x="525" y="1215" type="line"/>
			<point x="586" y="1154" type="line"/>
			<point x="621" y="1069" type="line"/>
			<point x="621" y="939" type="line"/>
			<point x="550" y="808" type="line"/>
			<point x="389" y="713" type="line"/>
			<point x="311" y="703" type="line"/>
			<point x="311" y="673" type="line"/>
			<point x="381" y="673" type="line"/>
			<point x="420" y="664" type="line" smooth="yes"/>
			<point x="446" y="658"/>
			<point x="471" y="650"/>
			<point x="495" y="640" type="curve" smooth="yes"/>
			<point x="531" y="625" type="line"/>
			<point x="593" y="587" type="line"/>
			<point x="633" y="551" type="line"/>
			<point x="666" y="497" type="line"/>
			<point x="691" y="432" type="line"/>
			<point x="706" y="362" type="line"/>
			<point x="706" y="276" type="line"/>
			<point x="665" y="180" type="line"/>
			<point x="596" y="106" type="line"/>
			<point x="504" y="63" type="line"/>
			<point x="453" y="63" type="line" smooth="yes"/>
			<point x="440" y="63"/>
			<point x="428" y="63"/>
			<point x="419" y="64" type="curve" smooth="yes"/>
			<point x="405" y="64" type="line"/>
			<point x="372" y="73" type="line"/>
			<point x="350" y="83" type="line" smooth="yes"/>
			<point x="335" y="89"/>
			<point x="315" y="98"/>
			<point x="291" y="111" type="curve" smooth="yes"/>
			<point x="236" y="139" type="line" smooth="yes"/>
			<point x="209" y="151"/>
			<point x="196" y="156"/>
			<point x="185" y="156" type="curve" smooth="yes"/>
			<point x="130" y="156" type="line"/>
			<point x="83" y="112" type="line"/>
			<point x="83" y="64" type="line"/>
			<point x="104" y="26" type="line"/>
			<point x="158" y="-5" type="line"/>
		</contour>
	</outline>
</glyph>
<glyph name="four" format="2">
	<advance width="1024"/>
	<unicode hex="0034"/>
	<note>
		four
	</note>
	<outline>
		<contour>
			<point x="606" y="0" type="line"/>
			<point x="771" y="0" type="line"/>
			<point x="771" y="358" type="line"/>
			<point x="953" y="358" type="line"/>
			<point x="953" y="500" type="line"/>
			<point x="771" y="500" type="line"/>
			<point x="771" y="1384" type="line"/>
			<point x="661" y="1384" type="line"/>
			<point x="32" y="486" type="line"/>
			<point x="32" y="358" type="line"/>
			<point x="606" y="358" type="line"/>
		</contour>
		<contour>
			<point x="130" y="500" type="line"/>
			<point x="606" y="1173" type="line"/>
			<point x="606" y="500" type="line"/>
		</contour>
	</outline>
</glyph>
<glyph name="five" format="2">
	<advance width="1024"/>
	<unicode hex="0035"/>
	<note>
		five
	</note>
	<outline>
		<contour>
			<point x="269" y="-24" type="line"/>
			<point x="453" y="-24" type="line"/>
			<point x="648" y="70" type="line"/>
			<point x="780" y="198" type="line"/>
			<point x="867" y="382" type="line"/>
			<point x="867" y="671" type="line"/>
			<point x="579" y="965" type="line"/>
			<point x="314" y="1004" type="line"/>
			<point x="403" y="1186" type="line"/>
			<point x="811" y="1186" type="line"/>
			<point x="889" y="1356" type="line"/>
			<point x="403" y="1356" type="line"/>
			<point x="143" y="829" type="line"/>
			<point x="332" y="821" type="line"/>
			<point x="440" y="777" type="line"/>
			<point x="578" y="719" type="line"/>
			<point x="658" y="612" type="line" smooth="yes"/>
			<point x="711" y="541"/>
			<point x="737" y="465"/>
			<point x="737" y="383" type="curve" smooth="yes"/>
			<point x="737" y="320" type="line"/>
			<point x="688" y="209" type="line"/>
			<point x="607" y="126" type="line"/>
			<point x="501" y="79" type="line"/>
			<point x="365" y="79" type="line"/>
			<point x="252" y="158" type="line"/>
			<point x="225" y="172" type="line"/>
			<point x="213" y="177" type="line"/>
			<point x="192" y="180" type="line"/>
			<point x="144" y="180" type="line"/>
			<point x="121" y="159" type="line" smooth="yes"/>
			<point x="106" y="144"/>
			<point x="98" y="128"/>
			<point x="98" y="109" type="curve" smooth="yes"/>
			<point x="98" y="85" type="line"/>
			<point x="124" y="37" type="line"/>
			<point x="180" y="-1" type="line"/>
		</contour>
	</outline>
</glyph>
<glyph name="six" format="2">
	<advance width="1024"/>
	<unicode hex="0036"/>
	<note>
		six
	</note>
	<outline>
		<contour>
			<point x="446" y="-24" type="line"/>
			<point x="514" y="-24" type="line" smooth="yes"/>
			<point x="577" y="-24"/>
			<point x="635" y="-10"/>
			<point x="688" y="17" type="curve" smooth="yes"/>
			<point x="767" y="58" type="line"/>
			<point x="881" y="193" type="line"/>
			<point x="945" y="365" type="line"/>
			<point x="945" y="543" type="line"/>
			<point x="890" y="690" type="line"/>
			<point x="795" y="797" type="line"/>
			<point x="671" y="856" type="line"/>
			<point x="457" y="856" type="line"/>
			<point x="313" y="757" type="line"/>
			<point x="331" y="826" type="line"/>
			<point x="353" y="885" type="line" smooth="yes"/>
			<point x="368" y="924"/>
			<point x="384" y="960"/>
			<point x="403" y="994" type="curve" smooth="yes"/>
			<point x="430" y="1045" type="line"/>
			<point x="496" y="1133" type="line"/>
			<point x="582" y="1218" type="line"/>
			<point x="664" y="1278" type="line"/>
			<point x="753" y="1317" type="line"/>
			<point x="854" y="1339" type="line"/>
			<point x="918" y="1347" type="line"/>
			<point x="918" y="1384" type="line"/>
			<point x="720" y="1384" type="line"/>
			<point x="483" y="1275" type="line"/>
			<point x="233" y="1041" type="line"/>
			<point x="161" y="878" type="line" smooth="yes"/>
			<point x="112" y="769"/>
			<point x="88" y="654"/>
			<point x="88" y="532" type="curve" smooth="yes"/>
			<point x="88" y="466" type="line"/>
			<point x="113" y="333" type="line"/>
			<point x="138" y="271" type="line" smooth="yes"/>
			<point x="155" y="230"/>
			<point x="175" y="191"/>
			<point x="199" y="156" type="curve" smooth="yes"/>
			<point x="235" y="102" type="line"/>
			<point x="330" y="22" type="line"/>
		</contour>
		<contour>
			<point x="498" y="32" type="line"/>
			<point x="461" y="53" type="line" smooth="yes"/>
			<point x="410" y="80"/>
			<point x="371" y="126"/>
			<point x="343" y="186" type="curve" smooth="yes"/>
			<point x="321" y="230" type="line"/>
			<point x="292" y="327" type="line"/>
			<point x="278" y="424" type="line"/>
			<point x="278" y="549" type="line"/>
			<point x="296" y="684" type="line"/>
			<point x="340" y="711" type="line"/>
			<point x="401" y="744" type="line"/>
			<point x="447" y="763" type="line"/>
			<point x="485" y="769" type="line"/>
			<point x="506" y="769" type="line" smooth="yes"/>
			<point x="548" y="769"/>
			<point x="585" y="758"/>
			<point x="618" y="735" type="curve" smooth="yes"/>
			<point x="667" y="700" type="line"/>
			<point x="733" y="584" type="line"/>
			<point x="767" y="431" type="line"/>
			<point x="767" y="273" type="line"/>
			<point x="729" y="155" type="line"/>
			<point x="667" y="74" type="line"/>
			<point x="586" y="32" type="line"/>
		</contour>
	</outline>
</glyph>
<glyph name="seven" format="2">
	<advance width="1024"/>
	<unicode hex="0037"/>
	<note>
		seven
	</note>
	<outline>
		<contour>
			<point x="369" y="-28" type="line"/>
			<point x="481" y="-28" type="line"/>
			<point x="933" y="1318" type="line"/>
			<point x="933" y="1356" type="line"/>
			<point x="206" y="1356" type="line"/>
			<point x="76" y="1035" type="line"/>
			<point x="105" y="1024" type="line"/>
			<point x="133" y="1071" type="line"/>
			<point x="188" y="1136" type="line"/>
			<point x="256" y="1176" type="line"/>
			<point x="342" y="1193" type="line"/>
			<point x="774" y="1193" type="line"/>
		</contour>
	</outline>
</glyph>
<glyph name="eight" format="2">
	<advance width="1024"/>
	<unicode hex="0038"/>
	<note>
		eight
	</note>
	<outline>
		<contour>
			<point x="355" y="3" type="curve" smooth="yes"/>
			<point x="426" y="-24" type="line"/>
			<point x="599" y="-24" type="line"/>
			<point x="745" y="31" type="line"/>
			<point x="797" y="79" type="line" smooth="yes"/>
			<point x="866" y="142"/>
			<point x="906" y="227"/>
			<point x="906" y="322" type="curve" smooth="yes"/>
			<point x="906" y="436" type="line"/>
			<point x="801" y="576" type="line"/>
			<point x="685" y="682" type="line"/>
			<point x="597" y="751" type="line"/>
			<point x="768" y="857" type="line"/>
			<point x="876" y="1016" type="line"/>
			<point x="876" y="1148" type="line"/>
			<point x="850" y="1201" type="line" smooth="yes"/>
			<point x="832" y="1236"/>
			<point x="807" y="1268"/>
			<point x="775" y="1295" type="curve" smooth="yes"/>
			<point x="727" y="1335" type="line"/>
			<point x="593" y="1384" type="line"/>
			<point x="428" y="1384" type="line"/>
			<point x="359" y="1358" type="line" smooth="yes"/>
			<point x="313" y="1341"/>
			<point x="274" y="1317"/>
			<point x="242" y="1288" type="curve" smooth="yes"/>
			<point x="177" y="1228"/>
			<point x="139" y="1148"/>
			<point x="139" y="1061" type="curve" smooth="yes"/>
			<point x="139" y="974" type="line"/>
			<point x="231" y="816" type="line"/>
			<point x="393" y="683" type="line"/>
			<point x="318" y="629" type="line"/>
			<point x="215" y="532" type="line"/>
			<point x="124" y="398" type="line"/>
			<point x="124" y="242" type="line"/>
			<point x="181" y="121" type="line"/>
			<point x="233" y="76" type="line" smooth="yes"/>
			<point x="267" y="45"/>
			<point x="308" y="21"/>
		</contour>
		<contour>
			<point x="472" y="30" type="line"/>
			<point x="380" y="71" type="line"/>
			<point x="314" y="145" type="line"/>
			<point x="277" y="250" type="line"/>
			<point x="277" y="368" type="line"/>
			<point x="301" y="467" type="line"/>
			<point x="368" y="585" type="line"/>
			<point x="440" y="645" type="line"/>
			<point x="658" y="473" type="line"/>
			<point x="727" y="368" type="line" smooth="yes"/>
			<point x="752" y="329"/>
			<point x="765" y="286"/>
			<point x="765" y="239" type="curve" smooth="yes"/>
			<point x="765" y="196" type="line"/>
			<point x="731" y="120" type="line"/>
			<point x="669" y="63" type="line"/>
			<point x="581" y="30" type="line"/>
		</contour>
		<contour>
			<point x="550" y="790" type="line"/>
			<point x="386" y="926" type="line"/>
			<point x="337" y="974" type="line"/>
			<point x="284" y="1077" type="line"/>
			<point x="284" y="1168" type="line"/>
			<point x="318" y="1240" type="line"/>
			<point x="379" y="1294" type="line"/>
			<point x="421" y="1310" type="line" smooth="yes"/>
			<point x="449" y="1321"/>
			<point x="480" y="1326"/>
			<point x="514" y="1326" type="curve" smooth="yes"/>
			<point x="583" y="1326"/>
			<point x="637" y="1306"/>
			<point x="676" y="1267" type="curve" smooth="yes"/>
			<point x="734" y="1208" type="line"/>
			<point x="734" y="1024" type="line"/>
			<point x="670" y="898" type="line"/>
		</contour>
	</outline>
</glyph>
<glyph name="nine" format="2">
	<advance width="1024"/>
	<unicode hex="0039"/>
	<note>
		nine
	</note>
	<outline>
		<contour>
			<point x="108" y="9" type="curve"/>
			<point x="108" y="-28" type="line"/>
			<point x="235" y="-28" type="line"/>
			<point x="366" y="2" type="line"/>
			<point x="486" y="58" type="line"/>
			<point x="597" y="134" type="line"/>
			<point x="649" y="181" type="line"/>
			<point x="716" y="244" type="line"/>
			<point x="823" y="391" type="line"/>
			<point x="897" y="555" type="line"/>
			<point x="936" y="732" type="line"/>
			<point x="936" y="933" type="line"/>
			<point x="873" y="1135" type="line"/>
			<point x="759" y="1291" type="line"/>
			<point x="600" y="1384" type="line"/>
			<point x="409" y="1384" type="line"/>
			<point x="253" y="1300" type="line"/>
			<point x="142" y="1164" type="line"/>
			<point x="81" y="989" type="line"/>
			<point x="81" y="807" type="line"/>
			<point x="136" y="658" type="line"/>
			<point x="183" y="605" type="line" smooth="yes"/>
			<point x="246" y="534"/>
			<point x="333" y="494"/>
			<point x="428" y="494" type="curve" smooth="yes"/>
			<point x="554" y="494" type="line"/>
			<point x="712" y="595" type="line"/>
			<point x="672" y="421" type="line"/>
			<point x="519" y="208" type="line"/>
			<point x="421" y="111" type="line"/>
			<point x="311" y="46" type="line"/>
			<point x="248" y="29" type="line" smooth="yes"/>
			<point x="205" y="18"/>
			<point x="159" y="11"/>
		</contour>
		<contour>
			<point x="450" y="585" type="line"/>
			<point x="358" y="649" type="line"/>
			<point x="293" y="760" type="line"/>
			<point x="259" y="912" type="line"/>
			<point x="259" y="1080" type="line"/>
			<point x="296" y="1200" type="line"/>
			<point x="327" y="1240" type="line" smooth="yes"/>
			<point x="348" y="1266"/>
			<point x="371" y="1286"/>
			<point x="398" y="1299" type="curve" smooth="yes"/>
			<point x="438" y="1319" type="line"/>
			<point x="526" y="1319" type="line"/>
			<point x="600" y="1278" type="line"/>
			<point x="658" y="1208" type="line"/>
			<point x="702" y="1118" type="line"/>
			<point x="731" y="1019" type="line"/>
			<point x="746" y="920" type="line"/>
			<point x="746" y="877" type="line" smooth="yes"/>
			<point x="746" y="825"/>
			<point x="740" y="756"/>
			<point x="728" y="669" type="curve"/>
			<point x="705" y="649" type="line"/>
			<point x="647" y="618" type="line"/>
			<point x="587" y="597" type="line"/>
			<point x="530" y="585" type="line"/>
		</contour>
	</outline>
</glyph>
<glyph name="colon" format="2">
	<advance width="569"/>
	<unicode hex="003A"/>
	<note>
		colon
	</note>
	<outline>
		<contour>
			<point x="264" y="-28" type="line"/>
			<point x="310" y="-28" type="line"/>
			<point x="351" y="-10" type="line"/>
			<point x="381" y="20" type="line"/>
			<point x="399" y="60" type="line"/>
			<point x="399" y="105" type="line"/>
			<point x="381" y="146" type="line"/>
			<point x="351" y="177" type="line"/>
			<point x="310" y="195" type="line"/>
			<point x="264" y="195" type="line"/>
			<point x="224" y="177" type="line"/>
			<point x="194" y="147" type="line"/>
			<point x="176" y="106" type="line"/>
			<point x="176" y="60" type="line"/>
			<point x="194" y="20" type="line"/>
			<point x="224" y="-10" type="line"/>
		</contour>
		<contour>
			<point x="266" y="722" type="line"/>
			<point x="312" y="722" type="line"/>
			<point x="352" y="740" type="line"/>
			<point x="382" y="770" type="line"/>
			<point x="400" y="810" type="line"/>
			<point x="400" y="856" type="line"/>
			<point x="382" y="896" type="line"/>
			<point x="352" y="926" type="line"/>
			<point x="312" y="944" type="line"/>
			<point x="266" y="944" type="line"/>
			<point x="226" y="926" type="line"/>
			<point x="196" y="896" type="line"/>
			<point x="178" y="856" type="line"/>
			<point x="178" y="810" type="line"/>
			<point x="196" y="770" type="line"/>
			<point x="226" y="740" type="line"/>
		</contour>
	</outline>
</glyph>
<glyph name="semicolon" format="2">
	<advance width="569"/>
	<unicode hex="003B"/>
	<note>
		semicolon
	</note>
	<outline>
		<contour>
			<point x="142" y="-341" type="line"/>
			<point x="220" y="-316" type="line"/>
			<point x="332" y="-244" type="line"/>
			<point x="405" y="-159" type="line"/>
			<point x="440" y="-61" type="line"/>
			<point x="440" y="37" type="line"/>
			<point x="411" y="115" type="line"/>
			<point x="364" y="170" type="line"/>
			<point x="303" y="200" type="line"/>
			<point x="244" y="200" type="line"/>
			<point x="197" y="181" type="line"/>
			<point x="162" y="149" type="line"/>
			<point x="152" y="128" type="line" smooth="yes"/>
			<point x="145" y="113"/>
			<point x="142" y="98"/>
			<point x="142" y="81" type="curve" smooth="yes"/>
			<point x="142" y="30" type="line"/>
			<point x="200" y="-28" type="line"/>
			<point x="249" y="-28" type="line" smooth="yes"/>
			<point x="268" y="-28"/>
			<point x="287" y="-21"/>
			<point x="303" y="-14" type="curve" smooth="yes"/>
			<point x="332" y="1" type="line"/>
			<point x="344" y="1" type="line"/>
			<point x="358" y="-25" type="line"/>
			<point x="358" y="-79" type="line"/>
			<point x="329" y="-157" type="line"/>
			<point x="273" y="-225" type="line"/>
			<point x="193" y="-280" type="line"/>
			<point x="142" y="-297" type="line"/>
		</contour>
		<contour>
			<point x="259" y="724" type="line"/>
			<point x="305" y="724" type="line"/>
			<point x="345" y="742" type="line"/>
			<point x="375" y="772" type="line"/>
			<point x="393" y="812" type="line"/>
			<point x="393" y="858" type="line"/>
			<point x="375" y="898" type="line"/>
			<point x="345" y="928" type="line"/>
			<point x="305" y="945" type="line"/>
			<point x="259" y="945" type="line"/>
			<point x="219" y="928" type="line"/>
			<point x="189" y="898" type="line"/>
			<point x="171" y="858" type="line"/>
			<point x="171" y="812" type="line"/>
			<point x="189" y="772" type="line"/>
			<point x="219" y="742" type="line"/>
		</contour>
	</outline>
</glyph>
<glyph name="less" format="2">
	<advance width="1155"/>
	<unicode hex="003C"/>
	<note>
		less
	</note>
	<outline>
		<contour>
			<point x="1113" y="187" type="line"/>
			<point x="1113" y="277" type="line"/>
			<point x="187" y="683" type="line"/>
			<point x="1113" y="1085" type="line"/>
			<point x="1113" y="1172" type="line"/>
			<point x="37" y="706" type="line"/>
			<point x="37" y="657" type="line"/>
		</contour>
	</outline>
</glyph>
<glyph name="equal" format="2">
	<advance width="1155"/>
	<unicode hex="003D"/>
	<note>
		equal
	</note>
	<outline>
		<contour>
			<point x="37" y="801" type="line"/>
			<point x="1116" y="801" type="line"/>
			<point x="1116" y="883" type="line"/>
			<point x="37" y="883" type="line"/>
		</contour>
		<contour>
			<point x="37" y="475" type="line"/>
			<point x="1116" y="475" type="line"/>
			<point x="1116" y="557" type="line"/>
			<point x="37" y="557" type="line"/>
		</contour>
	</outline>
</glyph>
<glyph name="greater" format="2">
	<advance width="1155"/>
	<unicode hex="003E"/>
	<note>
		greater
	</note>
	<outline>
		<contour>
			<point x="37" y="187" type="line"/>
			<point x="1113" y="653" type="line"/>
			<point x="1113" y="702" type="line"/>
			<point x="37" y="1172" type="line"/>
			<point x="37" y="1081" type="line"/>
			<point x="964" y="675" type="line"/>
			<point x="37" y="273" type="line"/>
		</contour>
	</outline>
</glyph>
<glyph name="question" format="2">
	<advance width="909"/>
	<unicode hex="003F"/>
	<note>
		question
	</note>
	<outline>
		<contour>
			<point x="413" y="320" type="line"/>
			<point x="454" y="320" type="line"/>
			<point x="459" y="401"/>
			<point x="472" y="463"/>
			<point x="493" y="508" type="curve" smooth="yes"/>
			<point x="527" y="579" type="line"/>
			<point x="717" y="793" type="line"/>
			<point x="777" y="884" type="line"/>
			<point x="827" y="998" type="line"/>
			<point x="827" y="1137" type="line"/>
			<point x="776" y="1252" type="line"/>
			<point x="679" y="1337" type="line"/>
			<point x="540" y="1387" type="line"/>
			<point x="369" y="1387" type="line"/>
			<point x="235" y="1339" type="line"/>
			<point x="189" y="1299" type="line" smooth="yes"/>
			<point x="158" y="1272"/>
			<point x="134" y="1242"/>
			<point x="117" y="1207" type="curve" smooth="yes"/>
			<point x="92" y="1155" type="line"/>
			<point x="92" y="1063" type="line"/>
			<point x="111" y="1005" type="line"/>
			<point x="142" y="964" type="line"/>
			<point x="182" y="943" type="line"/>
			<point x="203" y="943" type="line" smooth="yes"/>
			<point x="225" y="943"/>
			<point x="244" y="951"/>
			<point x="259" y="968" type="curve" smooth="yes"/>
			<point x="282" y="992" type="line"/>
			<point x="282" y="1040" type="line"/>
			<point x="273" y="1063" type="line"/>
			<point x="252" y="1110" type="line"/>
			<point x="222" y="1184" type="line"/>
			<point x="222" y="1225" type="line"/>
			<point x="248" y="1271" type="line"/>
			<point x="296" y="1308" type="line"/>
			<point x="365" y="1331" type="line"/>
			<point x="457" y="1331" type="line"/>
			<point x="542" y="1292" type="line"/>
			<point x="605" y="1220" type="line"/>
			<point x="642" y="1117" type="line"/>
			<point x="642" y="992" type="line"/>
			<point x="615" y="901" type="line"/>
			<point x="575" y="815" type="line"/>
			<point x="508" y="684" type="line"/>
			<point x="456" y="570" type="line"/>
			<point x="421" y="448" type="line"/>
		</contour>
		<contour>
			<point x="417" y="-27" type="line"/>
			<point x="440" y="-27" type="line" smooth="yes"/>
			<point x="455" y="-27"/>
			<point x="470" y="-24"/>
			<point x="484" y="-18" type="curve" smooth="yes"/>
			<point x="504" y="-9" type="line"/>
			<point x="534" y="21" type="line"/>
			<point x="552" y="61" type="line"/>
			<point x="552" y="132" type="line"/>
			<point x="520" y="164" type="line" smooth="yes"/>
			<point x="499" y="185"/>
			<point x="472" y="196"/>
			<point x="440" y="196" type="curve" smooth="yes"/>
			<point x="417" y="196" type="line"/>
			<point x="377" y="179" type="line"/>
			<point x="347" y="149" type="line"/>
			<point x="329" y="108" type="line"/>
			<point x="329" y="61" type="line"/>
			<point x="347" y="21" type="line"/>
			<point x="377" y="-9" type="line"/>
		</contour>
	</outline>
</glyph>
<glyph name="at" format="2">
	<advance width="1886"/>
	<unicode hex="0040"/>
	<note>
		at
	</note>
	<outline>
		<contour>
			<point x="732" y="-442" type="line"/>
			<point x="969" y="-442" type="line" smooth="yes"/>
			<point x="1170" y="-442"/>
			<point x="1350" y="-385"/>
			<point x="1509" y="-272" type="curve" smooth="yes"/>
			<point x="1746" y="-103" type="line"/>
			<point x="1836" y="172" type="line"/>
			<point x="1778" y="172" type="line"/>
			<point x="1701" y="-8"/>
			<point x="1592" y="-145"/>
			<point x="1449" y="-240" type="curve" smooth="yes"/>
			<point x="1308" y="-334"/>
			<point x="1149" y="-381"/>
			<point x="974" y="-381" type="curve" smooth="yes"/>
			<point x="833" y="-381"/>
			<point x="701" y="-349"/>
			<point x="578" y="-284" type="curve" smooth="yes"/>
			<point x="454" y="-219"/>
			<point x="359" y="-125"/>
			<point x="292" y="0" type="curve" smooth="yes"/>
			<point x="191" y="188" type="line"/>
			<point x="191" y="667" type="line"/>
			<point x="306" y="896" type="line" smooth="yes"/>
			<point x="383" y="1050"/>
			<point x="488" y="1167"/>
			<point x="620" y="1248" type="curve" smooth="yes"/>
			<point x="818" y="1371" type="line"/>
			<point x="1049" y="1371" type="line" smooth="yes"/>
			<point x="1170" y="1371"/>
			<point x="1281" y="1344"/>
			<point x="1381" y="1293" type="curve" smooth="yes"/>
			<point x="1531" y="1217" type="line"/>
			<point x="1697" y="925" type="line"/>
			<point x="1697" y="755" type="line" smooth="yes"/>
			<point x="1697" y="635"/>
			<point x="1673" y="521"/>
			<point x="1624" y="413" type="curve" smooth="yes"/>
			<point x="1599" y="359"/>
			<point x="1572" y="312"/>
			<point x="1541" y="273" type="curve" smooth="yes"/>
			<point x="1495" y="214" type="line"/>
			<point x="1448" y="177" type="line" smooth="yes"/>
			<point x="1416" y="152"/>
			<point x="1385" y="133"/>
			<point x="1355" y="121" type="curve" smooth="yes"/>
			<point x="1309" y="103" type="line"/>
			<point x="1241" y="103" type="line"/>
			<point x="1198" y="147" type="line"/>
			<point x="1198" y="213" type="line"/>
			<point x="1219" y="305" type="line"/>
			<point x="1258" y="447" type="line"/>
			<point x="1408" y="958" type="line"/>
			<point x="1251" y="936" type="line"/>
			<point x="1218" y="826" type="line"/>
			<point x="1202" y="895" type="line"/>
			<point x="1158" y="930" type="line" smooth="yes"/>
			<point x="1128" y="953"/>
			<point x="1091" y="964"/>
			<point x="1046" y="964" type="curve" smooth="yes"/>
			<point x="956" y="964" type="line"/>
			<point x="684" y="768" type="line"/>
			<point x="589" y="588" type="line" smooth="yes"/>
			<point x="526" y="469"/>
			<point x="495" y="360"/>
			<point x="495" y="263" type="curve" smooth="yes"/>
			<point x="495" y="228"/>
			<point x="500" y="196"/>
			<point x="510" y="167" type="curve" smooth="yes"/>
			<point x="525" y="124" type="line"/>
			<point x="550" y="94" type="line" smooth="yes"/>
			<point x="567" y="73"/>
			<point x="586" y="58"/>
			<point x="608" y="47" type="curve" smooth="yes"/>
			<point x="641" y="30" type="line"/>
			<point x="676" y="30" type="line" smooth="yes"/>
			<point x="721" y="30"/>
			<point x="774" y="48"/>
			<point x="833" y="83" type="curve" smooth="yes"/>
			<point x="920" y="135" type="line"/>
			<point x="1070" y="315" type="line"/>
			<point x="1052" y="223" type="line"/>
			<point x="1052" y="102" type="line"/>
			<point x="1091" y="67" type="line" smooth="yes"/>
			<point x="1116" y="43"/>
			<point x="1154" y="31"/>
			<point x="1205" y="31" type="curve" smooth="yes"/>
			<point x="1343" y="31" type="line"/>
			<point x="1468" y="113" type="line" smooth="yes"/>
			<point x="1552" y="168"/>
			<point x="1621" y="255"/>
			<point x="1675" y="374" type="curve" smooth="yes"/>
			<point x="1757" y="553" type="line"/>
			<point x="1757" y="922" type="line"/>
			<point x="1670" y="1086" type="line" smooth="yes"/>
			<point x="1613" y="1195"/>
			<point x="1528" y="1279"/>
			<point x="1416" y="1336" type="curve" smooth="yes"/>
			<point x="1249" y="1422" type="line"/>
			<point x="917" y="1422" type="line"/>
			<point x="680" y="1357" type="line"/>
			<point x="346" y="1166" type="line"/>
			<point x="97" y="709" type="line"/>
			<point x="97" y="196" type="line"/>
			<point x="322" y="-216" type="line"/>
		</contour>
		<contour>
			<point x="746" y="151" type="line"/>
			<point x="704" y="172" type="line"/>
			<point x="672" y="209" type="line"/>
			<point x="653" y="261" type="line"/>
			<point x="653" y="380" type="line"/>
			<point x="744" y="604" type="line"/>
			<point x="825" y="746" type="line"/>
			<point x="915" y="854" type="line"/>
			<point x="1011" y="917" type="line"/>
			<point x="1083" y="917" type="line"/>
			<point x="1128" y="897" type="line"/>
			<point x="1162" y="859" type="line"/>
			<point x="1172" y="833" type="line" smooth="yes"/>
			<point x="1179" y="815"/>
			<point x="1182" y="795"/>
			<point x="1182" y="773" type="curve" smooth="yes"/>
			<point x="1182" y="707"/>
			<point x="1163" y="621"/>
			<point x="1126" y="514" type="curve" smooth="yes"/>
			<point x="1105" y="452"/>
			<point x="1071" y="391"/>
			<point x="1024" y="330" type="curve" smooth="yes"/>
			<point x="953" y="238" type="line"/>
			<point x="826" y="151" type="line"/>
		</contour>
	</outline>
</glyph>
<glyph name="A" format="2">
	<advance width="1479"/>
	<unicode hex="0041"/>
	<note>
		A
	</note>
	<outline>
		<contour>
			<point x="16" y="0" type="line"/>
			<point x="443" y="0" type="line"/>
			<point x="443" y="37" type="line"/>
			<point x="393" y="41" type="line"/>
			<point x="331" y="56" type="line"/>
			<point x="297" y="79" type="line"/>
			<point x="286" y="106" type="line"/>
			<point x="286" y="162" type="line"/>
			<point x="412" y="454" type="line"/>
			<point x="937" y="454" type="line"/>
			<point x="1039" y="211" type="line"/>
			<point x="1060" y="142" type="line"/>
			<point x="1059" y="120" type="line"/>
			<point x="1059" y="103" type="line"/>
			<point x="1046" y="75" type="line"/>
			<point x="1015" y="53" type="line"/>
			<point x="961" y="39" type="line"/>
			<point x="921" y="37" type="line"/>
			<point x="921" y="0" type="line"/>
			<point x="1456" y="0" type="line"/>
			<point x="1456" y="37" type="line"/>
			<point x="1414" y="39" type="line"/>
			<point x="1384" y="48" type="line" smooth="yes"/>
			<point x="1363" y="54"/>
			<point x="1344" y="65"/>
			<point x="1327" y="81" type="curve" smooth="yes"/>
			<point x="1301" y="104" type="line"/>
			<point x="1252" y="189" type="line"/>
			<point x="751" y="1387" type="line"/>
			<point x="716" y="1387" type="line"/>
			<point x="207" y="197" type="line"/>
			<point x="152" y="100" type="line"/>
			<point x="100" y="52" type="line"/>
			<point x="16" y="37" type="line"/>
		</contour>
		<contour>
			<point x="443" y="528" type="line"/>
			<point x="679" y="1076" type="line"/>
			<point x="909" y="528" type="line"/>
		</contour>
	</outline>
</glyph>
<glyph name="B" format="2">
	<advance width="1366"/>
	<unicode hex="0042"/>
	<note>
		B
	</note>
	<outline>
		<contour>
			<point x="34" y="0" type="line"/>
			<point x="903" y="0" type="line"/>
			<point x="1070" y="64" type="line"/>
			<point x="1159" y="135" type="line"/>
			<point x="1190" y="179" type="line" smooth="yes"/>
			<point x="1211" y="208"/>
			<point x="1227" y="238"/>
			<point x="1238" y="270" type="curve" smooth="yes"/>
			<point x="1254" y="317" type="line"/>
			<point x="1254" y="423" type="line"/>
			<point x="1237" y="476" type="line" smooth="yes"/>
			<point x="1214" y="545"/>
			<point x="1165" y="602"/>
			<point x="1088" y="643" type="curve" smooth="yes"/>
			<point x="1029" y="674" type="line"/>
			<point x="946" y="692" type="line"/>
			<point x="1067" y="731" type="line"/>
			<point x="1191" y="892" type="line"/>
			<point x="1191" y="1053" type="line"/>
			<point x="1151" y="1160" type="line"/>
			<point x="1073" y="1248" type="line"/>
			<point x="958" y="1314" type="line"/>
			<point x="784" y="1356" type="line"/>
			<point x="34" y="1356" type="line"/>
			<point x="34" y="1319" type="line"/>
			<point x="162" y="1319" type="line"/>
			<point x="201" y="1275" type="line" smooth="yes"/>
			<point x="220" y="1252"/>
			<point x="230" y="1199"/>
			<point x="230" y="1116" type="curve" smooth="yes"/>
			<point x="230" y="126" type="line"/>
			<point x="207" y="91" type="line"/>
			<point x="169" y="37" type="line"/>
			<point x="34" y="37" type="line"/>
		</contour>
		<contour>
			<point x="537" y="71" type="line"/>
			<point x="422" y="98" type="line"/>
			<point x="422" y="654" type="line"/>
			<point x="449" y="659" type="line"/>
			<point x="536" y="663" type="line"/>
			<point x="707" y="663" type="line"/>
			<point x="866" y="615" type="line"/>
			<point x="971" y="532" type="line"/>
			<point x="1022" y="419" type="line"/>
			<point x="1022" y="295" type="line"/>
			<point x="999" y="244" type="line" smooth="yes"/>
			<point x="983" y="209"/>
			<point x="959" y="179"/>
			<point x="928" y="154" type="curve" smooth="yes"/>
			<point x="881" y="115" type="line"/>
			<point x="742" y="71" type="line"/>
		</contour>
		<contour>
			<point x="498" y="732" type="line"/>
			<point x="422" y="746" type="line"/>
			<point x="422" y="1267" type="line"/>
			<point x="500" y="1289" type="line"/>
			<point x="695" y="1289" type="line"/>
			<point x="837" y="1243" type="line"/>
			<point x="933" y="1165" type="line"/>
			<point x="982" y="1060" type="line"/>
			<point x="982" y="963" type="line"/>
			<point x="962" y="891" type="line"/>
			<point x="924" y="829" type="line"/>
			<point x="867" y="779" type="line"/>
			<point x="758" y="732" type="line"/>
		</contour>
	</outline>
</glyph>
<glyph name="C" format="2">
	<advance width="1366"/>
	<unicode hex="0043"/>
	<note>
		C
	</note>
	<outline>
		<contour>
			<point x="396" y="-31" type="line"/>
			<point x="734" y="-31" type="line" smooth="yes"/>
			<point x="858" y="-31"/>
			<point x="965" y="-4"/>
			<point x="1057" y="53" type="curve" smooth="yes"/>
			<point x="1126" y="96" type="line"/>
			<point x="1244" y="228" type="line"/>
			<point x="1295" y="318" type="line"/>
			<point x="1264" y="338" type="line"/>
			<point x="1208" y="267" type="line"/>
			<point x="1162" y="214" type="line" smooth="yes"/>
			<point x="1131" y="179"/>
			<point x="1098" y="149"/>
			<point x="1065" y="126" type="curve" smooth="yes"/>
			<point x="1015" y="91" type="line"/>
			<point x="893" y="57" type="line"/>
			<point x="735" y="57" type="line"/>
			<point x="667" y="75" type="line" smooth="yes"/>
			<point x="621" y="87"/>
			<point x="579" y="105"/>
			<point x="540" y="128" type="curve" smooth="yes"/>
			<point x="482" y="163" type="line"/>
			<point x="391" y="267" type="line"/>
			<point x="361" y="336" type="line" smooth="yes"/>
			<point x="322" y="427"/>
			<point x="302" y="533"/>
			<point x="302" y="655" type="curve" smooth="yes"/>
			<point x="302" y="775" type="line"/>
			<point x="338" y="968" type="line"/>
			<point x="434" y="1182" type="line"/>
			<point x="539" y="1249" type="line" smooth="yes"/>
			<point x="609" y="1293"/>
			<point x="689" y="1315"/>
			<point x="780" y="1315" type="curve" smooth="yes"/>
			<point x="861" y="1315" type="line"/>
			<point x="999" y="1271" type="line"/>
			<point x="1113" y="1177" type="line"/>
			<point x="1158" y="1103" type="line" smooth="yes"/>
			<point x="1187" y="1054"/>
			<point x="1212" y="995"/>
			<point x="1233" y="926" type="curve"/>
			<point x="1264" y="926" type="line"/>
			<point x="1233" y="1387" type="line"/>
			<point x="1198" y="1387" type="line"/>
			<point x="1189" y="1346" type="line"/>
			<point x="1168" y="1320" type="line" smooth="yes"/>
			<point x="1153" y="1302"/>
			<point x="1135" y="1293"/>
			<point x="1114" y="1293" type="curve" smooth="yes"/>
			<point x="1098" y="1292" type="line"/>
			<point x="1054" y="1315" type="line" smooth="yes"/>
			<point x="959" y="1363"/>
			<point x="862" y="1387"/>
			<point x="764" y="1387" type="curve" smooth="yes"/>
			<point x="681" y="1387" type="line"/>
			<point x="523" y="1349" type="line"/>
			<point x="380" y="1276" type="line"/>
			<point x="257" y="1169" type="line"/>
			<point x="140" y="1005" type="line"/>
			<point x="107" y="892" type="line" smooth="yes"/>
			<point x="85" y="816"/>
			<point x="74" y="738"/>
			<point x="74" y="657" type="curve" smooth="yes"/>
			<point x="74" y="405" type="line"/>
		</contour>
	</outline>
</glyph>
<glyph name="D" format="2">
	<advance width="1479"/>
	<unicode hex="0044"/>
	<note>
		D
	</note>
	<outline>
		<contour>
			<point x="35" y="0" type="line"/>
			<point x="828" y="0" type="line"/>
			<point x="1113" y="102" type="line"/>
			<point x="1304" y="283" type="line"/>
			<point x="1401" y="535" type="line"/>
			<point x="1401" y="897" type="line"/>
			<point x="1208" y="1218" type="line"/>
			<point x="891" y="1356" type="line"/>
			<point x="35" y="1356" type="line"/>
			<point x="35" y="1319" type="line"/>
			<point x="163" y="1319" type="line"/>
			<point x="202" y="1275" type="line" smooth="yes"/>
			<point x="221" y="1254"/>
			<point x="230" y="1201"/>
			<point x="230" y="1116" type="curve" smooth="yes"/>
			<point x="230" y="124" type="line"/>
			<point x="171" y="37" type="line"/>
			<point x="35" y="37" type="line"/>
		</contour>
		<contour>
			<point x="547" y="70" type="line"/>
			<point x="422" y="98" type="line"/>
			<point x="422" y="1251" type="line"/>
			<point x="480" y="1265" type="line"/>
			<point x="582" y="1280" type="line"/>
			<point x="746" y="1280" type="line"/>
			<point x="947" y="1196" type="line"/>
			<point x="1092" y="1039" type="line"/>
			<point x="1133" y="927" type="line" smooth="yes"/>
			<point x="1160" y="852"/>
			<point x="1173" y="768"/>
			<point x="1173" y="675" type="curve" smooth="yes"/>
			<point x="1173" y="536" type="line"/>
			<point x="1091" y="312" type="line"/>
			<point x="947" y="155" type="line"/>
			<point x="750" y="70" type="line"/>
		</contour>
	</outline>
</glyph>
<glyph name="E" format="2">
	<advance width="1251"/>
	<unicode hex="0045"/>
	<note>
		E
	</note>
	<outline>
		<contour>
			<point x="42" y="0" type="line"/>
			<point x="1087" y="0" type="line"/>
			<point x="1204" y="340" type="line"/>
			<point x="1164" y="340" type="line"/>
			<point x="1132" y="277" type="line"/>
			<point x="1068" y="183" type="line"/>
			<point x="1037" y="153" type="line" smooth="yes"/>
			<point x="986" y="104"/>
			<point x="947" y="84"/>
			<point x="869" y="78" type="curve" smooth="yes"/>
			<point x="829" y="74" type="line"/>
			<point x="540" y="74" type="line" smooth="yes"/>
			<point x="503" y="74"/>
			<point x="479" y="78"/>
			<point x="464" y="86" type="curve" smooth="yes"/>
			<point x="452" y="91" type="line"/>
			<point x="446" y="99" type="line" smooth="yes"/>
			<point x="442" y="104"/>
			<point x="439" y="110"/>
			<point x="436" y="116" type="curve" smooth="yes"/>
			<point x="431" y="130"/>
			<point x="428" y="167"/>
			<point x="428" y="226" type="curve" smooth="yes"/>
			<point x="428" y="673" type="line"/>
			<point x="726" y="673" type="line" smooth="yes"/>
			<point x="754" y="673"/>
			<point x="778" y="671"/>
			<point x="799" y="668" type="curve" smooth="yes"/>
			<point x="830" y="663" type="line"/>
			<point x="852" y="653" type="line" smooth="yes"/>
			<point x="867" y="646"/>
			<point x="879" y="639"/>
			<point x="888" y="630" type="curve" smooth="yes"/>
			<point x="902" y="616" type="line"/>
			<point x="918" y="584" type="line"/>
			<point x="925" y="553" type="line" smooth="yes"/>
			<point x="930" y="532"/>
			<point x="934" y="504"/>
			<point x="939" y="471" type="curve"/>
			<point x="976" y="471" type="line"/>
			<point x="976" y="943" type="line"/>
			<point x="939" y="943" type="line"/>
			<point x="936" y="892" type="line"/>
			<point x="918" y="818" type="line"/>
			<point x="872" y="769" type="line"/>
			<point x="791" y="746" type="line"/>
			<point x="428" y="746" type="line"/>
			<point x="428" y="1282" type="line"/>
			<point x="900" y="1282" type="line"/>
			<point x="941" y="1267" type="line"/>
			<point x="966" y="1256" type="line"/>
			<point x="1002" y="1229" type="line"/>
			<point x="1030" y="1183" type="line"/>
			<point x="1052" y="1113" type="line"/>
			<point x="1063" y="1059" type="line"/>
			<point x="1087" y="1059" type="line"/>
			<point x="1087" y="1356" type="line"/>
			<point x="42" y="1356" type="line"/>
			<point x="42" y="1319" type="line"/>
			<point x="90" y="1319" type="line" smooth="yes"/>
			<point x="146" y="1319"/>
			<point x="186" y="1306"/>
			<point x="210" y="1279" type="curve" smooth="yes"/>
			<point x="236" y="1248" type="line"/>
			<point x="236" y="139" type="line"/>
			<point x="218" y="90" type="line"/>
			<point x="188" y="63" type="line"/>
			<point x="151" y="45" type="line"/>
			<point x="109" y="37" type="line"/>
			<point x="42" y="37" type="line"/>
		</contour>
	</outline>
</glyph>
<glyph name="F" format="2">
	<advance width="1139"/>
	<unicode hex="0046"/>
	<note>
		F
	</note>
	<outline>
		<contour>
			<point x="33" y="0" type="line"/>
			<point x="615" y="0" type="line"/>
			<point x="615" y="37" type="line"/>
			<point x="517" y="37" type="line"/>
			<point x="456" y="71" type="line"/>
			<point x="434" y="94" type="line"/>
			<point x="429" y="113" type="line" smooth="yes"/>
			<point x="425" y="126"/>
			<point x="422" y="142"/>
			<point x="421" y="162" type="curve" smooth="yes"/>
			<point x="419" y="192" type="line"/>
			<point x="419" y="666" type="line"/>
			<point x="717" y="666" type="line"/>
			<point x="784" y="645" type="line"/>
			<point x="804" y="622" type="line" smooth="yes"/>
			<point x="817" y="607"/>
			<point x="827" y="587"/>
			<point x="833" y="563" type="curve" smooth="yes"/>
			<point x="842" y="527" type="line"/>
			<point x="843" y="476" type="line"/>
			<point x="880" y="476" type="line"/>
			<point x="880" y="935" type="line"/>
			<point x="843" y="935" type="line"/>
			<point x="836" y="879" type="line"/>
			<point x="824" y="843" type="line" smooth="yes"/>
			<point x="816" y="819"/>
			<point x="805" y="800"/>
			<point x="791" y="786" type="curve" smooth="yes"/>
			<point x="770" y="765" type="line"/>
			<point x="709" y="749" type="line"/>
			<point x="419" y="749" type="line"/>
			<point x="419" y="1282" type="line"/>
			<point x="784" y="1282" type="line"/>
			<point x="880" y="1267" type="line"/>
			<point x="951" y="1219" type="line"/>
			<point x="976" y="1175" type="line" smooth="yes"/>
			<point x="992" y="1146"/>
			<point x="1007" y="1107"/>
			<point x="1020" y="1058" type="curve"/>
			<point x="1042" y="1058" type="line"/>
			<point x="1042" y="1356" type="line"/>
			<point x="33" y="1356" type="line"/>
			<point x="33" y="1319" type="line"/>
			<point x="129" y="1319" type="line"/>
			<point x="191" y="1285" type="line"/>
			<point x="212" y="1263" type="line"/>
			<point x="223" y="1224" type="line"/>
			<point x="225" y="1194" type="line" smooth="yes"/>
			<point x="226" y="1174"/>
			<point x="227" y="1148"/>
			<point x="227" y="1116" type="curve" smooth="yes"/>
			<point x="227" y="240" type="line" smooth="yes"/>
			<point x="227" y="158"/>
			<point x="219" y="107"/>
			<point x="203" y="86" type="curve" smooth="yes"/>
			<point x="166" y="37" type="line"/>
			<point x="33" y="37" type="line"/>
		</contour>
	</outline>
</glyph>
<glyph name="G" format="2">
	<advance width="1479"/>
	<unicode hex="0047"/>
	<note>
		G
	</note>
	<outline>
		<contour>
			<point x="429" y="-31" type="line"/>
			<point x="822" y="-31" type="line" smooth="yes"/>
			<point x="867" y="-31"/>
			<point x="910" y="-29"/>
			<point x="951" y="-24" type="curve" smooth="yes"/>
			<point x="1011" y="-17" type="line"/>
			<point x="1126" y="12" type="line"/>
			<point x="1182" y="35" type="line" smooth="yes"/>
			<point x="1219" y="50"/>
			<point x="1258" y="68"/>
			<point x="1298" y="89" type="curve"/>
			<point x="1298" y="567" type="line"/>
			<point x="1312" y="645" type="line"/>
			<point x="1343" y="687" type="line"/>
			<point x="1391" y="702" type="line"/>
			<point x="1450" y="702" type="line"/>
			<point x="1450" y="740" type="line"/>
			<point x="925" y="740" type="line"/>
			<point x="925" y="702" type="line"/>
			<point x="1007" y="702" type="line"/>
			<point x="1039" y="685" type="line" smooth="yes"/>
			<point x="1050" y="680"/>
			<point x="1059" y="674"/>
			<point x="1068" y="667" type="curve" smooth="yes"/>
			<point x="1080" y="657" type="line"/>
			<point x="1095" y="619" type="line"/>
			<point x="1103" y="556" type="line"/>
			<point x="1103" y="112" type="line"/>
			<point x="1059" y="87"/>
			<point x="1014" y="69"/>
			<point x="968" y="56" type="curve" smooth="yes"/>
			<point x="898" y="37" type="line"/>
			<point x="749" y="37" type="line"/>
			<point x="616" y="81" type="line"/>
			<point x="559" y="121" type="line" smooth="yes"/>
			<point x="521" y="148"/>
			<point x="487" y="180"/>
			<point x="456" y="218" type="curve" smooth="yes"/>
			<point x="410" y="275" type="line"/>
			<point x="302" y="506" type="line"/>
			<point x="302" y="700" type="line" smooth="yes"/>
			<point x="302" y="859"/>
			<point x="340" y="997"/>
			<point x="415" y="1112" type="curve" smooth="yes"/>
			<point x="505" y="1249"/>
			<point x="636" y="1317"/>
			<point x="809" y="1317" type="curve" smooth="yes"/>
			<point x="998" y="1317" type="line"/>
			<point x="1205" y="1118" type="line"/>
			<point x="1257" y="959" type="line"/>
			<point x="1292" y="959" type="line"/>
			<point x="1257" y="1387" type="line"/>
			<point x="1220" y="1387" type="line"/>
			<point x="1217" y="1336" type="line"/>
			<point x="1204" y="1319" type="line" smooth="yes"/>
			<point x="1195" y="1307"/>
			<point x="1184" y="1301"/>
			<point x="1171" y="1301" type="curve" smooth="yes"/>
			<point x="1151" y="1301" type="line"/>
			<point x="1096" y="1322" type="line"/>
			<point x="1010" y="1353" type="line"/>
			<point x="973" y="1365" type="line"/>
			<point x="907" y="1380" type="line"/>
			<point x="872" y="1384" type="line" smooth="yes"/>
			<point x="849" y="1386"/>
			<point x="821" y="1387"/>
			<point x="790" y="1387" type="curve" smooth="yes"/>
			<point x="685" y="1387"/>
			<point x="589" y="1369"/>
			<point x="504" y="1334" type="curve" smooth="yes"/>
			<point x="375" y="1281" type="line"/>
			<point x="275" y="1169" type="line"/>
			<point x="228" y="1118" type="line"/>
			<point x="190" y="1058" type="line" smooth="yes"/>
			<point x="165" y="1017"/>
			<point x="143" y="975"/>
			<point x="126" y="931" type="curve" smooth="yes"/>
			<point x="100" y="865" type="line"/>
			<point x="72" y="726" type="line"/>
			<point x="72" y="410" type="line"/>
		</contour>
	</outline>
</glyph>
<glyph name="H" format="2">
	<advance width="1479"/>
	<unicode hex="0048"/>
	<note>
		H
	</note>
	<outline>
		<contour>
			<point x="35" y="0" type="line"/>
			<point x="616" y="0" type="line"/>
			<point x="616" y="37" type="line"/>
			<point x="519" y="37" type="line"/>
			<point x="458" y="71" type="line"/>
			<point x="447" y="83" type="line" smooth="yes"/>
			<point x="440" y="90"/>
			<point x="434" y="100"/>
			<point x="431" y="113" type="curve" smooth="yes"/>
			<point x="425" y="132" type="line"/>
			<point x="423" y="162" type="line" smooth="yes"/>
			<point x="422" y="182"/>
			<point x="421" y="208"/>
			<point x="421" y="240" type="curve" smooth="yes"/>
			<point x="421" y="653" type="line"/>
			<point x="1051" y="653" type="line"/>
			<point x="1051" y="117" type="line"/>
			<point x="987" y="37" type="line"/>
			<point x="857" y="37" type="line"/>
			<point x="857" y="0" type="line"/>
			<point x="1437" y="0" type="line"/>
			<point x="1437" y="37" type="line"/>
			<point x="1340" y="37" type="line"/>
			<point x="1279" y="71" type="line"/>
			<point x="1269" y="82" type="line" smooth="yes"/>
			<point x="1262" y="89"/>
			<point x="1256" y="100"/>
			<point x="1253" y="113" type="curve" smooth="yes"/>
			<point x="1247" y="132" type="line"/>
			<point x="1243" y="192" type="line"/>
			<point x="1243" y="1214" type="line"/>
			<point x="1261" y="1266" type="line"/>
			<point x="1276" y="1280" type="line" smooth="yes"/>
			<point x="1285" y="1289"/>
			<point x="1296" y="1296"/>
			<point x="1309" y="1302" type="curve" smooth="yes"/>
			<point x="1328" y="1311" type="line"/>
			<point x="1370" y="1319" type="line"/>
			<point x="1437" y="1319" type="line"/>
			<point x="1438" y="1356" type="line"/>
			<point x="857" y="1356" type="line"/>
			<point x="857" y="1319" type="line"/>
			<point x="952" y="1319" type="line"/>
			<point x="1014" y="1285" type="line"/>
			<point x="1036" y="1262" type="line"/>
			<point x="1047" y="1223" type="line"/>
			<point x="1049" y="1193" type="line" smooth="yes"/>
			<point x="1050" y="1173"/>
			<point x="1051" y="1147"/>
			<point x="1051" y="1115" type="curve" smooth="yes"/>
			<point x="1051" y="727" type="line"/>
			<point x="421" y="727" type="line"/>
			<point x="421" y="1115" type="line" smooth="yes"/>
			<point x="421" y="1182"/>
			<point x="425" y="1226"/>
			<point x="433" y="1247" type="curve" smooth="yes"/>
			<point x="440" y="1266" type="line"/>
			<point x="469" y="1293" type="line"/>
			<point x="488" y="1302" type="line" smooth="yes"/>
			<point x="512" y="1314"/>
			<point x="540" y="1319"/>
			<point x="567" y="1319" type="curve" smooth="yes"/>
			<point x="616" y="1319" type="line"/>
			<point x="616" y="1356" type="line"/>
			<point x="35" y="1356" type="line"/>
			<point x="35" y="1319" type="line"/>
			<point x="131" y="1319" type="line"/>
			<point x="193" y="1285" type="line"/>
			<point x="214" y="1262" type="line"/>
			<point x="225" y="1223" type="line"/>
			<point x="229" y="1163" type="line"/>
			<point x="229" y="117" type="line"/>
			<point x="168" y="37" type="line"/>
			<point x="35" y="37" type="line"/>
		</contour>
	</outline>
</glyph>
<glyph name="I" format="2">
	<advance width="682"/>
	<unicode hex="0049"/>
	<note>
		I
	</note>
	<outline>
		<contour>
			<point x="51" y="0" type="line"/>
			<point x="632" y="0" type="line"/>
			<point x="632" y="37" type="line"/>
			<point x="535" y="37" type="line"/>
			<point x="492" y="61" type="line" smooth="yes"/>
			<point x="480" y="68"/>
			<point x="470" y="75"/>
			<point x="463" y="83" type="curve" smooth="yes"/>
			<point x="452" y="94" type="line"/>
			<point x="441" y="132" type="line"/>
			<point x="437" y="192" type="line"/>
			<point x="437" y="1239" type="line"/>
			<point x="462" y="1270" type="line"/>
			<point x="499" y="1319" type="line"/>
			<point x="632" y="1319" type="line"/>
			<point x="632" y="1356" type="line"/>
			<point x="51" y="1356" type="line"/>
			<point x="51" y="1319" type="line"/>
			<point x="147" y="1319" type="line"/>
			<point x="209" y="1285" type="line"/>
			<point x="230" y="1263" type="line"/>
			<point x="241" y="1224" type="line"/>
			<point x="245" y="1164" type="line"/>
			<point x="245" y="117" type="line"/>
			<point x="184" y="37" type="line"/>
			<point x="51" y="37" type="line"/>
		</contour>
	</outline>
</glyph>
<glyph name="J" format="2">
	<advance width="797"/>
	<unicode hex="004A"/>
	<note>
		J
	</note>
	<outline>
		<contour>
			<point x="197" y="-31" type="line"/>
			<point x="302" y="-31" type="line"/>
			<point x="353" y="-12" type="line" smooth="yes"/>
			<point x="386" y="1"/>
			<point x="416" y="19"/>
			<point x="443" y="41" type="curve" smooth="yes"/>
			<point x="482" y="73" type="line"/>
			<point x="540" y="158" type="line"/>
			<point x="591" y="298" type="line"/>
			<point x="591" y="1116" type="line" smooth="yes"/>
			<point x="591" y="1197"/>
			<point x="599" y="1249"/>
			<point x="615" y="1270" type="curve" smooth="yes"/>
			<point x="652" y="1319" type="line"/>
			<point x="785" y="1319" type="line"/>
			<point x="785" y="1356" type="line"/>
			<point x="204" y="1356" type="line"/>
			<point x="204" y="1319" type="line"/>
			<point x="300" y="1319" type="line"/>
			<point x="344" y="1295" type="line" smooth="yes"/>
			<point x="356" y="1288"/>
			<point x="366" y="1281"/>
			<point x="373" y="1274" type="curve" smooth="yes"/>
			<point x="384" y="1262" type="line"/>
			<point x="390" y="1243" type="line" smooth="yes"/>
			<point x="393" y="1230"/>
			<point x="396" y="1214"/>
			<point x="397" y="1194" type="curve" smooth="yes"/>
			<point x="399" y="1164" type="line"/>
			<point x="399" y="148" type="line"/>
			<point x="386" y="91" type="line"/>
			<point x="376" y="73" type="line" smooth="yes"/>
			<point x="369" y="61"/>
			<point x="361" y="53"/>
			<point x="352" y="48" type="curve" smooth="yes"/>
			<point x="338" y="40" type="line"/>
			<point x="288" y="40" type="line"/>
			<point x="246" y="141" type="line"/>
			<point x="215" y="194" type="line"/>
			<point x="201" y="208" type="line" smooth="yes"/>
			<point x="181" y="225"/>
			<point x="164" y="227"/>
			<point x="144" y="227" type="curve" smooth="yes"/>
			<point x="126" y="227" type="line"/>
			<point x="108" y="222" type="line" smooth="yes"/>
			<point x="69" y="210"/>
			<point x="42" y="173"/>
			<point x="42" y="122" type="curve" smooth="yes"/>
			<point x="42" y="92" type="line"/>
			<point x="70" y="37" type="line"/>
			<point x="122" y="-5" type="line"/>
		</contour>
	</outline>
</glyph>
<glyph name="K" format="2">
	<advance width="1479"/>
	<unicode hex="004B"/>
	<note>
		K
	</note>
	<outline>
		<contour>
			<point x="34" y="0" type="line"/>
			<point x="612" y="0" type="line"/>
			<point x="612" y="37" type="line"/>
			<point x="518" y="37" type="line"/>
			<point x="457" y="71" type="line"/>
			<point x="446" y="83" type="line" smooth="yes"/>
			<point x="439" y="90"/>
			<point x="433" y="100"/>
			<point x="430" y="113" type="curve" smooth="yes"/>
			<point x="424" y="132" type="line"/>
			<point x="420" y="192" type="line"/>
			<point x="420" y="677" type="line"/>
			<point x="888" y="214" type="line" smooth="yes"/>
			<point x="907" y="196"/>
			<point x="921" y="181"/>
			<point x="931" y="170" type="curve" smooth="yes"/>
			<point x="940" y="159"/>
			<point x="947" y="149"/>
			<point x="952" y="142" type="curve" smooth="yes"/>
			<point x="958" y="131" type="line"/>
			<point x="959" y="122" type="line" smooth="yes"/>
			<point x="960" y="115"/>
			<point x="960" y="108"/>
			<point x="960" y="100" type="curve" smooth="yes"/>
			<point x="960" y="68"/>
			<point x="928" y="37"/>
			<point x="851" y="37" type="curve"/>
			<point x="851" y="0" type="line"/>
			<point x="1496" y="0" type="line"/>
			<point x="1496" y="37" type="line"/>
			<point x="1410" y="43" type="line"/>
			<point x="1322" y="87" type="line" smooth="yes"/>
			<point x="1264" y="117"/>
			<point x="1194" y="173"/>
			<point x="1112" y="255" type="curve" smooth="yes"/>
			<point x="612" y="752" type="line"/>
			<point x="1022" y="1163" type="line" smooth="yes"/>
			<point x="1047" y="1186"/>
			<point x="1071" y="1206"/>
			<point x="1092" y="1223" type="curve" smooth="yes"/>
			<point x="1123" y="1247" type="line"/>
			<point x="1176" y="1281" type="line"/>
			<point x="1220" y="1301" type="line"/>
			<point x="1238" y="1307" type="line"/>
			<point x="1274" y="1317" type="line"/>
			<point x="1318" y="1319" type="line"/>
			<point x="1318" y="1356" type="line"/>
			<point x="820" y="1356" type="line"/>
			<point x="820" y="1319" type="line"/>
			<point x="902" y="1319" type="line"/>
			<point x="943" y="1284" type="line"/>
			<point x="943" y="1231" type="line"/>
			<point x="916" y="1191" type="line" smooth="yes"/>
			<point x="911" y="1184"/>
			<point x="899" y="1169"/>
			<point x="880" y="1148" type="curve" smooth="yes"/>
			<point x="842" y="1105"/>
			<point x="784" y="1046"/>
			<point x="716" y="978" type="curve" smooth="yes"/>
			<point x="612" y="876" type="line" smooth="yes"/>
			<point x="541" y="808"/>
			<point x="472" y="744"/>
			<point x="420" y="701" type="curve"/>
			<point x="420" y="1116" type="line" smooth="yes"/>
			<point x="420" y="1183"/>
			<point x="424" y="1227"/>
			<point x="432" y="1248" type="curve" smooth="yes"/>
			<point x="439" y="1267" type="line"/>
			<point x="454" y="1281" type="line" smooth="yes"/>
			<point x="474" y="1298"/>
			<point x="499" y="1310"/>
			<point x="527" y="1315" type="curve" smooth="yes"/>
			<point x="547" y="1319" type="line"/>
			<point x="612" y="1319" type="line"/>
			<point x="612" y="1356" type="line"/>
			<point x="34" y="1356" type="line"/>
			<point x="34" y="1319" type="line"/>
			<point x="130" y="1319" type="line"/>
			<point x="174" y="1295" type="line" smooth="yes"/>
			<point x="198" y="1282"/>
			<point x="211" y="1267"/>
			<point x="219" y="1242" type="curve" smooth="yes"/>
			<point x="225" y="1222" type="line"/>
			<point x="227" y="1192" type="line" smooth="yes"/>
			<point x="228" y="1172"/>
			<point x="228" y="1147"/>
			<point x="228" y="1116" type="curve" smooth="yes"/>
			<point x="228" y="117" type="line"/>
			<point x="167" y="37" type="line"/>
			<point x="34" y="37" type="line"/>
		</contour>
	</outline>
</glyph>
<glyph name="L" format="2">
	<advance width="1251"/>
	<unicode hex="004C"/>
	<note>
		L
	</note>
	<outline>
		<contour>
			<point x="41" y="0" type="line"/>
			<point x="1091" y="0" type="line"/>
			<point x="1207" y="368" type="line"/>
			<point x="1174" y="375" type="line"/>
			<point x="1147" y="311" type="line"/>
			<point x="1096" y="221" type="line"/>
			<point x="1043" y="158" type="line"/>
			<point x="987" y="120" type="line"/>
			<point x="891" y="86" type="line"/>
			<point x="505" y="86" type="line"/>
			<point x="465" y="102" type="line"/>
			<point x="445" y="123" type="line"/>
			<point x="433" y="156" type="line"/>
			<point x="428" y="206" type="line"/>
			<point x="428" y="1215" type="line"/>
			<point x="453" y="1262" type="line"/>
			<point x="480" y="1289" type="line"/>
			<point x="527" y="1309" type="line"/>
			<point x="600" y="1319" type="line"/>
			<point x="655" y="1319" type="line"/>
			<point x="655" y="1356" type="line"/>
			<point x="41" y="1356" type="line"/>
			<point x="41" y="1319" type="line"/>
			<point x="169" y="1319" type="line"/>
			<point x="236" y="1244" type="line"/>
			<point x="236" y="124" type="line"/>
			<point x="177" y="37" type="line"/>
			<point x="41" y="37" type="line"/>
		</contour>
	</outline>
</glyph>
<glyph name="M" format="2">
	<advance width="1821"/>
	<unicode hex="004D"/>
	<note>
		M
	</note>
	<outline>
		<contour>
			<point x="34" y="0" type="line"/>
			<point x="506" y="0" type="line"/>
			<point x="506" y="37" type="line"/>
			<point x="378" y="37" type="line"/>
			<point x="314" y="110" type="line"/>
			<point x="314" y="1141" type="line"/>
			<point x="838" y="0" type="line"/>
			<point x="871" y="0" type="line"/>
			<point x="1394" y="1141" type="line"/>
			<point x="1394" y="120" type="line"/>
			<point x="1336" y="37" type="line"/>
			<point x="1202" y="37" type="line"/>
			<point x="1202" y="0" type="line"/>
			<point x="1778" y="0" type="line"/>
			<point x="1778" y="37" type="line"/>
			<point x="1651" y="37" type="line"/>
			<point x="1586" y="110" type="line"/>
			<point x="1586" y="1236" type="line"/>
			<point x="1644" y="1319" type="line"/>
			<point x="1778" y="1319" type="line"/>
			<point x="1778" y="1356" type="line"/>
			<point x="1394" y="1356" type="line"/>
			<point x="910" y="295" type="line"/>
			<point x="418" y="1356" type="line"/>
			<point x="34" y="1356" type="line"/>
			<point x="34" y="1319" type="line"/>
			<point x="76" y="1319" type="line"/>
			<point x="134" y="1309" type="line"/>
			<point x="175" y="1291" type="line"/>
			<point x="199" y="1266" type="line"/>
			<point x="226" y="1209" type="line"/>
			<point x="226" y="120" type="line"/>
			<point x="204" y="89" type="line" smooth="yes"/>
			<point x="180" y="54"/>
			<point x="139" y="37"/>
			<point x="82" y="37" type="curve" smooth="yes"/>
			<point x="34" y="37" type="line"/>
		</contour>
	</outline>
</glyph>
<glyph name="N" format="2">
	<advance width="1479"/>
	<unicode hex="004E"/>
	<note>
		N
	</note>
	<outline>
		<contour>
			<point x="1222" y="-22" type="line"/>
			<point x="1258" y="-22" type="line"/>
			<point x="1258" y="1236" type="line"/>
			<point x="1316" y="1319" type="line"/>
			<point x="1450" y="1319" type="line"/>
			<point x="1450" y="1356" type="line"/>
			<point x="978" y="1356" type="line"/>
			<point x="978" y="1319" type="line"/>
			<point x="1104" y="1319" type="line"/>
			<point x="1142" y="1277" type="line" smooth="yes"/>
			<point x="1161" y="1256"/>
			<point x="1170" y="1204"/>
			<point x="1170" y="1121" type="curve" smooth="yes"/>
			<point x="1170" y="339" type="line"/>
			<point x="341" y="1356" type="line"/>
			<point x="-27" y="1356" type="line"/>
			<point x="-27" y="1319" type="line"/>
			<point x="32" y="1319" type="line"/>
			<point x="92" y="1299" type="line"/>
			<point x="113" y="1291" type="line" smooth="yes"/>
			<point x="127" y="1285"/>
			<point x="140" y="1278"/>
			<point x="152" y="1269" type="curve" smooth="yes"/>
			<point x="170" y="1255" type="line"/>
			<point x="210" y="1213" type="line"/>
			<point x="240" y="1178" type="line"/>
			<point x="240" y="120" type="line"/>
			<point x="182" y="37" type="line"/>
			<point x="48" y="37" type="line"/>
			<point x="48" y="0" type="line"/>
			<point x="520" y="0" type="line"/>
			<point x="520" y="37" type="line"/>
			<point x="392" y="37" type="line"/>
			<point x="328" y="110" type="line"/>
			<point x="328" y="1070" type="line"/>
		</contour>
	</outline>
</glyph>
<glyph name="O" format="2">
	<advance width="1479"/>
	<unicode hex="004F"/>
	<note>
		O
	</note>
	<outline>
		<contour>
			<point x="452" y="-31" type="line"/>
			<point x="1010" y="-31" type="line"/>
			<point x="1400" y="377" type="line"/>
			<point x="1400" y="986" type="line"/>
			<point x="1012" y="1387" type="line"/>
			<point x="483" y="1387" type="line"/>
			<point x="72" y="1006" type="line"/>
			<point x="72" y="367" type="line"/>
		</contour>
		<contour>
			<point x="626" y="40" type="line"/>
			<point x="466" y="135" type="line"/>
			<point x="357" y="306" type="line"/>
			<point x="301" y="544" type="line"/>
			<point x="301" y="831" type="line"/>
			<point x="358" y="1063" type="line"/>
			<point x="467" y="1226" type="line"/>
			<point x="627" y="1314" type="line"/>
			<point x="840" y="1314" type="line"/>
			<point x="1005" y="1225" type="line"/>
			<point x="1116" y="1057" type="line"/>
			<point x="1171" y="814" type="line"/>
			<point x="1171" y="497" type="line"/>
			<point x="1104" y="263" type="line"/>
			<point x="986" y="112" type="line"/>
			<point x="825" y="40" type="line"/>
		</contour>
	</outline>
</glyph>
<glyph name="P" format="2">
	<advance width="1139"/>
	<unicode hex="0050"/>
	<note>
		P
	</note>
	<outline>
		<contour>
			<point x="34" y="0" type="line"/>
			<point x="615" y="0" type="line"/>
			<point x="615" y="37" type="line"/>
			<point x="486" y="37" type="line"/>
			<point x="420" y="112" type="line"/>
			<point x="420" y="635" type="line"/>
			<point x="548" y="607" type="line"/>
			<point x="748" y="607" type="line"/>
			<point x="904" y="662" type="line"/>
			<point x="1011" y="761" type="line"/>
			<point x="1067" y="898" type="line"/>
			<point x="1067" y="981" type="line" smooth="yes"/>
			<point x="1067" y="1022"/>
			<point x="1061" y="1060"/>
			<point x="1048" y="1095" type="curve" smooth="yes"/>
			<point x="1028" y="1148" type="line"/>
			<point x="960" y="1235" type="line"/>
			<point x="870" y="1299" type="line"/>
			<point x="712" y="1356" type="line"/>
			<point x="34" y="1356" type="line"/>
			<point x="34" y="1319" type="line"/>
			<point x="162" y="1319" type="line"/>
			<point x="201" y="1275" type="line" smooth="yes"/>
			<point x="219" y="1254"/>
			<point x="228" y="1201"/>
			<point x="228" y="1116" type="curve" smooth="yes"/>
			<point x="228" y="125" type="line"/>
			<point x="208" y="93" type="line" smooth="yes"/>
			<point x="196" y="74"/>
			<point x="180" y="60"/>
			<point x="159" y="51" type="curve" smooth="yes"/>
			<point x="127" y="37" type="line"/>
			<point x="34" y="37" type="line"/>
		</contour>
		<contour>
			<point x="555" y="672" type="line"/>
			<point x="474" y="682" type="line"/>
			<point x="420" y="692" type="line"/>
			<point x="420" y="1256" type="line"/>
			<point x="460" y="1266" type="line"/>
			<point x="525" y="1275" type="line"/>
			<point x="612" y="1275" type="line"/>
			<point x="717" y="1233" type="line"/>
			<point x="795" y="1152" type="line"/>
			<point x="839" y="1035" type="line"/>
			<point x="839" y="961" type="line" smooth="yes"/>
			<point x="839" y="919"/>
			<point x="832" y="880"/>
			<point x="819" y="845" type="curve" smooth="yes"/>
			<point x="798" y="792" type="line"/>
			<point x="729" y="715" type="line"/>
			<point x="636" y="672" type="line"/>
		</contour>
	</outline>
</glyph>
<glyph name="Q" format="2">
	<advance width="1479"/>
	<unicode hex="0051"/>
	<note>
		Q
	</note>
	<outline>
		<contour>
			<point x="1392" y="-401" type="line"/>
			<point x="1392" y="-369" type="line"/>
			<point x="1241" y="-357" type="line"/>
			<point x="1005" y="-193" type="line"/>
			<point x="902" y="-15" type="line"/>
			<point x="1124" y="52" type="line"/>
			<point x="1401" y="427" type="line"/>
			<point x="1401" y="832" type="line"/>
			<point x="1303" y="1083" type="line"/>
			<point x="1013" y="1387" type="line"/>
			<point x="465" y="1387" type="line"/>
			<point x="72" y="984" type="line"/>
			<point x="72" y="487" type="line"/>
			<point x="205" y="205" type="line"/>
			<point x="413" y="43" type="line"/>
			<point x="557" y="-15" type="line"/>
			<point x="661" y="-117" type="line"/>
			<point x="942" y="-296" type="line"/>
			<point x="1097" y="-345" type="line"/>
			<point x="1256" y="-397" type="line"/>
		</contour>
		<contour>
			<point x="628" y="37" type="line"/>
			<point x="466" y="132" type="line"/>
			<point x="357" y="303" type="line"/>
			<point x="301" y="539" type="line"/>
			<point x="301" y="831" type="line"/>
			<point x="359" y="1065" type="line"/>
			<point x="470" y="1226" type="line"/>
			<point x="631" y="1310" type="line"/>
			<point x="832" y="1310" type="line"/>
			<point x="993" y="1226" type="line"/>
			<point x="1109" y="1060" type="line"/>
			<point x="1172" y="814" type="line"/>
			<point x="1172" y="507" type="line"/>
			<point x="1112" y="278" type="line"/>
			<point x="999" y="120" type="line"/>
			<point x="837" y="37" type="line"/>
		</contour>
	</outline>
</glyph>
<glyph name="R" format="2">
	<advance width="1366"/>
	<unicode hex="0052"/>
	<note>
		R
	</note>
	<outline>
		<contour>
			<point x="35" y="0" type="line"/>
			<point x="616" y="0" type="line"/>
			<point x="616" y="37" type="line"/>
			<point x="487" y="37" type="line"/>
			<point x="449" y="81" type="line" smooth="yes"/>
			<point x="430" y="102"/>
			<point x="421" y="155"/>
			<point x="421" y="240" type="curve" smooth="yes"/>
			<point x="421" y="634" type="line"/>
			<point x="467" y="632" type="line"/>
			<point x="496" y="632" type="line"/>
			<point x="517" y="633" type="line"/>
			<point x="537" y="633" type="line"/>
			<point x="563" y="634" type="line"/>
			<point x="1022" y="0" type="line"/>
			<point x="1384" y="0" type="line"/>
			<point x="1384" y="37" type="line"/>
			<point x="1274" y="49" type="line"/>
			<point x="1204" y="93" type="line" smooth="yes"/>
			<point x="1159" y="122"/>
			<point x="1104" y="181"/>
			<point x="1039" y="271" type="curve" smooth="yes"/>
			<point x="759" y="660" type="line"/>
			<point x="844" y="679" type="line"/>
			<point x="970" y="745" type="line"/>
			<point x="1053" y="835" type="line"/>
			<point x="1093" y="944" type="line"/>
			<point x="1093" y="1065" type="line"/>
			<point x="1054" y="1167" type="line"/>
			<point x="987" y="1249" type="line"/>
			<point x="898" y="1309" type="line"/>
			<point x="743" y="1356" type="line"/>
			<point x="35" y="1356" type="line"/>
			<point x="35" y="1319" type="line"/>
			<point x="163" y="1319" type="line"/>
			<point x="230" y="1244" type="line"/>
			<point x="230" y="124" type="line"/>
			<point x="171" y="37" type="line"/>
			<point x="35" y="37" type="line"/>
		</contour>
		<contour>
			<point x="468" y="696" type="line"/>
			<point x="454" y="697" type="line"/>
			<point x="421" y="697" type="line"/>
			<point x="421" y="1261" type="line"/>
			<point x="471" y="1271" type="line"/>
			<point x="549" y="1280" type="line"/>
			<point x="642" y="1280" type="line"/>
			<point x="749" y="1238" type="line"/>
			<point x="826" y="1162" type="line"/>
			<point x="868" y="1057" type="line"/>
			<point x="868" y="994" type="line" smooth="yes"/>
			<point x="868" y="951"/>
			<point x="860" y="912"/>
			<point x="844" y="876" type="curve" smooth="yes"/>
			<point x="819" y="821" type="line"/>
			<point x="721" y="741" type="line"/>
			<point x="574" y="696" type="line"/>
		</contour>
	</outline>
</glyph>
<glyph name="S" format="2">
	<advance width="1139"/>
	<unicode hex="0053"/>
	<note>
		S
	</note>
	<outline>
		<contour>
			<point x="141" y="-31" type="line"/>
			<point x="178" y="-31" type="line"/>
			<point x="185" y="16" type="line"/>
			<point x="214" y="46" type="line"/>
			<point x="239" y="46" type="line" smooth="yes"/>
			<point x="242" y="46"/>
			<point x="248" y="45"/>
			<point x="258" y="43" type="curve" smooth="yes"/>
			<point x="293" y="35" type="line" smooth="yes"/>
			<point x="307" y="32"/>
			<point x="322" y="28"/>
			<point x="339" y="23" type="curve" smooth="yes"/>
			<point x="388" y="6" type="line"/>
			<point x="422" y="-7" type="line"/>
			<point x="471" y="-22" type="line"/>
			<point x="494" y="-26" type="line" smooth="yes"/>
			<point x="509" y="-28"/>
			<point x="525" y="-29"/>
			<point x="542" y="-30" type="curve" smooth="yes"/>
			<point x="567" y="-31" type="line"/>
			<point x="696" y="-31" type="line"/>
			<point x="775" y="-1" type="line" smooth="yes"/>
			<point x="827" y="20"/>
			<point x="872" y="47"/>
			<point x="910" y="82" type="curve" smooth="yes"/>
			<point x="966" y="133" type="line"/>
			<point x="1029" y="270" type="line"/>
			<point x="1029" y="346" type="line" smooth="yes"/>
			<point x="1029" y="405"/>
			<point x="1018" y="456"/>
			<point x="996" y="499" type="curve" smooth="yes"/>
			<point x="963" y="562" type="line"/>
			<point x="852" y="661" type="line"/>
			<point x="706" y="743" type="line"/>
			<point x="430" y="890" type="line"/>
			<point x="339" y="960" type="line"/>
			<point x="313" y="1002" type="line" smooth="yes"/>
			<point x="296" y="1029"/>
			<point x="287" y="1062"/>
			<point x="287" y="1099" type="curve" smooth="yes"/>
			<point x="287" y="1126"/>
			<point x="293" y="1152"/>
			<point x="305" y="1177" type="curve" smooth="yes"/>
			<point x="323" y="1214" type="line"/>
			<point x="388" y="1272" type="line"/>
			<point x="476" y="1307" type="line"/>
			<point x="527" y="1307" type="line" smooth="yes"/>
			<point x="647" y="1307"/>
			<point x="777" y="1238"/>
			<point x="837" y="1133" type="curve" smooth="yes"/>
			<point x="868" y="1080"/>
			<point x="890" y="1008"/>
			<point x="902" y="918" type="curve"/>
			<point x="939" y="918" type="line"/>
			<point x="939" y="1387" type="line"/>
			<point x="902" y="1387" type="line"/>
			<point x="892" y="1340" type="line"/>
			<point x="859" y="1309" type="line"/>
			<point x="833" y="1309" type="line" smooth="yes"/>
			<point x="816" y="1309"/>
			<point x="790" y="1317"/>
			<point x="754" y="1334" type="curve" smooth="yes"/>
			<point x="672" y="1369"/>
			<point x="596" y="1387"/>
			<point x="525" y="1387" type="curve" smooth="yes"/>
			<point x="468" y="1387"/>
			<point x="415" y="1378"/>
			<point x="367" y="1359" type="curve" smooth="yes"/>
			<point x="294" y="1330" type="line"/>
			<point x="188" y="1232" type="line"/>
			<point x="128" y="1102" type="line"/>
			<point x="128" y="944" type="line"/>
			<point x="193" y="820" type="line"/>
			<point x="301" y="723" type="line"/>
			<point x="372" y="683" type="line"/>
			<point x="585" y="557" type="line"/>
			<point x="706" y="493" type="line"/>
			<point x="752" y="458" type="line" smooth="yes"/>
			<point x="782" y="435"/>
			<point x="806" y="408"/>
			<point x="824" y="379" type="curve" smooth="yes"/>
			<point x="851" y="334" type="line"/>
			<point x="851" y="225" type="line"/>
			<point x="814" y="144" type="line"/>
			<point x="744" y="83" type="line"/>
			<point x="694" y="65" type="line" smooth="yes"/>
			<point x="661" y="53"/>
			<point x="623" y="47"/>
			<point x="581" y="47" type="curve" smooth="yes"/>
			<point x="546" y="47"/>
			<point x="511" y="51"/>
			<point x="478" y="60" type="curve" smooth="yes"/>
			<point x="427" y="72" type="line"/>
			<point x="384" y="95" type="line" smooth="yes"/>
			<point x="325" y="124"/>
			<point x="277" y="167"/>
			<point x="248" y="215" type="curve" smooth="yes"/>
			<point x="226" y="252" type="line"/>
			<point x="209" y="307" type="line" smooth="yes"/>
			<point x="197" y="343"/>
			<point x="187" y="385"/>
			<point x="178" y="434" type="curve"/>
			<point x="141" y="434" type="line"/>
		</contour>
	</outline>
</glyph>
<glyph name="T" format="2">
	<advance width="1251"/>
	<unicode hex="0054"/>
	<note>
		T
	</note>
	<outline>
		<contour>
			<point x="339" y="0" type="line"/>
			<point x="914" y="0" type="line"/>
			<point x="914" y="37" type="line"/>
			<point x="787" y="37" type="line"/>
			<point x="723" y="110" type="line"/>
			<point x="723" y="1271" type="line"/>
			<point x="971" y="1271" type="line"/>
			<point x="1057" y="1246" type="line"/>
			<point x="1117" y="1191" type="line"/>
			<point x="1154" y="1102" type="line"/>
			<point x="1162" y="1038" type="line"/>
			<point x="1185" y="1038" type="line"/>
			<point x="1185" y="1356" type="line"/>
			<point x="62" y="1356" type="line"/>
			<point x="62" y="1038" type="line"/>
			<point x="100" y="1038" type="line"/>
			<point x="110" y="1111" type="line"/>
			<point x="150" y="1203" type="line"/>
			<point x="214" y="1253" type="line"/>
			<point x="306" y="1271" type="line"/>
			<point x="531" y="1271" type="line"/>
			<point x="531" y="120" type="line"/>
			<point x="473" y="37" type="line"/>
			<point x="339" y="37" type="line"/>
		</contour>
	</outline>
</glyph>
<glyph name="U" format="2">
	<advance width="1479"/>
	<unicode hex="0055"/>
	<note>
		U
	</note>
	<outline>
		<contour>
			<point x="403" y="45" type="curve" smooth="yes"/>
			<point x="519" y="-32" type="line"/>
			<point x="822" y="-32" type="line"/>
			<point x="973" y="-1" type="line"/>
			<point x="1099" y="65" type="line"/>
			<point x="1195" y="168" type="line"/>
			<point x="1262" y="355" type="line"/>
			<point x="1262" y="1108" type="line" smooth="yes"/>
			<point x="1262" y="1183"/>
			<point x="1269" y="1231"/>
			<point x="1283" y="1252" type="curve" smooth="yes"/>
			<point x="1312" y="1297"/>
			<point x="1353" y="1319"/>
			<point x="1406" y="1319" type="curve" smooth="yes"/>
			<point x="1457" y="1319" type="line"/>
			<point x="1457" y="1356" type="line"/>
			<point x="977" y="1356" type="line"/>
			<point x="977" y="1319" type="line"/>
			<point x="1105" y="1319" type="line"/>
			<point x="1144" y="1275" type="line" smooth="yes"/>
			<point x="1163" y="1254"/>
			<point x="1172" y="1201"/>
			<point x="1172" y="1116" type="curve" smooth="yes"/>
			<point x="1172" y="351" type="line"/>
			<point x="1114" y="215" type="line"/>
			<point x="1077" y="178" type="line" smooth="yes"/>
			<point x="1028" y="127"/>
			<point x="959" y="90"/>
			<point x="879" y="70" type="curve" smooth="yes"/>
			<point x="818" y="54" type="line"/>
			<point x="752" y="54" type="line" smooth="yes"/>
			<point x="684" y="54"/>
			<point x="628" y="65"/>
			<point x="585" y="86" type="curve" smooth="yes"/>
			<point x="519" y="117" type="line"/>
			<point x="455" y="205" type="line"/>
			<point x="440" y="246" type="line" smooth="yes"/>
			<point x="429" y="273"/>
			<point x="421" y="301"/>
			<point x="415" y="332" type="curve" smooth="yes"/>
			<point x="406" y="377" type="line"/>
			<point x="403" y="426" type="line" smooth="yes"/>
			<point x="401" y="459"/>
			<point x="400" y="492"/>
			<point x="400" y="525" type="curve" smooth="yes"/>
			<point x="400" y="1164" type="line"/>
			<point x="409" y="1240" type="line"/>
			<point x="439" y="1292" type="line"/>
			<point x="497" y="1319" type="line"/>
			<point x="597" y="1319" type="line"/>
			<point x="597" y="1356" type="line"/>
			<point x="11" y="1356" type="line"/>
			<point x="11" y="1319" type="line"/>
			<point x="100" y="1319" type="line"/>
			<point x="155" y="1303" type="line"/>
			<point x="191" y="1259" type="line"/>
			<point x="208" y="1179" type="line"/>
			<point x="208" y="486" type="line"/>
			<point x="214" y="329" type="line"/>
			<point x="251" y="200" type="line"/>
			<point x="291" y="147" type="line" smooth="yes"/>
			<point x="317" y="111"/>
			<point x="354" y="77"/>
		</contour>
	</outline>
</glyph>
<glyph name="V" format="2">
	<advance width="1479"/>
	<unicode hex="0056"/>
	<note>
		V
	</note>
	<outline>
		<contour>
			<point x="741" y="-31" type="line"/>
			<point x="778" y="-31" type="line"/>
			<point x="1269" y="1166" type="line"/>
			<point x="1304" y="1233" type="line"/>
			<point x="1350" y="1281" type="line"/>
			<point x="1411" y="1311" type="line"/>
			<point x="1454" y="1319" type="line"/>
			<point x="1454" y="1356" type="line"/>
			<point x="1036" y="1356" type="line"/>
			<point x="1036" y="1319" type="line"/>
			<point x="1115" y="1309" type="line"/>
			<point x="1180" y="1254" type="line"/>
			<point x="1180" y="1179" type="line"/>
			<point x="813" y="277" type="line"/>
			<point x="422" y="1177" type="line"/>
			<point x="422" y="1246" type="line"/>
			<point x="433" y="1275" type="line"/>
			<point x="465" y="1298" type="line"/>
			<point x="524" y="1314" type="line"/>
			<point x="572" y="1319" type="line"/>
			<point x="572" y="1356" type="line"/>
			<point x="18" y="1356" type="line"/>
			<point x="18" y="1319" type="line"/>
			<point x="81" y="1314" type="line"/>
			<point x="153" y="1279" type="line"/>
			<point x="193" y="1230" type="line"/>
		</contour>
	</outline>
</glyph>
<glyph name="W" format="2">
	<advance width="1933"/>
	<unicode hex="0057"/>
	<note>
		W
	</note>
	<outline>
		<contour>
			<point x="635" y="-31" type="line"/>
			<point x="671" y="-31" type="line"/>
			<point x="978" y="836" type="line"/>
			<point x="1287" y="-31" type="line"/>
			<point x="1327" y="-31" type="line"/>
			<point x="1705" y="1062" type="line" smooth="yes"/>
			<point x="1734" y="1151"/>
			<point x="1755" y="1206"/>
			<point x="1768" y="1229" type="curve" smooth="yes"/>
			<point x="1783" y="1255" type="line"/>
			<point x="1813" y="1289" type="line"/>
			<point x="1831" y="1300" type="line" smooth="yes"/>
			<point x="1842" y="1307"/>
			<point x="1855" y="1312"/>
			<point x="1869" y="1315" type="curve" smooth="yes"/>
			<point x="1890" y="1319" type="line"/>
			<point x="1917" y="1319" type="line"/>
			<point x="1917" y="1356" type="line"/>
			<point x="1512" y="1356" type="line"/>
			<point x="1512" y="1319" type="line"/>
			<point x="1578" y="1319" type="line"/>
			<point x="1662" y="1281" type="line"/>
			<point x="1662" y="1188" type="line"/>
			<point x="1360" y="315" type="line"/>
			<point x="1055" y="1179" type="line"/>
			<point x="1055" y="1230" type="line" smooth="yes"/>
			<point x="1055" y="1258"/>
			<point x="1064" y="1280"/>
			<point x="1081" y="1296" type="curve" smooth="yes"/>
			<point x="1106" y="1319" type="line"/>
			<point x="1199" y="1319" type="line"/>
			<point x="1199" y="1356" type="line"/>
			<point x="671" y="1356" type="line"/>
			<point x="671" y="1319" type="line"/>
			<point x="698" y="1319"/>
			<point x="721" y="1316"/>
			<point x="740" y="1309" type="curve" smooth="yes"/>
			<point x="768" y="1299" type="line"/>
			<point x="790" y="1280" type="line" smooth="yes"/>
			<point x="804" y="1267"/>
			<point x="817" y="1251"/>
			<point x="828" y="1232" type="curve" smooth="yes"/>
			<point x="844" y="1204" type="line"/>
			<point x="860" y="1167" type="line"/>
			<point x="932" y="962" type="line"/>
			<point x="707" y="315" type="line"/>
			<point x="440" y="1076" type="line"/>
			<point x="417" y="1139" type="line"/>
			<point x="396" y="1220" type="line"/>
			<point x="396" y="1271" type="line"/>
			<point x="424" y="1295" type="line" smooth="yes"/>
			<point x="442" y="1311"/>
			<point x="469" y="1319"/>
			<point x="505" y="1319" type="curve" smooth="yes"/>
			<point x="529" y="1319" type="line"/>
			<point x="529" y="1356" type="line"/>
			<point x="27" y="1356" type="line"/>
			<point x="27" y="1319" type="line"/>
			<point x="87" y="1319" type="line"/>
			<point x="155" y="1282" type="line"/>
			<point x="186" y="1223" type="line"/>
		</contour>
	</outline>
</glyph>
<glyph name="X" format="2">
	<advance width="1479"/>
	<unicode hex="0058"/>
	<note>
		X
	</note>
	<outline>
		<contour>
			<point x="15" y="0" type="line"/>
			<point x="496" y="0" type="line"/>
			<point x="496" y="37" type="line"/>
			<point x="445" y="38"/>
			<point x="413" y="48"/>
			<point x="393" y="61" type="curve" smooth="yes"/>
			<point x="378" y="71" type="line"/>
			<point x="366" y="98" type="line"/>
			<point x="366" y="125" type="line"/>
			<point x="368" y="142" type="line"/>
			<point x="380" y="166" type="line"/>
			<point x="405" y="202" type="line"/>
			<point x="713" y="596" type="line"/>
			<point x="984" y="187" type="line" smooth="yes"/>
			<point x="993" y="173"/>
			<point x="999" y="162"/>
			<point x="1003" y="154" type="curve" smooth="yes"/>
			<point x="1006" y="146"/>
			<point x="1008" y="140"/>
			<point x="1008" y="135" type="curve" smooth="yes"/>
			<point x="1007" y="127" type="line"/>
			<point x="1007" y="77" type="line"/>
			<point x="975" y="58" type="line" smooth="yes"/>
			<point x="953" y="45"/>
			<point x="919" y="38"/>
			<point x="873" y="37" type="curve"/>
			<point x="873" y="0" type="line"/>
			<point x="1455" y="0" type="line"/>
			<point x="1455" y="37" type="line"/>
			<point x="1364" y="42" type="line"/>
			<point x="1306" y="89" type="line" smooth="yes"/>
			<point x="1287" y="105"/>
			<point x="1262" y="132"/>
			<point x="1233" y="170" type="curve" smooth="yes"/>
			<point x="1188" y="226" type="line"/>
			<point x="836" y="751" type="line"/>
			<point x="1189" y="1201" type="line"/>
			<point x="1251" y="1256" type="line"/>
			<point x="1291" y="1284" type="line"/>
			<point x="1336" y="1304" type="line"/>
			<point x="1363" y="1311" type="line" smooth="yes"/>
			<point x="1381" y="1315"/>
			<point x="1401" y="1318"/>
			<point x="1424" y="1319" type="curve"/>
			<point x="1424" y="1356" type="line"/>
			<point x="943" y="1356" type="line"/>
			<point x="943" y="1319" type="line"/>
			<point x="979" y="1318" type="line"/>
			<point x="1027" y="1313" type="line"/>
			<point x="1058" y="1302" type="line"/>
			<point x="1088" y="1266" type="line"/>
			<point x="1088" y="1243" type="line" smooth="yes"/>
			<point x="1088" y="1228"/>
			<point x="1088" y="1218"/>
			<point x="1080" y="1202" type="curve" smooth="yes"/>
			<point x="1074" y="1190" type="line"/>
			<point x="1062" y="1173" type="line"/>
			<point x="786" y="823" type="line"/>
			<point x="578" y="1134" type="line" smooth="yes"/>
			<point x="546" y="1181"/>
			<point x="530" y="1217"/>
			<point x="530" y="1242" type="curve" smooth="yes"/>
			<point x="530" y="1251"/>
			<point x="532" y="1260"/>
			<point x="537" y="1269" type="curve" smooth="yes"/>
			<point x="543" y="1282" type="line"/>
			<point x="575" y="1303" type="line"/>
			<point x="602" y="1310" type="line" smooth="yes"/>
			<point x="620" y="1315"/>
			<point x="642" y="1318"/>
			<point x="669" y="1319" type="curve"/>
			<point x="669" y="1356" type="line"/>
			<point x="42" y="1356" type="line"/>
			<point x="42" y="1319" type="line"/>
			<point x="107" y="1317"/>
			<point x="166" y="1299"/>
			<point x="217" y="1266" type="curve" smooth="yes"/>
			<point x="292" y="1217" type="line"/>
			<point x="402" y="1058" type="line"/>
			<point x="669" y="667" type="line"/>
			<point x="278" y="173" type="line"/>
			<point x="175" y="92" type="line"/>
			<point x="78" y="42" type="line"/>
			<point x="15" y="37" type="line"/>
		</contour>
	</outline>
</glyph>
<glyph name="Y" format="2">
	<advance width="1479"/>
	<unicode hex="0059"/>
	<note>
		Y
	</note>
	<outline>
		<contour>
			<point x="444" y="0" type="line"/>
			<point x="1020" y="0" type="line"/>
			<point x="1020" y="37" type="line"/>
			<point x="893" y="37" type="line"/>
			<point x="828" y="110" type="line"/>
			<point x="828" y="575" type="line"/>
			<point x="1186" y="1138" type="line"/>
			<point x="1235" y="1208" type="line"/>
			<point x="1276" y="1251" type="line"/>
			<point x="1324" y="1285" type="line"/>
			<point x="1370" y="1307" type="line"/>
			<point x="1411" y="1319" type="line"/>
			<point x="1449" y="1319" type="line"/>
			<point x="1449" y="1356" type="line"/>
			<point x="976" y="1356" type="line"/>
			<point x="976" y="1319" type="line"/>
			<point x="1015" y="1319" type="line"/>
			<point x="1067" y="1305" type="line"/>
			<point x="1082" y="1292" type="line" smooth="yes"/>
			<point x="1102" y="1275"/>
			<point x="1110" y="1250"/>
			<point x="1113" y="1222" type="curve"/>
			<point x="1113" y="1176" type="line"/>
			<point x="787" y="664" type="line"/>
			<point x="443" y="1195" type="line"/>
			<point x="443" y="1254" type="line"/>
			<point x="455" y="1271" type="line" smooth="yes"/>
			<point x="470" y="1292"/>
			<point x="494" y="1307"/>
			<point x="525" y="1314" type="curve" smooth="yes"/>
			<point x="547" y="1319" type="line"/>
			<point x="599" y="1319" type="line"/>
			<point x="599" y="1356" type="line"/>
			<point x="19" y="1356" type="line"/>
			<point x="19" y="1319" type="line"/>
			<point x="47" y="1319" type="line"/>
			<point x="98" y="1302" type="line"/>
			<point x="140" y="1278" type="line"/>
			<point x="154" y="1267" type="line"/>
			<point x="174" y="1249" type="line" smooth="yes"/>
			<point x="182" y="1240"/>
			<point x="194" y="1226"/>
			<point x="209" y="1206" type="curve" smooth="yes"/>
			<point x="231" y="1175" type="line"/>
			<point x="636" y="556" type="line"/>
			<point x="636" y="120" type="line"/>
			<point x="578" y="37" type="line"/>
			<point x="444" y="37" type="line"/>
		</contour>
	</outline>
</glyph>
<glyph name="Z" format="2">
	<advance width="1251"/>
	<unicode hex="005A"/>
	<note>
		Z
	</note>
	<outline>
		<contour>
			<point x="26" y="0" type="line"/>
			<point x="1130" y="0" type="line"/>
			<point x="1194" y="359" type="line"/>
			<point x="1161" y="365" type="line"/>
			<point x="1108" y="194" type="line"/>
			<point x="971" y="82" type="line"/>
			<point x="287" y="82" type="line"/>
			<point x="1178" y="1356" type="line"/>
			<point x="175" y="1356" type="line"/>
			<point x="147" y="1017" type="line"/>
			<point x="185" y="1017" type="line"/>
			<point x="206" y="1141" type="line"/>
			<point x="244" y="1206" type="line"/>
			<point x="279" y="1240" type="line"/>
			<point x="333" y="1263" type="line"/>
			<point x="408" y="1275" type="line"/>
			<point x="896" y="1275" type="line"/>
			<point x="26" y="37" type="line"/>
		</contour>
	</outline>
</glyph>
<glyph name="bracketleft" format="2">
	<advance width="682"/>
	<unicode hex="005B"/>
	<note>
		bracketleft
	</note>
	<outline>
		<contour>
			<point x="168" y="-406" type="line"/>
			<point x="608" y="-406" type="line"/>
			<point x="608" y="-328" type="line"/>
			<point x="318" y="-328" type="line"/>
			<point x="318" y="1308" type="line"/>
			<point x="608" y="1308" type="line"/>
			<point x="608" y="1387" type="line"/>
			<point x="168" y="1387" type="line"/>
		</contour>
	</outline>
</glyph>
<glyph name="backslash" format="2">
	<advance width="569"/>
	<unicode hex="005C"/>
	<note>
		backslash
	</note>
	<outline>
		<contour>
			<point x="493" y="-28" type="line"/>
			<point x="573" y="-28" type="line"/>
			<point x="83" y="1422" type="line"/>
			<point x="3" y="1422" type="line"/>
		</contour>
	</outline>
</glyph>
<glyph name="bracketright" format="2">
	<advance width="682"/>
	<unicode hex="005D"/>
	<note>
		bracketright
	</note>
	<outline>
		<contour>
			<point x="75" y="-407" type="line"/>
			<point x="515" y="-407" type="line"/>
			<point x="515" y="1387" type="line"/>
			<point x="75" y="1387" type="line"/>
			<point x="75" y="1308" type="line"/>
			<point x="365" y="1308" type="line"/>
			<point x="365" y="-328" type="line"/>
			<point x="75" y="-328" type="line"/>
		</contour>
	</outline>
</glyph>
<glyph name="asciicircum" format="2">
	<advance width="961"/>
	<unicode hex="005E"/>
	<note>
		asciicircum
	</note>
	<outline>
		<contour>
			<point x="37" y="667" type="line"/>
			<point x="131" y="667" type="line"/>
			<point x="481" y="1253" type="line"/>
			<point x="831" y="667" type="line"/>
			<point x="923" y="667" type="line"/>
			<point x="498" y="1384" type="line"/>
			<point x="468" y="1384" type="line"/>
		</contour>
	</outline>
</glyph>
<glyph name="underscore" format="2">
	<advance width="1024"/>
	<unicode hex="005F"/>
	<note>
		underscore
	</note>
	<outline>
		<contour>
			<point x="-17" y="-442" type="line"/>
			<point x="1042" y="-442" type="line"/>
			<point x="1042" y="-358" type="line"/>
			<point x="-17" y="-358" type="line"/>
		</contour>
	</outline>
</glyph>
<glyph name="grave" format="2">
	<advance width="682"/>
	<unicode hex="0060"/>
	<note>
		grave
	</note>
	<outline>
		<contour>
			<point x="412" y="1045" type="line"/>
			<point x="447" y="1045" type="line"/>
			<point x="341" y="1390" type="line"/>
			<point x="118" y="1390" type="line"/>
		</contour>
	</outline>
</glyph>
<glyph name="a" format="2">
	<advance width="909"/>
	<unicode hex="0061"/>
	<note>
		a
	</note>
	<outline>
		<contour>
			<point x="291" y="-19" type="curve" smooth="yes"/>
			<point x="353" y="-19" type="line"/>
			<point x="442" y="22" type="line"/>
			<point x="583" y="132" type="line"/>
			<point x="583" y="50" type="line"/>
			<point x="643" y="-18" type="line"/>
			<point x="792" y="-18" type="line"/>
			<point x="905" y="132" type="line"/>
			<point x="905" y="188" type="line"/>
			<point x="864" y="148" type="line"/>
			<point x="848" y="132" type="line"/>
			<point x="824" y="114" type="line"/>
			<point x="815" y="111" type="line" smooth="yes"/>
			<point x="809" y="109"/>
			<point x="803" y="108"/>
			<point x="796" y="108" type="curve" smooth="yes"/>
			<point x="781" y="108" type="line"/>
			<point x="758" y="128" type="line"/>
			<point x="751" y="172" type="line"/>
			<point x="748" y="252" type="line"/>
			<point x="748" y="761" type="line"/>
			<point x="697" y="881" type="line"/>
			<point x="623" y="912" type="line" smooth="yes"/>
			<point x="574" y="933"/>
			<point x="514" y="943"/>
			<point x="443" y="943" type="curve" smooth="yes"/>
			<point x="363" y="943" type="line"/>
			<point x="301" y="923" type="line" smooth="yes"/>
			<point x="259" y="910"/>
			<point x="224" y="892"/>
			<point x="196" y="870" type="curve" smooth="yes"/>
			<point x="153" y="837" type="line"/>
			<point x="131" y="796" type="line" smooth="yes"/>
			<point x="116" y="769"/>
			<point x="108" y="741"/>
			<point x="108" y="713" type="curve" smooth="yes"/>
			<point x="108" y="668" type="line"/>
			<point x="155" y="616" type="line"/>
			<point x="230" y="616" type="line"/>
			<point x="254" y="641" type="line" smooth="yes"/>
			<point x="269" y="658"/>
			<point x="277" y="681"/>
			<point x="277" y="712" type="curve" smooth="yes"/>
			<point x="275" y="770" type="line" smooth="yes"/>
			<point x="275" y="816"/>
			<point x="307" y="854"/>
			<point x="356" y="873" type="curve" smooth="yes"/>
			<point x="381" y="882" type="line"/>
			<point x="453" y="882" type="line"/>
			<point x="517" y="859" type="line"/>
			<point x="560" y="804" type="line"/>
			<point x="583" y="712" type="line"/>
			<point x="583" y="607" type="line"/>
			<point x="348" y="522" type="line"/>
			<point x="201" y="435" type="line"/>
			<point x="136" y="381" type="line"/>
			<point x="94" y="322" type="line"/>
			<point x="73" y="256" type="line"/>
			<point x="73" y="164" type="line"/>
			<point x="106" y="77" type="line"/>
			<point x="164" y="15" type="line"/>
			<point x="204" y="-2" type="line" smooth="yes"/>
			<point x="231" y="-13"/>
			<point x="260" y="-19"/>
		</contour>
		<contour>
			<point x="355" y="97" type="line"/>
			<point x="303" y="122" type="line"/>
			<point x="264" y="167" type="line"/>
			<point x="241" y="228" type="line"/>
			<point x="241" y="321" type="line"/>
			<point x="309" y="416" type="line"/>
			<point x="388" y="461" type="line" smooth="yes"/>
			<point x="403" y="470"/>
			<point x="426" y="481"/>
			<point x="459" y="495" type="curve" smooth="yes"/>
			<point x="507" y="516" type="line"/>
			<point x="583" y="546" type="line"/>
			<point x="583" y="197" type="line"/>
			<point x="459" y="97" type="line"/>
		</contour>
	</outline>
</glyph>
<glyph name="b" format="2">
	<advance width="1024"/>
	<unicode hex="0062"/>
	<note>
		b
	</note>
	<outline>
		<contour>
			<point x="323" y="-28" type="line"/>
			<point x="651" y="-28" type="line"/>
			<point x="953" y="248" type="line"/>
			<point x="953" y="598" type="line"/>
			<point x="895" y="764" type="line"/>
			<point x="798" y="881" type="line"/>
			<point x="671" y="943" type="line"/>
			<point x="449" y="943" type="line"/>
			<point x="315" y="758" type="line"/>
			<point x="315" y="1422" type="line"/>
			<point x="270" y="1422" type="line"/>
			<point x="-5" y="1310" type="line"/>
			<point x="9" y="1275" type="line"/>
			<point x="50" y="1291" type="line"/>
			<point x="103" y="1291" type="line"/>
			<point x="135" y="1265" type="line"/>
			<point x="150" y="1191" type="line"/>
			<point x="150" y="88" type="line"/>
		</contour>
		<contour>
			<point x="532" y="45" type="curve" smooth="yes"/>
			<point x="418" y="45" type="line"/>
			<point x="315" y="146" type="line"/>
			<point x="315" y="694" type="line"/>
			<point x="349" y="728" type="line"/>
			<point x="377" y="749" type="line" smooth="yes"/>
			<point x="396" y="763"/>
			<point x="413" y="774"/>
			<point x="429" y="782" type="curve" smooth="yes"/>
			<point x="453" y="793" type="line"/>
			<point x="499" y="801" type="line"/>
			<point x="523" y="801" type="line" smooth="yes"/>
			<point x="556" y="801"/>
			<point x="588" y="793"/>
			<point x="619" y="777" type="curve" smooth="yes"/>
			<point x="665" y="752" type="line"/>
			<point x="737" y="659" type="line"/>
			<point x="780" y="523" type="line"/>
			<point x="780" y="341" type="line"/>
			<point x="736" y="195" type="line"/>
			<point x="665" y="96" type="line"/>
			<point x="621" y="71" type="line" smooth="yes"/>
			<point x="592" y="54"/>
			<point x="562" y="45"/>
		</contour>
	</outline>
</glyph>
<glyph name="c" format="2">
	<advance width="909"/>
	<unicode hex="0063"/>
	<note>
		c
	</note>
	<outline>
		<contour>
			<point x="381" y="-28" type="line"/>
			<point x="523" y="-28" type="line"/>
			<point x="645" y="21" type="line"/>
			<point x="747" y="117" type="line"/>
			<point x="823" y="257" type="line"/>
			<point x="842" y="348" type="line"/>
			<point x="813" y="362" type="line"/>
			<point x="783" y="292" type="line"/>
			<point x="718" y="201" type="line"/>
			<point x="683" y="175" type="line" smooth="yes"/>
			<point x="660" y="158"/>
			<point x="635" y="146"/>
			<point x="610" y="139" type="curve" smooth="yes"/>
			<point x="572" y="128" type="line"/>
			<point x="460" y="128" type="line"/>
			<point x="350" y="198" type="line"/>
			<point x="312" y="256" type="line" smooth="yes"/>
			<point x="286" y="295"/>
			<point x="266" y="339"/>
			<point x="253" y="389" type="curve" smooth="yes"/>
			<point x="232" y="463" type="line"/>
			<point x="232" y="611" type="line"/>
			<point x="248" y="672" type="line" smooth="yes"/>
			<point x="258" y="712"/>
			<point x="273" y="747"/>
			<point x="294" y="778" type="curve" smooth="yes"/>
			<point x="325" y="823" type="line"/>
			<point x="415" y="876" type="line"/>
			<point x="474" y="876" type="line" smooth="yes"/>
			<point x="558" y="876"/>
			<point x="604" y="835"/>
			<point x="611" y="756" type="curve" smooth="yes"/>
			<point x="614" y="720" type="line"/>
			<point x="632" y="674" type="line"/>
			<point x="661" y="648" type="line"/>
			<point x="700" y="638" type="line"/>
			<point x="723" y="638" type="line" smooth="yes"/>
			<point x="783" y="638"/>
			<point x="816" y="672"/>
			<point x="816" y="723" type="curve" smooth="yes"/>
			<point x="816" y="761" type="line"/>
			<point x="769" y="839" type="line"/>
			<point x="687" y="903" type="line"/>
			<point x="631" y="923" type="line" smooth="yes"/>
			<point x="593" y="936"/>
			<point x="552" y="943"/>
			<point x="507" y="943" type="curve" smooth="yes"/>
			<point x="418" y="943" type="line"/>
			<point x="339" y="908" type="line" smooth="yes"/>
			<point x="286" y="884"/>
			<point x="239" y="851"/>
			<point x="200" y="808" type="curve" smooth="yes"/>
			<point x="140" y="744" type="line"/>
			<point x="70" y="565" type="line"/>
			<point x="70" y="345" type="line"/>
			<point x="134" y="166" type="line"/>
			<point x="241" y="40" type="line"/>
		</contour>
	</outline>
</glyph>
<glyph name="d" format="2">
	<advance width="1024"/>
	<unicode hex="0064"/>
	<note>
		d
	</note>
	<outline>
		<contour>
			<point x="367" y="-28" type="line"/>
			<point x="517" y="-28" type="line"/>
			<point x="644" y="33" type="line"/>
			<point x="711" y="103" type="line"/>
			<point x="711" y="-28" type="line"/>
			<point x="757" y="-28" type="line"/>
			<point x="1029" y="85" type="line"/>
			<point x="1018" y="120" type="line"/>
			<point x="972" y="103" type="line"/>
			<point x="924" y="103" type="line"/>
			<point x="891" y="131" type="line"/>
			<point x="876" y="200" type="line"/>
			<point x="876" y="1422" type="line"/>
			<point x="831" y="1422" type="line"/>
			<point x="558" y="1310" type="line"/>
			<point x="571" y="1275" type="line"/>
			<point x="599" y="1286"/>
			<point x="622" y="1291"/>
			<point x="640" y="1291" type="curve" smooth="yes"/>
			<point x="674" y="1291" type="line"/>
			<point x="704" y="1266" type="line"/>
			<point x="709" y="1247" type="line" smooth="yes"/>
			<point x="712" y="1234"/>
			<point x="714" y="1221"/>
			<point x="713" y="1207" type="curve" smooth="yes"/>
			<point x="711" y="1185" type="line"/>
			<point x="711" y="867" type="line"/>
			<point x="631" y="944" type="line"/>
			<point x="317" y="944" type="line"/>
			<point x="68" y="617" type="line"/>
			<point x="68" y="322" type="line"/>
			<point x="129" y="158" type="line"/>
			<point x="232" y="39" type="line"/>
		</contour>
		<contour>
			<point x="482" y="82" type="line"/>
			<point x="380" y="136" type="line"/>
			<point x="300" y="242" type="line"/>
			<point x="251" y="398" type="line"/>
			<point x="251" y="585" type="line"/>
			<point x="289" y="726" type="line"/>
			<point x="356" y="827" type="line"/>
			<point x="446" y="882" type="line"/>
			<point x="535" y="882" type="line"/>
			<point x="606" y="851" type="line"/>
			<point x="665" y="790" type="line"/>
			<point x="706" y="702" type="line"/>
			<point x="711" y="645" type="line"/>
			<point x="711" y="173" type="line"/>
			<point x="626" y="82" type="line"/>
		</contour>
	</outline>
</glyph>
<glyph name="e" format="2">
	<advance width="909"/>
	<unicode hex="0065"/>
	<note>
		e
	</note>
	<outline>
		<contour>
			<point x="322" y="6" type="curve" smooth="yes"/>
			<point x="394" y="-28" type="line"/>
			<point x="552" y="-28" type="line"/>
			<point x="681" y="35" type="line"/>
			<point x="778" y="137" type="line"/>
			<point x="840" y="267" type="line"/>
			<point x="851" y="334" type="line"/>
			<point x="820" y="354" type="line"/>
			<point x="775" y="234" type="line"/>
			<point x="642" y="135" type="line"/>
			<point x="485" y="135" type="line"/>
			<point x="364" y="194" type="line"/>
			<point x="272" y="307" type="line"/>
			<point x="218" y="469" type="line"/>
			<point x="218" y="571" type="line"/>
			<point x="851" y="571" type="line"/>
			<point x="851" y="656" type="line"/>
			<point x="798" y="793" type="line"/>
			<point x="704" y="891" type="line"/>
			<point x="575" y="944" type="line"/>
			<point x="499" y="944" type="line" smooth="yes"/>
			<point x="440" y="944"/>
			<point x="384" y="933"/>
			<point x="333" y="911" type="curve" smooth="yes"/>
			<point x="255" y="878" type="line"/>
			<point x="141" y="750" type="line"/>
			<point x="76" y="565" type="line"/>
			<point x="76" y="337" type="line"/>
			<point x="140" y="162" type="line"/>
			<point x="195" y="101" type="line" smooth="yes"/>
			<point x="231" y="60"/>
			<point x="273" y="28"/>
		</contour>
		<contour>
			<point x="218" y="629" type="line"/>
			<point x="223" y="687" type="line"/>
			<point x="264" y="777" type="line"/>
			<point x="326" y="840" type="line"/>
			<point x="402" y="873" type="line"/>
			<point x="497" y="873" type="line"/>
			<point x="596" y="809" type="line"/>
			<point x="638" y="717" type="line"/>
			<point x="642" y="629" type="line"/>
		</contour>
	</outline>
</glyph>
<glyph name="f" format="2">
	<advance width="682"/>
	<unicode hex="0066"/>
	<note>
		f
	</note>
	<outline>
		<contour>
			<point x="85" y="0" type="line"/>
			<point x="632" y="0" type="line"/>
			<point x="632" y="36" type="line"/>
			<point x="549" y="36" type="line" smooth="yes"/>
			<point x="508" y="36"/>
			<point x="475" y="51"/>
			<point x="450" y="80" type="curve" smooth="yes"/>
			<point x="422" y="114" type="line"/>
			<point x="422" y="844" type="line"/>
			<point x="658" y="844" type="line"/>
			<point x="658" y="916" type="line"/>
			<point x="422" y="916" type="line"/>
			<point x="422" y="1194" type="line"/>
			<point x="450" y="1299" type="line"/>
			<point x="482" y="1324" type="line" smooth="yes"/>
			<point x="503" y="1340"/>
			<point x="529" y="1348"/>
			<point x="560" y="1348" type="curve" smooth="yes"/>
			<point x="579" y="1348" type="line"/>
			<point x="596" y="1344" type="line" smooth="yes"/>
			<point x="607" y="1341"/>
			<point x="618" y="1337"/>
			<point x="629" y="1330" type="curve" smooth="yes"/>
			<point x="645" y="1319" type="line"/>
			<point x="678" y="1283" type="line"/>
			<point x="716" y="1227" type="line"/>
			<point x="732" y="1210" type="line" smooth="yes"/>
			<point x="742" y="1199"/>
			<point x="751" y="1190"/>
			<point x="760" y="1184" type="curve" smooth="yes"/>
			<point x="773" y="1174" type="line"/>
			<point x="785" y="1171" type="line" smooth="yes"/>
			<point x="792" y="1169"/>
			<point x="800" y="1168"/>
			<point x="808" y="1168" type="curve" smooth="yes"/>
			<point x="823" y="1168" type="line"/>
			<point x="838" y="1176" type="line" smooth="yes"/>
			<point x="848" y="1181"/>
			<point x="857" y="1187"/>
			<point x="865" y="1195" type="curve" smooth="yes"/>
			<point x="876" y="1207" type="line"/>
			<point x="890" y="1236" type="line"/>
			<point x="890" y="1287" type="line"/>
			<point x="841" y="1349" type="line"/>
			<point x="766" y="1394" type="line"/>
			<point x="678" y="1420" type="line"/>
			<point x="583" y="1420" type="line"/>
			<point x="480" y="1389" type="line"/>
			<point x="392" y="1333" type="line"/>
			<point x="323" y="1255" type="line"/>
			<point x="301" y="1208" type="line" smooth="yes"/>
			<point x="272" y="1144"/>
			<point x="257" y="1067"/>
			<point x="257" y="976" type="curve" smooth="yes"/>
			<point x="257" y="916" type="line"/>
			<point x="79" y="916" type="line"/>
			<point x="79" y="844" type="line"/>
			<point x="257" y="844" type="line"/>
			<point x="257" y="143" type="line"/>
			<point x="231" y="75" type="line"/>
			<point x="166" y="36" type="line"/>
			<point x="85" y="36" type="line"/>
		</contour>
	</outline>
</glyph>
<glyph name="g" format="2">
	<advance width="1024"/>
	<unicode hex="0067"/>
	<note>
		g
	</note>
	<outline>
		<contour>
			<point x="393" y="-442" type="line"/>
			<point x="712" y="-442" type="line"/>
			<point x="975" y="-197" type="line"/>
			<point x="975" y="-43" type="line"/>
			<point x="961" y="-8" type="line" smooth="yes"/>
			<point x="941" y="39"/>
			<point x="906" y="75"/>
			<point x="855" y="99" type="curve" smooth="yes"/>
			<point x="817" y="117" type="line"/>
			<point x="771" y="123" type="line" smooth="yes"/>
			<point x="750" y="126"/>
			<point x="718" y="129"/>
			<point x="674" y="131" type="curve" smooth="yes"/>
			<point x="607" y="134" type="line"/>
			<point x="504" y="137" type="line" smooth="yes"/>
			<point x="453" y="138"/>
			<point x="413" y="141"/>
			<point x="384" y="144" type="curve" smooth="yes"/>
			<point x="340" y="148" type="line"/>
			<point x="295" y="163" type="line"/>
			<point x="289" y="174" type="line" smooth="yes"/>
			<point x="285" y="181"/>
			<point x="283" y="190"/>
			<point x="283" y="200" type="curve" smooth="yes"/>
			<point x="283" y="220" type="line"/>
			<point x="313" y="277" type="line"/>
			<point x="358" y="315" type="line"/>
			<point x="406" y="302"/>
			<point x="452" y="295"/>
			<point x="497" y="295" type="curve" smooth="yes"/>
			<point x="552" y="295"/>
			<point x="601" y="303"/>
			<point x="646" y="320" type="curve" smooth="yes"/>
			<point x="713" y="345" type="line"/>
			<point x="807" y="429" type="line"/>
			<point x="858" y="542" type="line"/>
			<point x="858" y="716" type="line"/>
			<point x="802" y="789" type="line"/>
			<point x="948" y="789" type="line"/>
			<point x="962" y="791" type="line" smooth="yes"/>
			<point x="989" y="793"/>
			<point x="987" y="807"/>
			<point x="987" y="836" type="curve" smooth="yes"/>
			<point x="987" y="859" type="line"/>
			<point x="978" y="873" type="line" smooth="yes"/>
			<point x="977" y="874"/>
			<point x="975" y="876"/>
			<point x="972" y="877" type="curve"/>
			<point x="955" y="879" type="line"/>
			<point x="727" y="879" type="line"/>
			<point x="632" y="943" type="line"/>
			<point x="420" y="943" type="line"/>
			<point x="354" y="917" type="line" smooth="yes"/>
			<point x="265" y="881"/>
			<point x="198" y="820"/>
			<point x="162" y="740" type="curve" smooth="yes"/>
			<point x="135" y="679" type="line"/>
			<point x="135" y="611" type="line" smooth="yes"/>
			<point x="135" y="551"/>
			<point x="150" y="497"/>
			<point x="180" y="449" type="curve" smooth="yes"/>
			<point x="224" y="376" type="line"/>
			<point x="309" y="334" type="line"/>
			<point x="256" y="290" type="line"/>
			<point x="193" y="226" type="line"/>
			<point x="176" y="201" type="line" smooth="yes"/>
			<point x="165" y="184"/>
			<point x="157" y="170"/>
			<point x="154" y="157" type="curve" smooth="yes"/>
			<point x="149" y="137" type="line"/>
			<point x="149" y="88" type="line"/>
			<point x="192" y="39" type="line"/>
			<point x="244" y="8" type="line"/>
			<point x="149" y="-91" type="line"/>
			<point x="89" y="-170" type="line"/>
			<point x="70" y="-205" type="line"/>
			<point x="66" y="-221" type="line" smooth="yes"/>
			<point x="63" y="-231"/>
			<point x="61" y="-241"/>
			<point x="61" y="-251" type="curve" smooth="yes"/>
			<point x="61" y="-291" type="line"/>
			<point x="135" y="-361" type="line"/>
			<point x="251" y="-412" type="line"/>
		</contour>
		<contour>
			<point x="480" y="-322" type="line"/>
			<point x="353" y="-301" type="line"/>
			<point x="259" y="-263" type="line"/>
			<point x="232" y="-236" type="line" smooth="yes"/>
			<point x="213" y="-218"/>
			<point x="204" y="-198"/>
			<point x="204" y="-176" type="curve" smooth="yes"/>
			<point x="204" y="-103" type="line"/>
			<point x="299" y="0" type="line"/>
			<point x="360" y="-8" type="line"/>
			<point x="532" y="-20" type="line"/>
			<point x="723" y="-25" type="line"/>
			<point x="823" y="-38" type="line"/>
			<point x="880" y="-61" type="line"/>
			<point x="902" y="-97" type="line"/>
			<point x="902" y="-123" type="line" smooth="yes"/>
			<point x="902" y="-146"/>
			<point x="895" y="-170"/>
			<point x="881" y="-194" type="curve" smooth="yes"/>
			<point x="860" y="-229" type="line"/>
			<point x="774" y="-286" type="line"/>
			<point x="641" y="-322" type="line"/>
		</contour>
		<contour>
			<point x="509" y="344" type="curve" smooth="yes"/>
			<point x="462" y="344" type="line"/>
			<point x="388" y="390" type="line"/>
			<point x="336" y="473" type="line"/>
			<point x="309" y="587" type="line"/>
			<point x="309" y="716" type="line"/>
			<point x="336" y="807" type="line"/>
			<point x="383" y="866" type="line"/>
			<point x="447" y="895" type="line"/>
			<point x="483" y="895" type="line" smooth="yes"/>
			<point x="515" y="895"/>
			<point x="543" y="887"/>
			<point x="568" y="871" type="curve" smooth="yes"/>
			<point x="605" y="847" type="line"/>
			<point x="656" y="762" type="line"/>
			<point x="683" y="647" type="line"/>
			<point x="683" y="519" type="line"/>
			<point x="670" y="475" type="line" smooth="yes"/>
			<point x="661" y="445"/>
			<point x="649" y="420"/>
			<point x="634" y="401" type="curve" smooth="yes"/>
			<point x="611" y="372" type="line"/>
			<point x="579" y="358" type="line" smooth="yes"/>
			<point x="558" y="349"/>
			<point x="534" y="344"/>
		</contour>
	</outline>
</glyph>
<glyph name="h" format="2">
	<advance width="1024"/>
	<unicode hex="0068"/>
	<note>
		h
	</note>
	<outline>
		<contour>
			<point x="27" y="36" type="curve"/>
			<point x="27" y="0" type="line"/>
			<point x="481" y="0" type="line"/>
			<point x="481" y="36" type="line"/>
			<point x="446" y="36" type="line"/>
			<point x="396" y="43" type="line"/>
			<point x="367" y="59" type="line"/>
			<point x="358" y="66" type="line" smooth="yes"/>
			<point x="334" y="83"/>
			<point x="333" y="139"/>
			<point x="333" y="207" type="curve" smooth="yes"/>
			<point x="333" y="691" type="line"/>
			<point x="358" y="718"/>
			<point x="380" y="740"/>
			<point x="401" y="757" type="curve" smooth="yes"/>
			<point x="432" y="782" type="line"/>
			<point x="460" y="797" type="line" smooth="yes"/>
			<point x="478" y="806"/>
			<point x="495" y="813"/>
			<point x="512" y="817" type="curve" smooth="yes"/>
			<point x="537" y="822" type="line"/>
			<point x="619" y="822" type="line"/>
			<point x="650" y="799" type="line" smooth="yes"/>
			<point x="670" y="783"/>
			<point x="684" y="763"/>
			<point x="693" y="739" type="curve" smooth="yes"/>
			<point x="706" y="702" type="line"/>
			<point x="709" y="613" type="line"/>
			<point x="709" y="207" type="line" smooth="yes"/>
			<point x="709" y="174"/>
			<point x="708" y="146"/>
			<point x="706" y="124" type="curve" smooth="yes"/>
			<point x="703" y="91" type="line"/>
			<point x="690" y="72" type="line" smooth="yes"/>
			<point x="681" y="59"/>
			<point x="669" y="49"/>
			<point x="652" y="44" type="curve" smooth="yes"/>
			<point x="627" y="36" type="line"/>
			<point x="561" y="36" type="line"/>
			<point x="561" y="0" type="line"/>
			<point x="1011" y="0" type="line"/>
			<point x="1011" y="36" type="line"/>
			<point x="958" y="39" type="line"/>
			<point x="903" y="59" type="line"/>
			<point x="891" y="79" type="line" smooth="yes"/>
			<point x="882" y="92"/>
			<point x="878" y="109"/>
			<point x="877" y="130" type="curve" smooth="yes"/>
			<point x="875" y="161" type="line"/>
			<point x="875" y="641" type="line"/>
			<point x="856" y="775" type="line"/>
			<point x="830" y="828" type="line" smooth="yes"/>
			<point x="813" y="863"/>
			<point x="789" y="891"/>
			<point x="758" y="912" type="curve" smooth="yes"/>
			<point x="712" y="943" type="line"/>
			<point x="585" y="943" type="line"/>
			<point x="500" y="907" type="line"/>
			<point x="464" y="879" type="line" smooth="yes"/>
			<point x="440" y="860"/>
			<point x="418" y="840"/>
			<point x="397" y="817" type="curve" smooth="yes"/>
			<point x="365" y="783" type="line"/>
			<point x="333" y="752" type="line"/>
			<point x="333" y="1422" type="line"/>
			<point x="287" y="1422" type="line"/>
			<point x="13" y="1310" type="line"/>
			<point x="27" y="1275" type="line"/>
			<point x="72" y="1291" type="line"/>
			<point x="121" y="1291" type="line"/>
			<point x="152" y="1265" type="line"/>
			<point x="167" y="1191" type="line"/>
			<point x="167" y="148" type="line"/>
			<point x="152" y="79" type="line"/>
			<point x="118" y="45" type="line"/>
			<point x="92" y="41" type="line" smooth="yes"/>
			<point x="74" y="38"/>
			<point x="52" y="36"/>
		</contour>
	</outline>
</glyph>
<glyph name="i" format="2">
	<advance width="569"/>
	<unicode hex="0069"/>
	<note>
		i
	</note>
	<outline>
		<contour>
			<point x="74" y="36" type="curve"/>
			<point x="74" y="0" type="line"/>
			<point x="519" y="0" type="line"/>
			<point x="519" y="36" type="line"/>
			<point x="455" y="36" type="line"/>
			<point x="417" y="57" type="line"/>
			<point x="398" y="74" type="line"/>
			<point x="386" y="108" type="line"/>
			<point x="380" y="163" type="line"/>
			<point x="380" y="943" type="line"/>
			<point x="336" y="943" type="line"/>
			<point x="60" y="831" type="line"/>
			<point x="74" y="795" type="line"/>
			<point x="114" y="810" type="line"/>
			<point x="142" y="810" type="line" smooth="yes"/>
			<point x="171" y="810"/>
			<point x="190" y="805"/>
			<point x="201" y="772" type="curve" smooth="yes"/>
			<point x="208" y="747" type="line"/>
			<point x="214" y="647" type="line"/>
			<point x="214" y="123" type="line"/>
			<point x="193" y="77" type="line"/>
			<point x="178" y="56" type="line"/>
			<point x="151" y="42" type="line"/>
			<point x="130" y="39" type="line" smooth="yes"/>
			<point x="115" y="37"/>
			<point x="97" y="36"/>
		</contour>
		<contour>
			<point x="276" y="1219" type="line"/>
			<point x="318" y="1219" type="line"/>
			<point x="355" y="1235" type="line"/>
			<point x="382" y="1263" type="line"/>
			<point x="398" y="1300" type="line"/>
			<point x="398" y="1342" type="line"/>
			<point x="382" y="1379" type="line"/>
			<point x="355" y="1406" type="line"/>
			<point x="318" y="1422" type="line"/>
			<point x="276" y="1422" type="line"/>
			<point x="238" y="1406" type="line"/>
			<point x="211" y="1379" type="line"/>
			<point x="195" y="1342" type="line"/>
			<point x="195" y="1300" type="line"/>
			<point x="211" y="1263" type="line"/>
			<point x="239" y="1235" type="line"/>
		</contour>
	</outline>
</glyph>
<glyph name="j" format="2">
	<advance width="569"/>
	<unicode hex="006A"/>
	<note>
		j
	</note>
	<outline>
		<contour>
			<point x="22" y="-442" type="curve" smooth="yes"/>
			<point x="101" y="-442" type="line"/>
			<point x="233" y="-386" type="line"/>
			<point x="329" y="-272" type="line"/>
			<point x="382" y="-98" type="line"/>
			<point x="382" y="943" type="line"/>
			<point x="339" y="943" type="line"/>
			<point x="63" y="831" type="line"/>
			<point x="77" y="795" type="line"/>
			<point x="117" y="810" type="line"/>
			<point x="167" y="810" type="line"/>
			<point x="195" y="798" type="line"/>
			<point x="211" y="748" type="line"/>
			<point x="217" y="647" type="line"/>
			<point x="217" y="-167" type="line"/>
			<point x="211" y="-260" type="line"/>
			<point x="195" y="-327" type="line"/>
			<point x="148" y="-363" type="line"/>
			<point x="92" y="-363" type="line"/>
			<point x="15" y="-294" type="line"/>
			<point x="-3" y="-281" type="line" smooth="yes"/>
			<point x="-14" y="-272"/>
			<point x="-24" y="-266"/>
			<point x="-32" y="-263" type="curve" smooth="yes"/>
			<point x="-44" y="-257" type="line"/>
			<point x="-54" y="-257" type="line" smooth="yes"/>
			<point x="-60" y="-256"/>
			<point x="-67" y="-256"/>
			<point x="-75" y="-256" type="curve" smooth="yes"/>
			<point x="-86" y="-256"/>
			<point x="-97" y="-258"/>
			<point x="-107" y="-263" type="curve" smooth="yes"/>
			<point x="-121" y="-269" type="line"/>
			<point x="-144" y="-292" type="line"/>
			<point x="-157" y="-323" type="line"/>
			<point x="-157" y="-358" type="line"/>
			<point x="-136" y="-394" type="line"/>
			<point x="-92" y="-423" type="line"/>
			<point x="-59" y="-433" type="line" smooth="yes"/>
			<point x="-36" y="-439"/>
			<point x="-9" y="-442"/>
		</contour>
		<contour>
			<point x="275" y="1218" type="line"/>
			<point x="296" y="1218" type="line" smooth="yes"/>
			<point x="310" y="1218"/>
			<point x="323" y="1221"/>
			<point x="336" y="1226" type="curve" smooth="yes"/>
			<point x="355" y="1234" type="line"/>
			<point x="383" y="1262" type="line"/>
			<point x="399" y="1299" type="line"/>
			<point x="399" y="1341" type="line"/>
			<point x="383" y="1379" type="line"/>
			<point x="355" y="1407" type="line"/>
			<point x="317" y="1423" type="line"/>
			<point x="275" y="1423" type="line"/>
			<point x="257" y="1415" type="line" smooth="yes"/>
			<point x="244" y="1410"/>
			<point x="233" y="1402"/>
			<point x="224" y="1393" type="curve" smooth="yes"/>
			<point x="210" y="1379" type="line"/>
			<point x="194" y="1341" type="line"/>
			<point x="194" y="1299" type="line"/>
			<point x="210" y="1262" type="line"/>
			<point x="238" y="1234" type="line"/>
		</contour>
	</outline>
</glyph>
<glyph name="k" format="2">
	<advance width="1024"/>
	<unicode hex="006B"/>
	<note>
		k
	</note>
	<outline>
		<contour>
			<point x="17" y="36" type="curve"/>
			<point x="17" y="0" type="line"/>
			<point x="483" y="0" type="line"/>
			<point x="483" y="36" type="line"/>
			<point x="404" y="38" type="line"/>
			<point x="371" y="55" type="line"/>
			<point x="362" y="63" type="line" smooth="yes"/>
			<point x="356" y="68"/>
			<point x="351" y="77"/>
			<point x="347" y="88" type="curve" smooth="yes"/>
			<point x="341" y="104" type="line"/>
			<point x="338" y="132" type="line" smooth="yes"/>
			<point x="336" y="151"/>
			<point x="335" y="175"/>
			<point x="335" y="206" type="curve" smooth="yes"/>
			<point x="335" y="507" type="line"/>
			<point x="616" y="151" type="line" smooth="yes"/>
			<point x="643" y="118"/>
			<point x="656" y="93"/>
			<point x="656" y="77" type="curve" smooth="yes"/>
			<point x="656" y="58" type="line"/>
			<point x="629" y="37" type="line"/>
			<point x="591" y="36" type="line"/>
			<point x="591" y="0" type="line"/>
			<point x="1036" y="0" type="line"/>
			<point x="1036" y="36" type="line"/>
			<point x="1000" y="36" type="line"/>
			<point x="978" y="39" type="line" smooth="yes"/>
			<point x="963" y="41"/>
			<point x="949" y="45"/>
			<point x="938" y="50" type="curve" smooth="yes"/>
			<point x="920" y="58" type="line"/>
			<point x="887" y="85" type="line"/>
			<point x="865" y="107" type="line" smooth="yes"/>
			<point x="842" y="129"/>
			<point x="798" y="181"/>
			<point x="733" y="263" type="curve" smooth="yes"/>
			<point x="498" y="560" type="line"/>
			<point x="766" y="807" type="line"/>
			<point x="823" y="848" type="line"/>
			<point x="882" y="872" type="line"/>
			<point x="947" y="883" type="line"/>
			<point x="989" y="884" type="line"/>
			<point x="989" y="916" type="line"/>
			<point x="591" y="916" type="line"/>
			<point x="591" y="884" type="line"/>
			<point x="629" y="882" type="line"/>
			<point x="662" y="853" type="line"/>
			<point x="662" y="825" type="line"/>
			<point x="657" y="811" type="line"/>
			<point x="638" y="788" type="line"/>
			<point x="335" y="513" type="line"/>
			<point x="335" y="1422" type="line"/>
			<point x="289" y="1422" type="line"/>
			<point x="17" y="1310" type="line"/>
			<point x="34" y="1275" type="line"/>
			<point x="77" y="1292" type="line"/>
			<point x="123" y="1292" type="line"/>
			<point x="139" y="1279" type="line" smooth="yes"/>
			<point x="149" y="1270"/>
			<point x="157" y="1253"/>
			<point x="162" y="1229" type="curve" smooth="yes"/>
			<point x="166" y="1212" type="line"/>
			<point x="169" y="1115" type="line"/>
			<point x="169" y="148" type="line"/>
			<point x="157" y="83" type="line"/>
			<point x="140" y="66" type="line" smooth="yes"/>
			<point x="117" y="42"/>
			<point x="80" y="36"/>
		</contour>
	</outline>
</glyph>
<glyph name="l" format="2">
	<advance width="569"/>
	<unicode hex="006C"/>
	<note>
		l
	</note>
	<outline>
		<contour>
			<point x="78" y="0" type="line"/>
			<point x="527" y="0" type="line"/>
			<point x="527" y="36" type="line"/>
			<point x="454" y="36" type="line"/>
			<point x="416" y="57" type="line"/>
			<point x="397" y="75" type="line"/>
			<point x="385" y="108" type="line"/>
			<point x="379" y="163" type="line"/>
			<point x="379" y="1422" type="line"/>
			<point x="334" y="1422" type="line"/>
			<point x="61" y="1310" type="line"/>
			<point x="78" y="1275" type="line"/>
			<point x="117" y="1291" type="line"/>
			<point x="168" y="1291" type="line"/>
			<point x="198" y="1265" type="line"/>
			<point x="210" y="1212" type="line"/>
			<point x="213" y="1117" type="line"/>
			<point x="213" y="154" type="line"/>
			<point x="205" y="88" type="line"/>
			<point x="176" y="50" type="line"/>
			<point x="123" y="36" type="line"/>
			<point x="78" y="36" type="line"/>
		</contour>
	</outline>
</glyph>
<glyph name="m" format="2">
	<advance width="1593"/>
	<unicode hex="006D"/>
	<note>
		m
	</note>
	<outline>
		<contour>
			<point x="32" y="0" type="line"/>
			<point x="485" y="0" type="line"/>
			<point x="485" y="36" type="line"/>
			<point x="410" y="36" type="line"/>
			<point x="373" y="56" type="line"/>
			<point x="354" y="72" type="line"/>
			<point x="348" y="89" type="line" smooth="yes"/>
			<point x="344" y="100"/>
			<point x="341" y="114"/>
			<point x="339" y="133" type="curve" smooth="yes"/>
			<point x="336" y="160" type="line"/>
			<point x="336" y="698" type="line"/>
			<point x="353" y="719" type="line"/>
			<point x="405" y="764" type="line"/>
			<point x="437" y="783" type="line" smooth="yes"/>
			<point x="478" y="807"/>
			<point x="527" y="826"/>
			<point x="571" y="826" type="curve" smooth="yes"/>
			<point x="605" y="826" type="line"/>
			<point x="662" y="803" type="line"/>
			<point x="704" y="751" type="line"/>
			<point x="716" y="708" type="line" smooth="yes"/>
			<point x="723" y="679"/>
			<point x="727" y="644"/>
			<point x="727" y="601" type="curve" smooth="yes"/>
			<point x="727" y="207" type="line" smooth="yes"/>
			<point x="727" y="66"/>
			<point x="720" y="36"/>
			<point x="578" y="36" type="curve"/>
			<point x="578" y="0" type="line"/>
			<point x="1041" y="0" type="line"/>
			<point x="1041" y="36" type="line"/>
			<point x="1006" y="36" type="line"/>
			<point x="981" y="40" type="line" smooth="yes"/>
			<point x="964" y="42"/>
			<point x="951" y="46"/>
			<point x="942" y="51" type="curve" smooth="yes"/>
			<point x="907" y="74" type="line"/>
			<point x="902" y="89" type="line" smooth="yes"/>
			<point x="898" y="98"/>
			<point x="895" y="112"/>
			<point x="894" y="131" type="curve" smooth="yes"/>
			<point x="892" y="158" type="line"/>
			<point x="892" y="207" type="line"/>
			<point x="890" y="695" type="line"/>
			<point x="916" y="720"/>
			<point x="940" y="740"/>
			<point x="962" y="757" type="curve" smooth="yes"/>
			<point x="994" y="781" type="line"/>
			<point x="1022" y="796" type="line" smooth="yes"/>
			<point x="1041" y="806"/>
			<point x="1059" y="813"/>
			<point x="1076" y="817" type="curve" smooth="yes"/>
			<point x="1101" y="823" type="line"/>
			<point x="1165" y="823" type="line"/>
			<point x="1221" y="803" type="line"/>
			<point x="1241" y="778" type="line" smooth="yes"/>
			<point x="1266" y="743"/>
			<point x="1280" y="689"/>
			<point x="1280" y="601" type="curve" smooth="yes"/>
			<point x="1280" y="207" type="line" smooth="yes"/>
			<point x="1280" y="152"/>
			<point x="1279" y="120"/>
			<point x="1276" y="110" type="curve" smooth="yes"/>
			<point x="1263" y="68" type="line"/>
			<point x="1232" y="52" type="line" smooth="yes"/>
			<point x="1211" y="41"/>
			<point x="1184" y="36"/>
			<point x="1151" y="36" type="curve" smooth="yes"/>
			<point x="1132" y="36" type="line"/>
			<point x="1132" y="0" type="line"/>
			<point x="1584" y="0" type="line"/>
			<point x="1584" y="36" type="line"/>
			<point x="1533" y="36" type="line"/>
			<point x="1505" y="46" type="line" smooth="yes"/>
			<point x="1486" y="52"/>
			<point x="1473" y="62"/>
			<point x="1464" y="76" type="curve" smooth="yes"/>
			<point x="1451" y="97" type="line"/>
			<point x="1449" y="130" type="line" smooth="yes"/>
			<point x="1447" y="151"/>
			<point x="1446" y="177"/>
			<point x="1446" y="207" type="curve" smooth="yes"/>
			<point x="1446" y="698" type="line"/>
			<point x="1427" y="764" type="line" smooth="yes"/>
			<point x="1414" y="808"/>
			<point x="1397" y="843"/>
			<point x="1376" y="870" type="curve" smooth="yes"/>
			<point x="1343" y="909" type="line"/>
			<point x="1299" y="926" type="line" smooth="yes"/>
			<point x="1270" y="937"/>
			<point x="1238" y="943"/>
			<point x="1205" y="943" type="curve" smooth="yes"/>
			<point x="1155" y="943"/>
			<point x="1106" y="930"/>
			<point x="1059" y="905" type="curve" smooth="yes"/>
			<point x="988" y="867" type="line"/>
			<point x="885" y="748" type="line"/>
			<point x="857" y="876"/>
			<point x="770" y="943"/>
			<point x="654" y="943" type="curve" smooth="yes"/>
			<point x="603" y="943" type="line"/>
			<point x="499" y="901" type="line"/>
			<point x="454" y="863" type="line" smooth="yes"/>
			<point x="442" y="853"/>
			<point x="403" y="815"/>
			<point x="336" y="748" type="curve"/>
			<point x="336" y="943" type="line"/>
			<point x="293" y="943" type="line"/>
			<point x="17" y="831" type="line"/>
			<point x="32" y="795" type="line"/>
			<point x="71" y="810" type="line"/>
			<point x="121" y="810" type="line"/>
			<point x="135" y="804" type="line" smooth="yes"/>
			<point x="144" y="800"/>
			<point x="152" y="790"/>
			<point x="157" y="773" type="curve" smooth="yes"/>
			<point x="165" y="747" type="line"/>
			<point x="171" y="646" type="line"/>
			<point x="171" y="154" type="line"/>
			<point x="162" y="87" type="line"/>
			<point x="148" y="69" type="line" smooth="yes"/>
			<point x="138" y="56"/>
			<point x="124" y="48"/>
			<point x="106" y="43" type="curve" smooth="yes"/>
			<point x="78" y="36" type="line"/>
			<point x="32" y="36" type="line"/>
		</contour>
	</outline>
</glyph>
<glyph name="n" format="2">
	<advance width="1024"/>
	<unicode hex="006E"/>
	<note>
		n
	</note>
	<outline>
		<contour>
			<point x="27" y="0" type="line"/>
			<point x="480" y="0" type="line"/>
			<point x="480" y="36" type="line"/>
			<point x="442" y="36" type="line"/>
			<point x="395" y="42" type="line"/>
			<point x="381" y="49" type="line" smooth="yes"/>
			<point x="371" y="53"/>
			<point x="363" y="59"/>
			<point x="358" y="66" type="curve" smooth="yes"/>
			<point x="349" y="77" type="line"/>
			<point x="331" y="116" type="line"/>
			<point x="331" y="690" type="line"/>
			<point x="449" y="820" type="line"/>
			<point x="568" y="820" type="line" smooth="yes"/>
			<point x="619" y="820"/>
			<point x="656" y="801"/>
			<point x="678" y="764" type="curve" smooth="yes"/>
			<point x="710" y="707" type="line"/>
			<point x="710" y="157" type="line"/>
			<point x="703" y="91" type="line"/>
			<point x="677" y="52" type="line"/>
			<point x="652" y="44" type="line" smooth="yes"/>
			<point x="635" y="39"/>
			<point x="611" y="36"/>
			<point x="581" y="36" type="curve" smooth="yes"/>
			<point x="562" y="36" type="line"/>
			<point x="562" y="0" type="line"/>
			<point x="1015" y="0" type="line"/>
			<point x="1015" y="36" type="line"/>
			<point x="974" y="36" type="line"/>
			<point x="920" y="45" type="line"/>
			<point x="888" y="80" type="line"/>
			<point x="875" y="148" type="line"/>
			<point x="875" y="598" type="line" smooth="yes"/>
			<point x="875" y="664"/>
			<point x="869" y="719"/>
			<point x="857" y="763" type="curve" smooth="yes"/>
			<point x="839" y="829" type="line"/>
			<point x="775" y="909" type="line"/>
			<point x="689" y="943" type="line"/>
			<point x="492" y="943" type="line"/>
			<point x="331" y="749" type="line"/>
			<point x="331" y="943" type="line"/>
			<point x="288" y="943" type="line"/>
			<point x="12" y="831" type="line"/>
			<point x="27" y="795" type="line"/>
			<point x="66" y="810" type="line"/>
			<point x="120" y="810" type="line"/>
			<point x="136" y="797" type="line" smooth="yes"/>
			<point x="146" y="788"/>
			<point x="153" y="772"/>
			<point x="158" y="748" type="curve" smooth="yes"/>
			<point x="166" y="710" type="line"/>
			<point x="166" y="157" type="line"/>
			<point x="161" y="125" type="line" smooth="yes"/>
			<point x="158" y="103"/>
			<point x="152" y="85"/>
			<point x="143" y="72" type="curve" smooth="yes"/>
			<point x="129" y="52" type="line"/>
			<point x="83" y="36" type="line"/>
			<point x="27" y="36" type="line"/>
		</contour>
	</outline>
</glyph>
<glyph name="o" format="2">
	<advance width="1024"/>
	<unicode hex="006F"/>
	<note>
		o
	</note>
	<outline>
		<contour>
			<point x="404" y="-28" type="line"/>
			<point x="600" y="-28" type="line"/>
			<point x="766" y="55" type="line"/>
			<point x="886" y="195" type="line"/>
			<point x="953" y="376" type="line"/>
			<point x="953" y="569" type="line"/>
			<point x="921" y="654" type="line" smooth="yes"/>
			<point x="899" y="711"/>
			<point x="869" y="760"/>
			<point x="830" y="803" type="curve" smooth="yes"/>
			<point x="771" y="867" type="line"/>
			<point x="609" y="943" type="line"/>
			<point x="413" y="943" type="line"/>
			<point x="250" y="859" type="line"/>
			<point x="133" y="720" type="line"/>
			<point x="69" y="542" type="line"/>
			<point x="69" y="357" type="line"/>
			<point x="131" y="185" type="line"/>
			<point x="245" y="52" type="line"/>
		</contour>
		<contour>
			<point x="478" y="43" type="line"/>
			<point x="371" y="123" type="line"/>
			<point x="296" y="258" type="line"/>
			<point x="255" y="436" type="line"/>
			<point x="255" y="627" type="line"/>
			<point x="293" y="758" type="line"/>
			<point x="356" y="841" type="line"/>
			<point x="437" y="878" type="line"/>
			<point x="549" y="878" type="line"/>
			<point x="656" y="802" type="line"/>
			<point x="729" y="671" type="line"/>
			<point x="767" y="497" type="line"/>
			<point x="767" y="299" type="line"/>
			<point x="733" y="163" type="line"/>
			<point x="673" y="80" type="line"/>
			<point x="592" y="43" type="line"/>
		</contour>
	</outline>
</glyph>
<glyph name="p" format="2">
	<advance width="1024"/>
	<unicode hex="0070"/>
	<note>
		p
	</note>
	<outline>
		<contour>
			<point x="-7" y="-438" type="line"/>
			<point x="473" y="-438" type="line"/>
			<point x="473" y="-401" type="line"/>
			<point x="397" y="-401" type="line"/>
			<point x="355" y="-379" type="line"/>
			<point x="335" y="-363" type="line"/>
			<point x="329" y="-348" type="line" smooth="yes"/>
			<point x="325" y="-337"/>
			<point x="322" y="-323"/>
			<point x="321" y="-304" type="curve" smooth="yes"/>
			<point x="318" y="-275" type="line"/>
			<point x="318" y="53" type="line"/>
			<point x="346" y="27" type="line"/>
			<point x="396" y="-4" type="line"/>
			<point x="447" y="-22" type="line"/>
			<point x="503" y="-28" type="line"/>
			<point x="536" y="-28" type="line" smooth="yes"/>
			<point x="600" y="-28"/>
			<point x="658" y="-14"/>
			<point x="709" y="14" type="curve" smooth="yes"/>
			<point x="786" y="56" type="line"/>
			<point x="895" y="198" type="line"/>
			<point x="954" y="387" type="line"/>
			<point x="954" y="584" type="line"/>
			<point x="905" y="748" type="line"/>
			<point x="816" y="871" type="line"/>
			<point x="689" y="943" type="line"/>
			<point x="572" y="943" type="line"/>
			<point x="497" y="920" type="line"/>
			<point x="425" y="869" type="line"/>
			<point x="354" y="785" type="line"/>
			<point x="318" y="725" type="line"/>
			<point x="318" y="939" type="line"/>
			<point x="280" y="939" type="line"/>
			<point x="-2" y="825" type="line"/>
			<point x="10" y="793" type="line"/>
			<point x="49" y="807" type="line"/>
			<point x="71" y="807" type="line" smooth="yes"/>
			<point x="87" y="807"/>
			<point x="100" y="805"/>
			<point x="111" y="802" type="curve" smooth="yes"/>
			<point x="127" y="796" type="line"/>
			<point x="145" y="762" type="line"/>
			<point x="149" y="731" type="line" smooth="yes"/>
			<point x="151" y="710"/>
			<point x="152" y="681"/>
			<point x="152" y="646" type="curve" smooth="yes"/>
			<point x="152" y="-319" type="line"/>
			<point x="126" y="-379" type="line"/>
			<point x="58" y="-401" type="line"/>
			<point x="-7" y="-401" type="line"/>
		</contour>
		<contour>
			<point x="492" y="32" type="line"/>
			<point x="423" y="56" type="line"/>
			<point x="369" y="96" type="line"/>
			<point x="334" y="149" type="line"/>
			<point x="318" y="212" type="line"/>
			<point x="318" y="666" type="line"/>
			<point x="411" y="749" type="line"/>
			<point x="461" y="782" type="line"/>
			<point x="507" y="798" type="line"/>
			<point x="587" y="798" type="line"/>
			<point x="677" y="737" type="line"/>
			<point x="741" y="630" type="line"/>
			<point x="776" y="483" type="line"/>
			<point x="776" y="318" type="line"/>
			<point x="744" y="184" type="line"/>
			<point x="682" y="87" type="line"/>
			<point x="591" y="32" type="line"/>
		</contour>
	</outline>
</glyph>
<glyph name="q" format="2">
	<advance width="1024"/>
	<unicode hex="0071"/>
	<note>
		q
	</note>
	<outline>
		<contour>
			<point x="562" y="-438" type="line"/>
			<point x="1024" y="-438" type="line"/>
			<point x="1024" y="-401" type="line"/>
			<point x="950" y="-401" type="line"/>
			<point x="911" y="-380" type="line"/>
			<point x="902" y="-373" type="line" smooth="yes"/>
			<point x="890" y="-362"/>
			<point x="882" y="-343"/>
			<point x="878" y="-307" type="curve" smooth="yes"/>
			<point x="875" y="-280" type="line"/>
			<point x="875" y="943" type="line"/>
			<point x="841" y="943" type="line"/>
			<point x="806" y="919"/>
			<point x="769" y="898"/>
			<point x="730" y="879" type="curve"/>
			<point x="654" y="943" type="line"/>
			<point x="443" y="943" type="line"/>
			<point x="271" y="866" type="line"/>
			<point x="143" y="727" type="line"/>
			<point x="68" y="533" type="line"/>
			<point x="68" y="315" type="line"/>
			<point x="126" y="151" type="line"/>
			<point x="221" y="35" type="line"/>
			<point x="283" y="4" type="line" smooth="yes"/>
			<point x="324" y="-17"/>
			<point x="366" y="-28"/>
			<point x="410" y="-28" type="curve" smooth="yes"/>
			<point x="483" y="-28" type="line"/>
			<point x="551" y="11" type="line"/>
			<point x="619" y="52" type="line"/>
			<point x="710" y="159" type="line"/>
			<point x="710" y="-235" type="line" smooth="yes"/>
			<point x="710" y="-273"/>
			<point x="708" y="-303"/>
			<point x="703" y="-326" type="curve" smooth="yes"/>
			<point x="696" y="-359" type="line"/>
			<point x="664" y="-392" type="line"/>
			<point x="615" y="-401" type="line"/>
			<point x="562" y="-401" type="line"/>
		</contour>
		<contour>
			<point x="457" y="113" type="line"/>
			<point x="356" y="161" type="line"/>
			<point x="280" y="255" type="line"/>
			<point x="236" y="397" type="line"/>
			<point x="236" y="587" type="line"/>
			<point x="280" y="731" type="line"/>
			<point x="354" y="826" type="line"/>
			<point x="453" y="873" type="line"/>
			<point x="561" y="873" type="line"/>
			<point x="638" y="840" type="line"/>
			<point x="687" y="781" type="line"/>
			<point x="710" y="700" type="line"/>
			<point x="710" y="222" type="line"/>
			<point x="665" y="164" type="line"/>
			<point x="574" y="113" type="line"/>
		</contour>
	</outline>
</glyph>
<glyph name="r" format="2">
	<advance width="682"/>
	<unicode hex="0072"/>
	<note>
		r
	</note>
	<outline>
		<contour>
			<point x="23" y="0" type="line"/>
			<point x="492" y="0" type="line"/>
			<point x="492" y="36" type="line"/>
			<point x="457" y="36"/>
			<point x="428" y="40"/>
			<point x="407" y="49" type="curve" smooth="yes"/>
			<point x="375" y="61" type="line"/>
			<point x="342" y="107" type="line"/>
			<point x="337" y="140" type="line" smooth="yes"/>
			<point x="334" y="162"/>
			<point x="332" y="187"/>
			<point x="332" y="214" type="curve" smooth="yes"/>
			<point x="332" y="653" type="line"/>
			<point x="349" y="687" type="line"/>
			<point x="385" y="744" type="line"/>
			<point x="419" y="785" type="line"/>
			<point x="451" y="808" type="line"/>
			<point x="473" y="808" type="line"/>
			<point x="548" y="761" type="line"/>
			<point x="590" y="739" type="line"/>
			<point x="643" y="739" type="line"/>
			<point x="695" y="793" type="line"/>
			<point x="695" y="854" type="line"/>
			<point x="676" y="894" type="line"/>
			<point x="659" y="910" type="line" smooth="yes"/>
			<point x="635" y="930"/>
			<point x="604" y="943"/>
			<point x="568" y="943" type="curve" smooth="yes"/>
			<point x="448" y="943" type="line"/>
			<point x="332" y="737" type="line"/>
			<point x="332" y="943" type="line"/>
			<point x="290" y="943" type="line"/>
			<point x="13" y="831" type="line"/>
			<point x="23" y="795" type="line"/>
			<point x="62" y="810" type="line"/>
			<point x="93" y="810" type="line" smooth="yes"/>
			<point x="129" y="810"/>
			<point x="151" y="790"/>
			<point x="160" y="751" type="curve" smooth="yes"/>
			<point x="167" y="723" type="line"/>
			<point x="167" y="206" type="line" smooth="yes"/>
			<point x="167" y="169"/>
			<point x="165" y="140"/>
			<point x="161" y="118" type="curve" smooth="yes"/>
			<point x="155" y="84" type="line"/>
			<point x="123" y="48" type="line"/>
			<point x="67" y="36" type="line"/>
			<point x="23" y="36" type="line"/>
		</contour>
	</outline>
</glyph>
<glyph name="s" format="2">
	<advance width="797"/>
	<unicode hex="0073"/>
	<note>
		s
	</note>
	<outline>
		<contour>
			<point x="377" y="-28" type="line"/>
			<point x="419" y="-28" type="line" smooth="yes"/>
			<point x="495" y="-28"/>
			<point x="572" y="0"/>
			<point x="629" y="48" type="curve" smooth="yes"/>
			<point x="672" y="84" type="line"/>
			<point x="725" y="187" type="line"/>
			<point x="725" y="290" type="line"/>
			<point x="698" y="365" type="line"/>
			<point x="635" y="435" type="line"/>
			<point x="534" y="505" type="line"/>
			<point x="380" y="580" type="line"/>
			<point x="333" y="609" type="line" smooth="yes"/>
			<point x="301" y="628"/>
			<point x="277" y="647"/>
			<point x="260" y="664" type="curve" smooth="yes"/>
			<point x="243" y="681"/>
			<point x="231" y="697"/>
			<point x="226" y="713" type="curve" smooth="yes"/>
			<point x="218" y="737" type="line"/>
			<point x="218" y="765" type="line" smooth="yes"/>
			<point x="218" y="780"/>
			<point x="222" y="794"/>
			<point x="230" y="809" type="curve" smooth="yes"/>
			<point x="241" y="830" type="line"/>
			<point x="262" y="847" type="line" smooth="yes"/>
			<point x="275" y="858"/>
			<point x="292" y="867"/>
			<point x="311" y="874" type="curve" smooth="yes"/>
			<point x="339" y="884" type="line"/>
			<point x="374" y="884" type="line" smooth="yes"/>
			<point x="405" y="884"/>
			<point x="433" y="880"/>
			<point x="458" y="872" type="curve" smooth="yes"/>
			<point x="495" y="860" type="line"/>
			<point x="526" y="831" type="line" smooth="yes"/>
			<point x="566" y="792"/>
			<point x="598" y="730"/>
			<point x="623" y="631" type="curve"/>
			<point x="656" y="631" type="line"/>
			<point x="656" y="943" type="line"/>
			<point x="623" y="943" type="line"/>
			<point x="611" y="919" type="line"/>
			<point x="602" y="912" type="line" smooth="yes"/>
			<point x="596" y="907"/>
			<point x="588" y="905"/>
			<point x="577" y="905" type="curve" smooth="yes"/>
			<point x="568" y="905" type="line"/>
			<point x="488" y="924" type="line"/>
			<point x="427" y="937" type="line"/>
			<point x="397" y="943" type="line"/>
			<point x="317" y="943" type="line"/>
			<point x="266" y="923" type="line" smooth="yes"/>
			<point x="198" y="895"/>
			<point x="148" y="847"/>
			<point x="121" y="783" type="curve" smooth="yes"/>
			<point x="100" y="734" type="line"/>
			<point x="100" y="634" type="line"/>
			<point x="118" y="565" type="line"/>
			<point x="144" y="534" type="line" smooth="yes"/>
			<point x="161" y="513"/>
			<point x="185" y="492"/>
			<point x="216" y="471" type="curve" smooth="yes"/>
			<point x="261" y="440" type="line"/>
			<point x="409" y="367" type="line"/>
			<point x="503" y="310" type="line"/>
			<point x="557" y="258" type="line"/>
			<point x="567" y="231" type="line" smooth="yes"/>
			<point x="574" y="212"/>
			<point x="577" y="192"/>
			<point x="577" y="169" type="curve" smooth="yes"/>
			<point x="577" y="140" type="line"/>
			<point x="566" y="115" type="line" smooth="yes"/>
			<point x="550" y="82"/>
			<point x="521" y="57"/>
			<point x="484" y="42" type="curve" smooth="yes"/>
			<point x="455" y="31" type="line"/>
			<point x="373" y="31" type="line"/>
			<point x="282" y="67" type="line"/>
			<point x="207" y="137" type="line"/>
			<point x="179" y="190" type="line" smooth="yes"/>
			<point x="160" y="225"/>
			<point x="146" y="266"/>
			<point x="137" y="313" type="curve"/>
			<point x="104" y="313" type="line"/>
			<point x="104" y="-14" type="line"/>
			<point x="137" y="-14" type="line"/>
			<point x="151" y="12" type="line"/>
			<point x="184" y="12" type="line"/>
			<point x="197" y="10" type="line"/>
			<point x="281" y="-14" type="line"/>
		</contour>
	</outline>
</glyph>
<glyph name="t" format="2">
	<advance width="569"/>
	<unicode hex="0074"/>
	<note>
		t
	</note>
	<outline>
		<contour>
			<point x="318" y="-15" type="line"/>
			<point x="375" y="-15" type="line"/>
			<point x="443" y="10" type="line"/>
			<point x="503" y="59" type="line"/>
			<point x="554" y="133" type="line"/>
			<point x="572" y="182" type="line"/>
			<point x="533" y="182" type="line"/>
			<point x="516" y="142" type="line"/>
			<point x="454" y="101" type="line"/>
			<point x="401" y="101" type="line"/>
			<point x="385" y="108" type="line" smooth="yes"/>
			<point x="374" y="112"/>
			<point x="364" y="120"/>
			<point x="356" y="131" type="curve" smooth="yes"/>
			<point x="344" y="148" type="line"/>
			<point x="337" y="178" type="line" smooth="yes"/>
			<point x="332" y="197"/>
			<point x="330" y="222"/>
			<point x="330" y="252" type="curve" smooth="yes"/>
			<point x="330" y="846" type="line"/>
			<point x="544" y="846" type="line"/>
			<point x="544" y="916" type="line"/>
			<point x="330" y="916" type="line"/>
			<point x="330" y="1217" type="line"/>
			<point x="299" y="1217" type="line"/>
			<point x="279" y="1166" type="line"/>
			<point x="246" y="1097" type="line"/>
			<point x="190" y="1006" type="line"/>
			<point x="133" y="954" type="line" smooth="yes"/>
			<point x="94" y="919"/>
			<point x="57" y="894"/>
			<point x="20" y="879" type="curve"/>
			<point x="20" y="846" type="line"/>
			<point x="165" y="846" type="line"/>
			<point x="165" y="131" type="line"/>
			<point x="196" y="59" type="line"/>
			<point x="230" y="23" type="line"/>
			<point x="271" y="-2" type="line"/>
		</contour>
	</outline>
</glyph>
<glyph name="u" format="2">
	<advance width="1024"/>
	<unicode hex="0075"/>
	<note>
		u
	</note>
	<outline>
		<contour>
			<point x="314" y="-28" type="line"/>
			<point x="391" y="-28" type="line" smooth="yes"/>
			<point x="437" y="-28"/>
			<point x="481" y="-17"/>
			<point x="522" y="5" type="curve" smooth="yes"/>
			<point x="563" y="27"/>
			<point x="623" y="81"/>
			<point x="702" y="166" type="curve"/>
			<point x="702" y="-28" type="line"/>
			<point x="747" y="-28" type="line"/>
			<point x="1021" y="85" type="line"/>
			<point x="1007" y="120" type="line"/>
			<point x="967" y="103" type="line"/>
			<point x="915" y="103" type="line"/>
			<point x="899" y="117" type="line" smooth="yes"/>
			<point x="888" y="126"/>
			<point x="879" y="143"/>
			<point x="874" y="166" type="curve" smooth="yes"/>
			<point x="869" y="189"/>
			<point x="867" y="254"/>
			<point x="867" y="361" type="curve" smooth="yes"/>
			<point x="867" y="916" type="line"/>
			<point x="555" y="916" type="line"/>
			<point x="555" y="879" type="line"/>
			<point x="585" y="878"/>
			<point x="610" y="876"/>
			<point x="629" y="872" type="curve" smooth="yes"/>
			<point x="657" y="865" type="line"/>
			<point x="674" y="850" type="line" smooth="yes"/>
			<point x="685" y="839"/>
			<point x="692" y="826"/>
			<point x="696" y="809" type="curve" smooth="yes"/>
			<point x="702" y="783" type="line"/>
			<point x="702" y="225" type="line"/>
			<point x="664" y="187" type="line"/>
			<point x="600" y="137" type="line"/>
			<point x="545" y="107" type="line"/>
			<point x="496" y="95" type="line"/>
			<point x="445" y="95" type="line"/>
			<point x="390" y="110" type="line"/>
			<point x="348" y="155" type="line"/>
			<point x="336" y="196" type="line" smooth="yes"/>
			<point x="327" y="223"/>
			<point x="323" y="259"/>
			<point x="323" y="303" type="curve" smooth="yes"/>
			<point x="323" y="916" type="line"/>
			<point x="2" y="916" type="line"/>
			<point x="2" y="879" type="line"/>
			<point x="53" y="879" type="line"/>
			<point x="81" y="874" type="line" smooth="yes"/>
			<point x="99" y="871"/>
			<point x="114" y="864"/>
			<point x="125" y="854" type="curve" smooth="yes"/>
			<point x="142" y="839" type="line"/>
			<point x="157" y="783" type="line"/>
			<point x="157" y="200" type="line"/>
			<point x="202" y="59" type="line"/>
		</contour>
	</outline>
</glyph>
<glyph name="v" format="2">
	<advance width="1024"/>
	<unicode hex="0076"/>
	<note>
		v
	</note>
	<outline>
		<contour>
			<point x="504" y="-28" type="line"/>
			<point x="545" y="-28" type="line"/>
			<point x="882" y="787" type="line"/>
			<point x="904" y="830" type="line"/>
			<point x="932" y="860" type="line"/>
			<point x="973" y="876" type="line"/>
			<point x="1005" y="879" type="line"/>
			<point x="1005" y="916" type="line"/>
			<point x="706" y="916" type="line"/>
			<point x="706" y="879" type="line"/>
			<point x="762" y="879" type="line"/>
			<point x="811" y="859" type="line"/>
			<point x="811" y="802" type="line"/>
			<point x="574" y="220" type="line"/>
			<point x="361" y="726" type="line"/>
			<point x="340" y="774" type="line"/>
			<point x="340" y="841" type="line"/>
			<point x="381" y="879" type="line"/>
			<point x="448" y="879" type="line"/>
			<point x="448" y="916" type="line"/>
			<point x="17" y="916" type="line"/>
			<point x="17" y="879" type="line"/>
			<point x="53" y="874" type="line"/>
			<point x="100" y="858" type="line"/>
			<point x="135" y="828" type="line"/>
			<point x="162" y="781" type="line"/>
		</contour>
	</outline>
</glyph>
<glyph name="w" format="2">
	<advance width="1479"/>
	<unicode hex="0077"/>
	<note>
		w
	</note>
	<outline>
		<contour>
			<point x="452" y="-28" type="line"/>
			<point x="489" y="-28" type="line"/>
			<point x="756" y="557" type="line"/>
			<point x="985" y="-28" type="line"/>
			<point x="1026" y="-28" type="line"/>
			<point x="1372" y="865" type="line"/>
			<point x="1460" y="879" type="line"/>
			<point x="1460" y="916" type="line"/>
			<point x="1171" y="916" type="line"/>
			<point x="1171" y="879" type="line"/>
			<point x="1228" y="877" type="line"/>
			<point x="1248" y="862" type="line" smooth="yes"/>
			<point x="1261" y="852"/>
			<point x="1267" y="841"/>
			<point x="1267" y="828" type="curve" smooth="yes"/>
			<point x="1267" y="796" type="line"/>
			<point x="1054" y="235" type="line"/>
			<point x="838" y="780" type="line"/>
			<point x="838" y="802" type="line" smooth="yes"/>
			<point x="838" y="830"/>
			<point x="848" y="849"/>
			<point x="869" y="860" type="curve" smooth="yes"/>
			<point x="899" y="876" type="line"/>
			<point x="960" y="879" type="line"/>
			<point x="960" y="916" type="line"/>
			<point x="524" y="916" type="line"/>
			<point x="524" y="879" type="line"/>
			<point x="559" y="877" type="line"/>
			<point x="606" y="865" type="line"/>
			<point x="638" y="841" type="line"/>
			<point x="649" y="823" type="line" smooth="yes"/>
			<point x="656" y="810"/>
			<point x="662" y="796"/>
			<point x="669" y="779" type="curve" smooth="yes"/>
			<point x="721" y="644" type="line"/>
			<point x="524" y="215" type="line"/>
			<point x="311" y="787" type="line"/>
			<point x="311" y="817" type="line" smooth="yes"/>
			<point x="311" y="836"/>
			<point x="317" y="850"/>
			<point x="328" y="860" type="curve" smooth="yes"/>
			<point x="344" y="875" type="line"/>
			<point x="397" y="879" type="line"/>
			<point x="397" y="916" type="line"/>
			<point x="13" y="916" type="line"/>
			<point x="13" y="879" type="line"/>
			<point x="43" y="872" type="line"/>
			<point x="85" y="855" type="line"/>
			<point x="117" y="826" type="line"/>
			<point x="144" y="779" type="line"/>
		</contour>
	</outline>
</glyph>
<glyph name="x" format="2">
	<advance width="1024"/>
	<unicode hex="0078"/>
	<note>
		x
	</note>
	<outline>
		<contour>
			<point x="34" y="0" type="line"/>
			<point x="333" y="0" type="line"/>
			<point x="333" y="36" type="line"/>
			<point x="303" y="37"/>
			<point x="281" y="45"/>
			<point x="266" y="58" type="curve" smooth="yes"/>
			<point x="243" y="77" type="line"/>
			<point x="243" y="101" type="line" smooth="yes"/>
			<point x="243" y="113"/>
			<point x="266" y="149"/>
			<point x="311" y="209" type="curve" smooth="yes"/>
			<point x="458" y="405" type="line"/>
			<point x="656" y="115" type="line"/>
			<point x="656" y="66" type="line"/>
			<point x="605" y="36" type="line"/>
			<point x="567" y="36" type="line"/>
			<point x="567" y="0" type="line"/>
			<point x="999" y="0" type="line"/>
			<point x="999" y="36" type="line"/>
			<point x="969" y="37" type="line"/>
			<point x="927" y="45" type="line"/>
			<point x="884" y="78" type="line"/>
			<point x="829" y="147" type="line"/>
			<point x="558" y="537" type="line"/>
			<point x="721" y="755" type="line"/>
			<point x="777" y="821" type="line"/>
			<point x="826" y="860" type="line"/>
			<point x="873" y="877" type="line"/>
			<point x="902" y="879" type="line"/>
			<point x="902" y="916" type="line"/>
			<point x="592" y="916" type="line"/>
			<point x="592" y="879" type="line"/>
			<point x="630" y="879" type="line"/>
			<point x="664" y="850" type="line"/>
			<point x="664" y="803" type="line"/>
			<point x="517" y="600" type="line"/>
			<point x="435" y="731" type="line"/>
			<point x="392" y="797" type="line"/>
			<point x="384" y="818" type="line"/>
			<point x="384" y="851" type="line"/>
			<point x="416" y="879" type="line"/>
			<point x="458" y="879" type="line"/>
			<point x="458" y="916" type="line"/>
			<point x="27" y="916" type="line"/>
			<point x="27" y="879" type="line"/>
			<point x="58" y="879" type="line"/>
			<point x="82" y="874" type="line" smooth="yes"/>
			<point x="97" y="871"/>
			<point x="113" y="864"/>
			<point x="128" y="853" type="curve" smooth="yes"/>
			<point x="151" y="836" type="line"/>
			<point x="205" y="771" type="line"/>
			<point x="417" y="464" type="line"/>
			<point x="184" y="155" type="line"/>
			<point x="131" y="90" type="line"/>
			<point x="90" y="53" type="line"/>
			<point x="55" y="39" type="line"/>
			<point x="34" y="36" type="line"/>
		</contour>
	</outline>
</glyph>
<glyph name="y" format="2">
	<advance width="1024"/>
	<unicode hex="0079"/>
	<note>
		y
	</note>
	<outline>
		<contour>
			<point x="140" y="-433" type="curve" smooth="yes"/>
			<point x="164" y="-442" type="line"/>
			<point x="234" y="-442" type="line"/>
			<point x="321" y="-407" type="line"/>
			<point x="403" y="-340" type="line"/>
			<point x="477" y="-239" type="line"/>
			<point x="896" y="787" type="line"/>
			<point x="910" y="814" type="line" smooth="yes"/>
			<point x="919" y="831"/>
			<point x="928" y="845"/>
			<point x="938" y="854" type="curve" smooth="yes"/>
			<point x="952" y="867" type="line"/>
			<point x="986" y="876" type="line"/>
			<point x="1012" y="879" type="line"/>
			<point x="1012" y="916" type="line"/>
			<point x="714" y="916" type="line"/>
			<point x="714" y="879" type="line"/>
			<point x="744" y="879" type="line"/>
			<point x="781" y="872" type="line"/>
			<point x="800" y="858" type="line"/>
			<point x="803" y="849" type="line" smooth="yes"/>
			<point x="805" y="843"/>
			<point x="806" y="836"/>
			<point x="806" y="828" type="curve" smooth="yes"/>
			<point x="806" y="789" type="line"/>
			<point x="584" y="241" type="line"/>
			<point x="328" y="772" type="line"/>
			<point x="328" y="840" type="line"/>
			<point x="373" y="879" type="line"/>
			<point x="439" y="879" type="line"/>
			<point x="439" y="916" type="line"/>
			<point x="12" y="916" type="line"/>
			<point x="12" y="879" type="line"/>
			<point x="65" y="867" type="line"/>
			<point x="95" y="845" type="line"/>
			<point x="121" y="813" type="line"/>
			<point x="159" y="757" type="line"/>
			<point x="170" y="738" type="line"/>
			<point x="504" y="36" type="line"/>
			<point x="421" y="-167" type="line"/>
			<point x="385" y="-226" type="line"/>
			<point x="350" y="-260" type="line"/>
			<point x="317" y="-274" type="line"/>
			<point x="297" y="-274" type="line"/>
			<point x="279" y="-268" type="line" smooth="yes"/>
			<point x="267" y="-264"/>
			<point x="254" y="-260"/>
			<point x="239" y="-256" type="curve" smooth="yes"/>
			<point x="173" y="-237" type="line"/>
			<point x="114" y="-237" type="line"/>
			<point x="87" y="-263" type="line" smooth="yes"/>
			<point x="68" y="-280"/>
			<point x="59" y="-302"/>
			<point x="59" y="-330" type="curve" smooth="yes"/>
			<point x="59" y="-352" type="line"/>
			<point x="79" y="-392" type="line"/>
			<point x="97" y="-408" type="line" smooth="yes"/>
			<point x="109" y="-418"/>
			<point x="123" y="-426"/>
		</contour>
	</outline>
</glyph>
<glyph name="z" format="2">
	<advance width="909"/>
	<unicode hex="007A"/>
	<note>
		z
	</note>
	<outline>
		<contour>
			<point x="41" y="0" type="line"/>
			<point x="860" y="0" type="line"/>
			<point x="860" y="281" type="line"/>
			<point x="826" y="281" type="line"/>
			<point x="815" y="177" type="line"/>
			<point x="787" y="124" type="line"/>
			<point x="762" y="94" type="line"/>
			<point x="718" y="75" type="line"/>
			<point x="650" y="67" type="line"/>
			<point x="262" y="67" type="line"/>
			<point x="876" y="879" type="line"/>
			<point x="876" y="916" type="line"/>
			<point x="102" y="916" type="line"/>
			<point x="102" y="662" type="line"/>
			<point x="142" y="662" type="line"/>
			<point x="145" y="713"/>
			<point x="156" y="754"/>
			<point x="173" y="786" type="curve" smooth="yes"/>
			<point x="183" y="804" type="line"/>
			<point x="204" y="827" type="line"/>
			<point x="240" y="840" type="line"/>
			<point x="299" y="846" type="line"/>
			<point x="649" y="846" type="line"/>
			<point x="41" y="36" type="line"/>
		</contour>
	</outline>
</glyph>
<glyph name="braceleft" format="2">
	<advance width="983"/>
	<unicode hex="007B"/>
	<note>
		braceleft
	</note>
	<outline>
		<contour>
			<point x="841" y="-442" type="curve"/>
			<point x="841" y="-407" type="line"/>
			<point x="782" y="-392" type="line"/>
			<point x="740" y="-369" type="line" smooth="yes"/>
			<point x="711" y="-353"/>
			<point x="688" y="-335"/>
			<point x="670" y="-315" type="curve" smooth="yes"/>
			<point x="642" y="-284" type="line"/>
			<point x="615" y="-213" type="line"/>
			<point x="615" y="-149" type="line"/>
			<point x="638" y="-20" type="line"/>
			<point x="653" y="70" type="line"/>
			<point x="660" y="114" type="line"/>
			<point x="660" y="194" type="line"/>
			<point x="641" y="245" type="line" smooth="yes"/>
			<point x="628" y="278"/>
			<point x="610" y="311"/>
			<point x="585" y="342" type="curve" smooth="yes"/>
			<point x="547" y="388" type="line"/>
			<point x="437" y="467" type="line"/>
			<point x="365" y="493" type="line"/>
			<point x="438" y="519" type="line"/>
			<point x="494" y="557" type="line" smooth="yes"/>
			<point x="567" y="608"/>
			<point x="617" y="669"/>
			<point x="642" y="736" type="curve" smooth="yes"/>
			<point x="660" y="786" type="line"/>
			<point x="660" y="867" type="line"/>
			<point x="638" y="1001" type="line"/>
			<point x="629" y="1046" type="line"/>
			<point x="615" y="1130" type="line"/>
			<point x="615" y="1194" type="line"/>
			<point x="642" y="1265" type="line"/>
			<point x="697" y="1326" type="line"/>
			<point x="740" y="1350" type="line" smooth="yes"/>
			<point x="768" y="1365"/>
			<point x="802" y="1378"/>
			<point x="841" y="1387" type="curve"/>
			<point x="841" y="1422" type="line"/>
			<point x="758" y="1411" type="line"/>
			<point x="620" y="1339" type="line"/>
			<point x="521" y="1235" type="line"/>
			<point x="493" y="1171" type="line" smooth="yes"/>
			<point x="474" y="1128"/>
			<point x="465" y="1083"/>
			<point x="465" y="1038" type="curve" smooth="yes"/>
			<point x="465" y="1004" type="line"/>
			<point x="472" y="959" type="line" smooth="yes"/>
			<point x="477" y="929"/>
			<point x="482" y="899"/>
			<point x="488" y="870" type="curve" smooth="yes"/>
			<point x="500" y="810"/>
			<point x="511" y="754"/>
			<point x="511" y="722" type="curve" smooth="yes"/>
			<point x="511" y="686" type="line"/>
			<point x="480" y="616" type="line"/>
			<point x="421" y="558" type="line"/>
			<point x="379" y="538" type="line" smooth="yes"/>
			<point x="350" y="525"/>
			<point x="318" y="516"/>
			<point x="283" y="511" type="curve"/>
			<point x="283" y="470" type="line"/>
			<point x="336" y="463" type="line"/>
			<point x="378" y="443" type="line" smooth="yes"/>
			<point x="406" y="429"/>
			<point x="430" y="412"/>
			<point x="450" y="393" type="curve" smooth="yes"/>
			<point x="479" y="364" type="line"/>
			<point x="495" y="329" type="line" smooth="yes"/>
			<point x="506" y="306"/>
			<point x="511" y="282"/>
			<point x="511" y="259" type="curve" smooth="yes"/>
			<point x="511" y="244"/>
			<point x="509" y="223"/>
			<point x="504" y="196" type="curve" smooth="yes"/>
			<point x="497" y="156" type="line"/>
			<point x="479" y="66" type="line"/>
			<point x="472" y="21" type="line" smooth="yes"/>
			<point x="467" y="-9"/>
			<point x="465" y="-35"/>
			<point x="465" y="-57" type="curve" smooth="yes"/>
			<point x="465" y="-102"/>
			<point x="474" y="-147"/>
			<point x="493" y="-190" type="curve" smooth="yes"/>
			<point x="521" y="-254" type="line"/>
			<point x="620" y="-359" type="line"/>
			<point x="689" y="-395" type="line" smooth="yes"/>
			<point x="735" y="-419"/>
			<point x="786" y="-435"/>
		</contour>
	</outline>
</glyph>
<glyph name="bar" format="2">
	<advance width="410"/>
	<unicode hex="007C"/>
	<note>
		bar
	</note>
	<outline>
		<contour>
			<point x="161" y="-442" type="line"/>
			<point x="244" y="-442" type="line"/>
			<point x="244" y="1422" type="line"/>
			<point x="161" y="1422" type="line"/>
		</contour>
	</outline>
</glyph>
<glyph name="braceright" format="2">
	<advance width="983"/>
	<unicode hex="007D"/>
	<note>
		braceright
	</note>
	<outline>
		<contour>
			<point x="177" y="-442" type="line"/>
			<point x="260" y="-431" type="line"/>
			<point x="398" y="-358" type="line"/>
			<point x="448" y="-306" type="line" smooth="yes"/>
			<point x="481" y="-271"/>
			<point x="507" y="-232"/>
			<point x="526" y="-189" type="curve" smooth="yes"/>
			<point x="553" y="-124" type="line"/>
			<point x="553" y="-57" type="line" smooth="yes"/>
			<point x="553" y="-35"/>
			<point x="551" y="-9"/>
			<point x="546" y="21" type="curve" smooth="yes"/>
			<point x="539" y="66" type="line"/>
			<point x="507" y="236" type="line"/>
			<point x="507" y="295" type="line"/>
			<point x="539" y="365" type="line"/>
			<point x="569" y="394" type="line" smooth="yes"/>
			<point x="588" y="413"/>
			<point x="612" y="430"/>
			<point x="640" y="443" type="curve" smooth="yes"/>
			<point x="682" y="463" type="line"/>
			<point x="735" y="470" type="line"/>
			<point x="735" y="511" type="line"/>
			<point x="682" y="518" type="line"/>
			<point x="640" y="538" type="line" smooth="yes"/>
			<point x="611" y="551"/>
			<point x="587" y="568"/>
			<point x="568" y="587" type="curve" smooth="yes"/>
			<point x="538" y="616" type="line"/>
			<point x="507" y="686" type="line"/>
			<point x="507" y="746" type="line"/>
			<point x="539" y="915" type="line"/>
			<point x="553" y="1004" type="line"/>
			<point x="553" y="1105" type="line"/>
			<point x="498" y="1234" type="line"/>
			<point x="398" y="1339" type="line"/>
			<point x="329" y="1375" type="line" smooth="yes"/>
			<point x="283" y="1399"/>
			<point x="232" y="1415"/>
			<point x="177" y="1422" type="curve"/>
			<point x="177" y="1387" type="line"/>
			<point x="216" y="1378"/>
			<point x="249" y="1365"/>
			<point x="278" y="1350" type="curve" smooth="yes"/>
			<point x="321" y="1326" type="line"/>
			<point x="376" y="1265" type="line"/>
			<point x="403" y="1194" type="line"/>
			<point x="403" y="1130" type="line"/>
			<point x="396" y="1088" type="line" smooth="yes"/>
			<point x="391" y="1060"/>
			<point x="386" y="1031"/>
			<point x="380" y="1001" type="curve" smooth="yes"/>
			<point x="368" y="940"/>
			<point x="357" y="877"/>
			<point x="357" y="836" type="curve" smooth="yes"/>
			<point x="357" y="786" type="line"/>
			<point x="396" y="685" type="line"/>
			<point x="434" y="639" type="line" smooth="yes"/>
			<point x="459" y="608"/>
			<point x="489" y="579"/>
			<point x="526" y="553" type="curve" smooth="yes"/>
			<point x="581" y="514" type="line"/>
			<point x="653" y="488" type="line"/>
			<point x="604" y="471"/>
			<point x="561" y="449"/>
			<point x="524" y="424" type="curve" smooth="yes"/>
			<point x="469" y="386" type="line"/>
			<point x="394" y="296" type="line"/>
			<point x="357" y="195" type="line"/>
			<point x="357" y="113" type="line"/>
			<point x="371" y="25" type="line"/>
			<point x="380" y="-21" type="line" smooth="yes"/>
			<point x="392" y="-81"/>
			<point x="403" y="-140"/>
			<point x="403" y="-175" type="curve" smooth="yes"/>
			<point x="403" y="-252" type="line"/>
			<point x="294" y="-378" type="line"/>
			<point x="177" y="-407" type="line"/>
		</contour>
	</outline>
</glyph>
<glyph name="asciitilde" format="2">
	<advance width="1108"/>
	<unicode hex="007E"/>
	<note>
		asciitilde
	</note>
	<outline>
		<contour>
			<point x="819" y="398" type="line"/>
			<point x="892" y="398" type="line"/>
			<point x="979" y="435" type="line"/>
			<point x="1045" y="506" type="line"/>
			<point x="1085" y="609" type="line"/>
			<point x="1087" y="675" type="line"/>
			<point x="1042" y="675" type="line"/>
			<point x="1033" y="584" type="line"/>
			<point x="931" y="489" type="line"/>
			<point x="856" y="489" type="line" smooth="yes"/>
			<point x="833" y="489"/>
			<point x="801" y="495"/>
			<point x="762" y="507" type="curve" smooth="yes"/>
			<point x="702" y="524" type="line"/>
			<point x="532" y="598" type="line"/>
			<point x="396" y="649" type="line"/>
			<point x="296" y="678" type="line"/>
			<point x="209" y="678" type="line"/>
			<point x="168" y="660" type="line" smooth="yes"/>
			<point x="113" y="636"/>
			<point x="70" y="589"/>
			<point x="43" y="520" type="curve" smooth="yes"/>
			<point x="23" y="468" type="line"/>
			<point x="20" y="400" type="line"/>
			<point x="64" y="400" type="line"/>
			<point x="84" y="497" type="line"/>
			<point x="180" y="583" type="line"/>
			<point x="312" y="583" type="line"/>
			<point x="580" y="474" type="line"/>
			<point x="717" y="421" type="line"/>
			<point x="769" y="405" type="line"/>
		</contour>
	</outline>
</glyph>
<glyph name="exclamdown" format="2">
	<advance width="682"/>
	<unicode hex="00A1"/>
	<note>
		exclamdown
	</note>
	<outline>
		<contour>
			<point x="293" y="-442" type="line"/>
			<point x="364" y="-442" type="line"/>
			<point x="405" y="-422" type="line"/>
			<point x="436" y="-385" type="line"/>
			<point x="454" y="-334" type="line"/>
			<point x="454" y="-290" type="line"/>
			<point x="449" y="-226" type="line"/>
			<point x="449" y="-223" type="line"/>
			<point x="360" y="587" type="line"/>
			<point x="322" y="587" type="line"/>
			<point x="233" y="-223" type="line"/>
			<point x="228" y="-278" type="line"/>
			<point x="228" y="-366" type="line"/>
		</contour>
		<contour>
			<point x="319" y="753" type="line"/>
			<point x="365" y="753" type="line"/>
			<point x="405" y="770" type="line"/>
			<point x="435" y="800" type="line"/>
			<point x="453" y="840" type="line"/>
			<point x="453" y="886" type="line"/>
			<point x="435" y="927" type="line"/>
			<point x="405" y="957" type="line"/>
			<point x="365" y="974" type="line"/>
			<point x="319" y="974" type="line"/>
			<point x="279" y="956" type="line"/>
			<point x="249" y="926" type="line"/>
			<point x="241" y="906" type="line" smooth="yes"/>
			<point x="235" y="893"/>
			<point x="232" y="878"/>
			<point x="232" y="863" type="curve" smooth="yes"/>
			<point x="232" y="840" type="line"/>
			<point x="249" y="800" type="line"/>
			<point x="279" y="770" type="line"/>
		</contour>
	</outline>
</glyph>
<glyph name="cent" format="2">
	<advance width="1024"/>
	<unicode hex="00A2"/>
	<note>
		cent
	</note>
	<outline>
		<contour>
			<point x="142" y="-379" type="line"/>
			<point x="212" y="-379" type="line"/>
			<point x="354" y="11" type="line"/>
			<point x="436" y="-24" type="line"/>
			<point x="591" y="-24" type="line"/>
			<point x="714" y="31" type="line"/>
			<point x="811" y="130" type="line"/>
			<point x="846" y="199" type="line" smooth="yes"/>
			<point x="869" y="244"/>
			<point x="887" y="294"/>
			<point x="900" y="349" type="curve"/>
			<point x="870" y="362" type="line"/>
			<point x="817" y="251" type="line"/>
			<point x="787" y="215" type="line" smooth="yes"/>
			<point x="778" y="204"/>
			<point x="766" y="193"/>
			<point x="751" y="183" type="curve" smooth="yes"/>
			<point x="729" y="167" type="line"/>
			<point x="675" y="144" type="line"/>
			<point x="615" y="130" type="line"/>
			<point x="562" y="130" type="line"/>
			<point x="524" y="136" type="line"/>
			<point x="487" y="150" type="line"/>
			<point x="447" y="174" type="line"/>
			<point x="422" y="191" type="line"/>
			<point x="650" y="822" type="line"/>
			<point x="657" y="805" type="line"/>
			<point x="661" y="789" type="line" smooth="yes"/>
			<point x="664" y="778"/>
			<point x="666" y="768"/>
			<point x="667" y="757" type="curve" smooth="yes"/>
			<point x="671" y="721" type="line"/>
			<point x="691" y="674" type="line"/>
			<point x="719" y="647" type="line"/>
			<point x="738" y="642" type="line" smooth="yes"/>
			<point x="750" y="639"/>
			<point x="764" y="637"/>
			<point x="779" y="637" type="curve" smooth="yes"/>
			<point x="825" y="637" type="line"/>
			<point x="873" y="683" type="line"/>
			<point x="873" y="749" type="line"/>
			<point x="857" y="800" type="line"/>
			<point x="815" y="850" type="line"/>
			<point x="743" y="899" type="line"/>
			<point x="687" y="924" type="line"/>
			<point x="832" y="1326" type="line"/>
			<point x="760" y="1326" type="line"/>
			<point x="620" y="943" type="line"/>
			<point x="569" y="947" type="line"/>
			<point x="468" y="947" type="line"/>
			<point x="311" y="874" type="line"/>
			<point x="253" y="809" type="line" smooth="yes"/>
			<point x="214" y="766"/>
			<point x="184" y="714"/>
			<point x="162" y="653" type="curve" smooth="yes"/>
			<point x="129" y="561" type="line"/>
			<point x="129" y="311" type="line"/>
			<point x="216" y="125" type="line"/>
			<point x="297" y="48" type="line"/>
		</contour>
		<contour>
			<point x="370" y="250" type="line"/>
			<point x="346" y="293" type="line"/>
			<point x="315" y="364" type="line"/>
			<point x="297" y="430" type="line"/>
			<point x="289" y="496" type="line"/>
			<point x="289" y="605" type="line"/>
			<point x="320" y="729" type="line"/>
			<point x="381" y="822" type="line"/>
			<point x="472" y="877" type="line"/>
			<point x="564" y="877" type="line"/>
			<point x="593" y="865" type="line"/>
		</contour>
	</outline>
</glyph>
